<svg class="logo__svg" width="61" height="100%" viewBox="0 0 61 87" fill="none" xmlns="http://www.w3.org/2000/svg"><g clip-path="url(#clip0)"><path d="M21.9109 82.2227V87.0001C37.1678 87.0001 51.0049 80.7699 61.0277 70.7121L57.659 67.3315C48.4992 76.5512 35.8593 82.2227 21.9109 82.2227Z" fill="url(#paint0_linear)"></path><path d="M35.0243 34.5598C32.1845 34.5598 29.2333 35.0627 26.839 35.9288V40.2592C28.2032 39.896 31.1265 39.1138 33.9107 39.1138C36.5834 39.1138 38.9499 39.7563 38.9499 42.2987V43.5839C37.9198 43.2766 36.2772 43.0251 34.5232 43.0251C29.985 43.0251 25.6975 44.6456 25.6975 50.7082C25.6975 56.6032 30.2913 58.3633 35.0243 58.3633C38.4766 58.3633 42.0403 57.2458 44.546 55.2342V42.9134C44.5738 36.2082 39.9243 34.5598 35.0243 34.5598ZM38.9499 52.8594C37.8919 53.5858 36.472 53.7535 35.2192 53.7535C33.2425 53.7535 31.5998 52.8874 31.5998 50.4009C31.5998 47.6908 33.5209 47.0203 35.8317 47.0203C36.9732 47.0203 38.0868 47.2159 38.9777 47.4115V52.8594H38.9499Z" fill="black"></path><path d="M32.4627 23.9711H27.4513V28.6368H43.1259V23.9711H38.1145V0L27.0894 2.26301V6.64933L32.4627 5.7553V23.9711Z" fill="black"></path><path d="M10.4961 13.9413C5.95795 13.9413 1.67041 15.5617 1.67041 21.6243C1.67041 27.5193 6.2642 29.2794 10.9972 29.2794C14.4495 29.2794 18.0132 28.1619 20.5467 26.1503V13.8295C20.5467 7.1243 15.8972 5.448 10.9972 5.448C8.1574 5.448 5.20624 5.95089 2.8119 6.81698V11.1474C4.17612 10.7842 7.09944 10.0019 9.88356 10.0019C12.5563 10.0019 14.9228 10.6445 14.9228 13.1869V14.4721C13.9205 14.1927 12.2779 13.9413 10.4961 13.9413ZM14.9228 23.7476C13.8648 24.474 12.4449 24.6416 11.1921 24.6416C9.21537 24.6416 7.57274 23.7756 7.57274 21.289C7.57274 18.579 9.49378 17.9085 11.8046 17.9085C12.9461 17.9085 14.0597 18.1041 14.9506 18.2996V23.7476H14.9228Z" fill="black"></path><path d="M19.9343 37.0183C17.3172 35.4537 14.9785 34.5317 11.5262 34.5317C3.42446 34.5317 0 39.6724 0 47.104C0.0835235 54.4797 3.89776 58.3352 9.18759 58.3352C11.0251 58.3352 12.8905 57.7764 14.2825 56.9103V69.762L25.3076 67.5549V63.1685L19.9343 64.0067V37.0183V37.0183ZM14.2825 51.7418C13.1967 52.8034 11.6376 53.3063 10.4683 53.3063C7.5728 53.3063 5.87449 51.3506 5.87449 46.629C5.87449 42.55 7.18302 39.4489 11.6654 39.4489C12.5007 39.4489 13.3916 39.6165 14.3104 39.9797V51.7418H14.2825Z" fill="black"></path></g><defs><linearGradient id="paint0_linear" x1="21.9109" y1="87.0001" x2="62.8301" y2="81.9576" gradientUnits="userSpaceOnUse"><stop stop-color="#FF6BBB"></stop><stop offset="1" stop-color="#4E55FF"></stop></linearGradient><clipPath id="clip0"><rect width="61" height="87" fill="white"></rect></clipPath></defs></svg>