<svg xmlns="http://www.w3.org/2000/svg" viewBox="0 0 441.14 53.38"><defs><style>.cls-11{fill:#76be43;}.cls-12{fill:#018445;}.cls-13{fill:#fff;}</style></defs><title>activ_white_1</title><g id="Layer_2" data-name="Layer 2"><g id="Layer_1-2" data-name="Layer 1"><polygon class="cls-11" points="360.03 33.04 400.89 0 441.14 33.74 425.7 53.38 400.86 33.63 375.9 52.63 360.03 33.04"/><path class="cls-12" d="M425.46,53.38c-1.7-1.42-3.37-2.87-5.1-4.25q-9.28-7.44-18.62-14.81a2.82,2.82,0,0,1-1.22-2.49c.05-9.63,0-19.26,0-28.89V1.52l-.26-.08q-12,25.44-23.93,50.88v0a10.75,10.75,0,0,1,.28-1.62q6.84-20.62,13.74-41.24a4.15,4.15,0,0,1,1.24-1.8c2.71-2.23,5.48-4.39,8.23-6.57.27-.22.56-.42,1-.77L424,49.44l.22-.08L410.54,8.29a11.31,11.31,0,0,1,1,.63c3.75,3,7.44,6.23,11.15,9.25a2,2,0,0,1,.89,1.28c.37,4.6.66,9.2,1,13.8q.57,8.88,1.12,17.75c.05.79,0,1.59,0,2.38Z"/><path class="cls-13" d="M338.66,42.8h-5c0-.47-.07-.93-.07-1.39,0-5.13,0-10.27,0-15.4,0-4.22-2.22-5.87-6.29-4.65a9.61,9.61,0,0,0-1.75.75,3.69,3.69,0,0,0-2.28,3.76c.16,5.17,0,10.34,0,15.52v1.38H318V41.52c0-5.21,0-10.42,0-15.64a9.74,9.74,0,0,0-.27-2.35,3.16,3.16,0,0,0-2.92-2.44,7.54,7.54,0,0,0-6.33,2.23,2.61,2.61,0,0,0-.59,1.69c-.05,5.45,0,10.91,0,16.36v1.4h-5.23c0-.46-.05-.88-.05-1.31,0-7.72,0-15.44,0-23.16,0-1.07.24-1.51,1.39-1.41s2.53,0,3.86,0l.12,2.23c7.46-4,10.8-3.78,14.56.74,1.41-.89,2.77-1.85,4.22-2.63a9.73,9.73,0,0,1,6.08-.8c3.64.54,5.87,3.1,5.94,7.1.11,6.25,0,12.5,0,18.75A2.28,2.28,0,0,1,338.66,42.8Z"/><path class="cls-13" d="M35.84,42.86c-2.08,0-4,0-5.83,0-.33,0-.79-.46-1-.81q-1.26-2.84-2.38-5.72a1.35,1.35,0,0,0-1.47-1c-4.87,0-9.75,0-14.62,0a1.28,1.28,0,0,0-1.43.93c-.75,2-1.57,3.91-2.43,5.83a1.45,1.45,0,0,1-1,.8c-1.87.08-3.74,0-5.77,0,.32-.8.59-1.5.87-2.18q6.68-16,13.34-32c.34-.8.7-1.19,1.64-1.12a34.54,34.54,0,0,0,4.07,0,1.4,1.4,0,0,1,1.59,1Q27.71,23.48,34,38.37C34.57,39.79,35.16,41.22,35.84,42.86ZM24.39,30.18,17.9,14.29,11.37,30.18Z"/><path class="cls-13" d="M152.14,7.55c5.1,0,10.1-.1,15.09,0a10.35,10.35,0,0,1,10.06,7.74A10.85,10.85,0,0,1,173,27.41a11.68,11.68,0,0,1-6.24,1.8c-2.68,0-5.36,0-8,0h-1.4V42.76h-5.18Zm5.14,10.87c0,1.67,0,3.34,0,5,0,.72.14,1.08,1,1.06,2.63,0,5.27,0,7.9,0a6.05,6.05,0,0,0,5.73-8.34,5.85,5.85,0,0,0-5.69-3.81c-2.67-.11-5.35,0-8,0-.68,0-.91.24-.9.9C157.3,14.92,157.28,16.67,157.28,18.42Z"/><path class="cls-13" d="M147.18,31.79H126.53A7.77,7.77,0,0,0,130.68,38c4,2.05,7.81,1.08,11.43-1.47l3.45,2.75a13.92,13.92,0,0,1-7.6,3.93,15.12,15.12,0,0,1-11-1.76c-4.09-2.53-5.87-6.4-6-11-.19-5.48,2.43-10.56,7.63-12.86,7.79-3.45,18.09.29,18.59,12.08C147.2,30.27,147.18,30.94,147.18,31.79Zm-5.36-4.19c-.44-4.42-3.85-7.09-8.49-6.78-3.48.24-6.77,3.58-6.63,6.78Z"/><path class="cls-13" d="M211,28.18a21,21,0,0,0,0-3.65c-.39-2.05-1.94-3-3.87-3.42a9.77,9.77,0,0,0-8.82,2.63L194.81,21a13,13,0,0,1,7.27-4.25,15.38,15.38,0,0,1,9.29.62c3,1.27,4.81,3.55,4.89,6.77.16,6.09.06,12.18.06,18.27a1.58,1.58,0,0,1-.11.41h-5l-.19-1.7c-.42.25-.74.46-1.07.65a12.22,12.22,0,0,1-10.14,1.16,8.6,8.6,0,0,1,1-16.7,12.77,12.77,0,0,1,9.55,1.62C210.53,27.93,210.74,28,211,28.18Zm.28,6.47c-.21-.85-.17-1.92-.68-2.51-2-2.3-6.67-2.88-9.31-1.32A4.33,4.33,0,0,0,199,34.75a4.2,4.2,0,0,0,2.37,3.87,8,8,0,0,0,6.93.13C210.68,37.86,211.11,37.17,211.3,34.65Z"/><path class="cls-13" d="M268.23,16.36c7.82,0,13.3,5.56,13.3,13.49S276,43.48,268.31,43.5s-13.38-5.68-13.39-13.63S260.44,16.36,268.23,16.36Zm7.94,13.78c-.15-1.07-.2-1.94-.39-2.79A7.57,7.57,0,0,0,268.66,21a7.44,7.44,0,0,0-7.84,5.69,10.35,10.35,0,0,0,.33,7.23,7.58,7.58,0,0,0,14.36-.62A29.48,29.48,0,0,0,276.17,30.14Z"/><path class="cls-13" d="M106.88,36c.62-1.44,1.15-2.66,1.67-3.89q3-7,5.88-14.09a1.47,1.47,0,0,1,1.65-1.13c1.46.09,2.93,0,4.53,0-.18.51-.28.84-.41,1.15Q115,30,109.9,41.94a1.23,1.23,0,0,1-1.39.93c-1.39-.08-3.1.41-4.09-.24s-1.27-2.37-1.83-3.64q-4.49-10.33-9-20.68c-.17-.4-.32-.8-.56-1.39,1.87,0,3.57-.05,5.26,0,.31,0,.68.59.85,1,2.36,5.55,4.7,11.13,7,16.69C106.4,35,106.6,35.4,106.88,36Z"/><path class="cls-13" d="M56.13,35.48l3.65,2.9c-2,3.8-7.64,5.91-12.92,4.87a13,13,0,0,1-10.66-12c-.49-6.48,2.73-12,8.33-14,5.22-1.86,11.73-1.08,15.33,4.13l-3.67,2.92a3,3,0,0,1-.45-.38c-2.3-2.85-5.3-3.43-8.62-2.42s-5,3.65-5.43,7c-.36,3.16.22,6.15,2.76,8.38a7.86,7.86,0,0,0,11.15-.78Z"/><path class="cls-13" d="M238.71,16.93h4.17c-.09-4.75,1.08-8.67,6.39-9.78a8.25,8.25,0,0,1,7.84,2.36c-1,.8-2,1.6-3,2.36a1,1,0,0,1-.77.06c-3.53-1-5.23.26-5.21,4,0,.28,0,.55,0,1,1.35,0,2.69.05,4,0,.88,0,1.22.22,1.17,1.13-.07,1.14,0,2.29,0,3.52h-5.17V42.78H243V21.59h-4.24Z"/><path class="cls-13" d="M77.29,37.26c.52,1.24,1,2.36,1.42,3.53A1.29,1.29,0,0,1,78.35,42a7.82,7.82,0,0,1-8,.86c-2.52-1-3.16-3.3-3.17-5.79,0-5.09,0-10.18,0-15.39H62.88c0-1.5,0-2.87,0-4.24,0-.17.5-.45.78-.46,1.07-.06,2.15,0,3.36,0V10.27H72.3v6.6h5.26v4.67H72.43c0,.53-.06.95-.06,1.38V35.68c0,.24-.08.52,0,.71.36.75.6,1.71,1.21,2.15.88.64,1.91.14,2.77-.44A7.8,7.8,0,0,0,77.29,37.26Z"/><path class="cls-13" d="M224.22,21.6H220V16.94h4.16v-6.7h5.25v6.67c1.51,0,2.9,0,4.28,0,.73,0,1,.23,1,1,0,1.19,0,2.38,0,3.69h-5.23v2.23q0,6,0,11.94c0,1.13-.06,2.35,1.2,2.87a2.87,2.87,0,0,0,3.24-.91c.11-.11.25-.18.47-.35.51,1.23,1,2.38,1.44,3.56a1.25,1.25,0,0,1-.38,1.07c-2.16,1.9-6.68,2.08-9,.36a5.73,5.73,0,0,1-2.21-4.92c0-4.74,0-9.47,0-14.21Z"/><path class="cls-13" d="M187.72,42.82h-5.13V7.63h5.13Z"/><path class="cls-13" d="M290.38,42.79h-5.16V17h5.16v2.79a11.68,11.68,0,0,1,8.38-3.37v5.22c-.32,0-.66,0-1-.06a8.3,8.3,0,0,0-4.65.82c-1.79.86-2.91,1.93-2.8,4.27.23,4.93.07,9.87.07,14.8Z"/><path class="cls-13" d="M89.32,42.8H84c0-.43,0-.85,0-1.27,0-7.76,0-15.51,0-23.26,0-1.12.33-1.48,1.41-1.37a17,17,0,0,0,2.76,0c.93-.08,1.23.24,1.22,1.2,0,5.4,0,10.81,0,16.21V42.8Z"/><path class="cls-12" d="M376.36,52.32c-.71.44-.77,0-.87-.57-.68-3.67-1.39-7.34-2.07-11-.93-5.05-1.83-10.09-2.8-15.13a1.56,1.56,0,0,1,.68-1.8c2.18-1.66,4.3-3.4,6.66-5.27,0,1,0,1.79,0,2.55q-.69,11.31-1.41,22.62c-.15,2.38-.33,4.76-.44,7.14a6.08,6.08,0,0,0,.27,1.49Z"/><path class="cls-13" d="M83.36,10.71a3.23,3.23,0,0,1,3.2-3.32,3.24,3.24,0,1,1,0,6.48A3.18,3.18,0,0,1,83.36,10.71Z"/></g></g></svg>