<svg width="152" height="51" viewBox="0 0 152 51" fill="none" xmlns="http://www.w3.org/2000/svg">
<g clip-path="url(#clip0_99_1305)">
<path fill-rule="evenodd" clip-rule="evenodd" d="M122.846 9.16342L132.657 30.0653L142.681 9.16342H151.852L132.233 49.6856H123.485L128.393 39.6634L113.676 9.16342H122.846ZM16.9574 8.31157C26.3778 8.31157 34.1241 15.5634 34.1241 25.1597V41.156H28.8907L25.9593 39.4505C23.4463 41.156 20.3074 42.0097 17.1667 42.0097C7.7463 42.0097 0 34.7579 0 25.1597C0 15.5634 7.53704 8.31157 16.9574 8.31157ZM71.4463 30.919C72.1744 30.919 72.8954 31.0624 73.5681 31.341C74.2407 31.6197 74.852 32.0281 75.3668 32.5429C75.8817 33.0578 76.2901 33.669 76.5687 34.3416C76.8473 35.0143 76.9907 35.7353 76.9907 36.4634C76.9907 37.1915 76.8473 37.9125 76.5687 38.5852C76.2901 39.2579 75.8817 39.8691 75.3668 40.3839C74.852 40.8988 74.2407 41.3072 73.5681 41.5858C72.8954 41.8644 72.1744 42.0079 71.4463 42.0079C69.9758 42.0079 68.5656 41.4237 67.5258 40.3839C66.486 39.3441 65.9019 37.9339 65.9019 36.4634C65.9019 34.9929 66.486 33.5827 67.5258 32.5429C68.5656 31.5031 69.9758 30.919 71.4463 30.919ZM87.4444 0.633789V10.869C90 9.16527 93.2 8.31342 96.4 8.31342C105.996 8.31342 113.678 15.5634 114.104 25.1597C114.104 34.7579 106.213 42.0097 96.6148 42.0097C87.1963 42.0097 79.4167 35.0245 79.1333 25.6912L79.1241 25.1597V0.633789H87.4444ZM44.1481 9.16342L53.9574 30.0653L63.7685 9.16342H72.9407L57.3704 41.156H50.3333L34.763 9.16342H44.1481ZM17.1667 15.7764C12.1426 15.7764 7.95556 20.0412 7.95556 25.1597C7.95556 30.2801 12.1407 34.5449 17.1667 34.5449C22.1907 34.5449 26.1685 30.2801 26.3778 25.1597C26.3778 20.0412 22.1926 15.7764 17.1667 15.7764ZM96.4 15.7764C91.2833 15.7764 87.0185 20.0412 87.0185 25.1597C87.0185 30.2801 91.2833 34.5449 96.4 34.5449C101.519 34.5449 105.572 30.2801 105.783 25.1597C105.783 20.0412 101.519 15.7764 96.4 15.7764Z" fill="white"/>
</g>
<defs>
<clipPath id="clip0_99_1305">
<rect width="151.852" height="50" fill="white" transform="translate(0 0.633789)"/>
</clipPath>
</defs>
</svg>
