<svg width="44" height="48" fill="none" xmlns="http://www.w3.org/2000/svg"><path fill-rule="evenodd" clip-rule="evenodd" d="M14.611 2a1.5 1.5 0 00-3 0v2.944H6.444A5.944 5.944 0 00.5 10.89V42a5.944 5.944 0 005.944 5.944h31.112A5.944 5.944 0 0043.5 42V10.888a5.944 5.944 0 00-5.944-5.944h-5.167V2a1.5 1.5 0 00-3 0v2.944H14.61V2zM6.444 7.944h5.167v2.945a1.5 1.5 0 003 0V7.944H29.39v2.945a1.5 1.5 0 003 0V7.944h5.167A2.944 2.944 0 0140.5 10.89v7.389h-37v-7.39a2.944 2.944 0 012.944-2.944zM3.5 21.278h37V42a2.944 2.944 0 01-2.944 2.944H6.444A2.944 2.944 0 013.5 42V21.278zM38 24H28v18h10V24z" fill="#fff"/></svg>