<svg width="860" height="613" viewBox="0 0 860 613" fill="none" xmlns="http://www.w3.org/2000/svg">
<g filter="url(#filter0_b_1612_6932)">
<rect y="0.822266" width="860" height="612" fill="white" fill-opacity="0.15"/>
<rect x="0.5" y="1.32227" width="859" height="611" stroke="url(#paint0_linear_1612_6932)"/>
</g>
<g clip-path="url(#clip0_1612_6932)">
<path fill-rule="evenodd" clip-rule="evenodd" d="M857.64 173.902H856.83L857.64 173.092V173.902Z" fill="#FAB413"/>
<path fill-rule="evenodd" clip-rule="evenodd" d="M859.9 183.632H849.34L852.28 180.702H859.9V183.632Z" fill="#FAB413"/>
<path fill-rule="evenodd" clip-rule="evenodd" d="M859.9 193.352H839.6L842.54 190.432H859.9V193.352Z" fill="#FAB413"/>
<path fill-rule="evenodd" clip-rule="evenodd" d="M859.9 203.082L829.9 203.012L832.84 200.092L859.95 200.152L859.9 203.082Z" fill="#FAB413"/>
<path fill-rule="evenodd" clip-rule="evenodd" d="M859.9 212.822L820.11 212.742L823 209.822L859.86 209.902L859.9 212.822Z" fill="#FAB413"/>
<path fill-rule="evenodd" clip-rule="evenodd" d="M859.9 222.532L810.36 222.432L813.3 219.502L859.9 219.602V222.532Z" fill="#FAB413"/>
<path fill-rule="evenodd" clip-rule="evenodd" d="M859.9 232.263L800.62 232.133L803.55 229.213L859.9 229.323V232.263Z" fill="#FAB413"/>
<path fill-rule="evenodd" clip-rule="evenodd" d="M859.9 241.982L790.9 241.842L793.83 238.912L859.93 239.052L859.9 241.982Z" fill="#FAB413"/>
<path fill-rule="evenodd" clip-rule="evenodd" d="M859.9 251.702L781.13 251.542L784.06 248.622L859.9 248.782V251.702Z" fill="#FAB413"/>
<path fill-rule="evenodd" clip-rule="evenodd" d="M859.9 261.432L771.38 261.252L774.31 258.322L859.9 258.502V261.432Z" fill="#FAB413"/>
<path fill-rule="evenodd" clip-rule="evenodd" d="M859.9 271.162L761.63 270.952L764.57 268.032L859.9 268.232V271.162Z" fill="#FAB413"/>
<path fill-rule="evenodd" clip-rule="evenodd" d="M859.9 280.882L751.9 280.662L754.83 277.732L859.91 277.952L859.9 280.882Z" fill="#FAB413"/>
<path fill-rule="evenodd" clip-rule="evenodd" d="M859.9 290.612L742.14 290.372L745.08 287.442L859.9 287.682V290.612Z" fill="#FAB413"/>
<path fill-rule="evenodd" clip-rule="evenodd" d="M859.9 300.332L732.4 300.072L735.33 297.152L859.9 297.402V300.332Z" fill="#FAB413"/>
<path fill-rule="evenodd" clip-rule="evenodd" d="M859.9 310.063L722.65 309.823L725.59 306.893L859.9 307.173V310.063Z" fill="#FAB413"/>
<path fill-rule="evenodd" clip-rule="evenodd" d="M859.9 319.822L717.73 319.532L715.32 317.112L715.84 316.592L859.9 316.892V319.822Z" fill="#FAB413"/>
<path fill-rule="evenodd" clip-rule="evenodd" d="M859.9 329.513L727.44 329.243L724.51 326.303L859.9 326.583V329.513Z" fill="#FAB413"/>
<path fill-rule="evenodd" clip-rule="evenodd" d="M859.9 339.233L737.15 338.983L734.22 336.043L859.9 336.303V339.233Z" fill="#FAB413"/>
<path fill-rule="evenodd" clip-rule="evenodd" d="M859.9 348.962L746.9 348.732L743.93 345.822L859.93 346.062L859.9 348.962Z" fill="#FAB413"/>
<path fill-rule="evenodd" clip-rule="evenodd" d="M859.9 358.692L756.55 358.472L753.63 355.532L859.9 355.752V358.692Z" fill="#FAB413"/>
<path fill-rule="evenodd" clip-rule="evenodd" d="M859.9 368.412L766.26 368.222L763.33 365.282L859.9 365.482V368.412Z" fill="#FAB413"/>
<path fill-rule="evenodd" clip-rule="evenodd" d="M859.9 378.142L776 377.962L773 375.032L859.86 375.202L859.9 378.142Z" fill="#FAB413"/>
<path fill-rule="evenodd" clip-rule="evenodd" d="M859.9 387.822L785.67 387.672L782.75 384.822L859.9 384.982V387.822Z" fill="#FAB413"/>
<path fill-rule="evenodd" clip-rule="evenodd" d="M843.36 164.352L809.36 130.352V198.352L843.36 164.352Z" fill="#FAB413"/>
<path fill-rule="evenodd" clip-rule="evenodd" d="M712.92 452.592L859.92 305.592V307.012L713.63 453.302L712.92 452.592Z" fill="white"/>
<path d="M656.13 609.232L741.18 524.232M626.45 609.232L711.45 524.232L626.45 609.232ZM633.87 609.232L718.87 524.232L633.87 609.232ZM641.29 609.232L726.29 524.232L641.29 609.232ZM648.71 609.232L733.71 524.232L648.71 609.232Z" stroke="white" stroke-width="0.75"/>
<path fill-rule="evenodd" clip-rule="evenodd" d="M859.9 600.693H671.17L720.57 551.303H859.9V600.693Z" fill="#FAB413"/>
<path fill-rule="evenodd" clip-rule="evenodd" d="M859.9 327.543L663.51 523.933L748.81 609.233H859.9V327.543Z" fill="#E73B27"/>
<path fill-rule="evenodd" clip-rule="evenodd" d="M854.89 402.543L753.68 503.753H859.9V407.543L854.89 402.543Z" fill="white"/>
<path fill-rule="evenodd" clip-rule="evenodd" d="M749 609.232L835.78 522.452H746.78V609.232H749Z" fill="#FAB413"/>
<path fill-rule="evenodd" clip-rule="evenodd" d="M607.49 589.822L584.79 567.122V589.822H607.49Z" fill="#FAB413"/>
<path fill-rule="evenodd" clip-rule="evenodd" d="M735.51 497.013L685.22 446.713V497.013H735.51Z" fill="#FAB413"/>
<path fill-rule="evenodd" clip-rule="evenodd" d="M859.9 534.943H856L858.65 532.312H859.94L859.9 534.943Z" fill="#FAB413"/>
<path fill-rule="evenodd" clip-rule="evenodd" d="M859.9 543.702H847.19L849.83 541.072H859.9V543.702Z" fill="#FAB413"/>
<path fill-rule="evenodd" clip-rule="evenodd" d="M859.9 552.452H838.41L841.06 549.822H859.9V552.452Z" fill="#FAB413"/>
<path fill-rule="evenodd" clip-rule="evenodd" d="M859.9 561.213L829.64 561.143L832.29 558.513H859.9V561.213Z" fill="#FAB413"/>
<path fill-rule="evenodd" clip-rule="evenodd" d="M859.9 569.962L820.9 569.882L823.55 567.252L859.93 567.322L859.9 569.962Z" fill="#FAB413"/>
<path fill-rule="evenodd" clip-rule="evenodd" d="M859.9 578.712L812.1 578.622L814.74 575.992L859.9 576.072V578.712Z" fill="#FAB413"/>
<path fill-rule="evenodd" clip-rule="evenodd" d="M859.9 587.473L803.32 587.353L806 584.723L859.93 584.833L859.9 587.473Z" fill="#FAB413"/>
<path fill-rule="evenodd" clip-rule="evenodd" d="M859.9 596.222L794.55 596.092L797.2 593.462L859.9 593.592V596.222Z" fill="#FAB413"/>
<path fill-rule="evenodd" clip-rule="evenodd" d="M859.9 604.982L785.78 604.822L788.42 602.192L859.9 602.342V604.982Z" fill="#FAB413"/>
<path fill-rule="evenodd" clip-rule="evenodd" d="M1 288.732L123.66 288.992L120.73 291.912L1 291.672V288.732Z" fill="#FAB413"/>
<path fill-rule="evenodd" clip-rule="evenodd" d="M1 279.013L133.41 279.283L130.48 282.203L1 281.943V279.013Z" fill="#FAB413"/>
<path fill-rule="evenodd" clip-rule="evenodd" d="M1 269.293L143.15 269.583L140.22 272.503L1 272.213V269.293Z" fill="#FAB413"/>
<path fill-rule="evenodd" clip-rule="evenodd" d="M1 259.562L152.9 259.872L150 262.823L1 262.493V259.562Z" fill="#FAB413"/>
<path fill-rule="evenodd" clip-rule="evenodd" d="M1 249.822L162.65 250.162L159.71 253.082L1 252.762V249.822Z" fill="#FAB413"/>
<path fill-rule="evenodd" clip-rule="evenodd" d="M1 240.112L172.4 240.462L169.46 243.392L1 243.042V240.112Z" fill="#FAB413"/>
<path fill-rule="evenodd" clip-rule="evenodd" d="M1 230.382L182.14 230.752L179.2 233.682L1 233.312V230.382Z" fill="#FAB413"/>
<path fill-rule="evenodd" clip-rule="evenodd" d="M1 220.662L191.89 221.052L189 223.972L1 223.592V220.662Z" fill="#FAB413"/>
<path fill-rule="evenodd" clip-rule="evenodd" d="M1 210.932L201.63 211.342L198.69 214.272L1 213.822V210.932Z" fill="#FAB413"/>
<path fill-rule="evenodd" clip-rule="evenodd" d="M1 201.202L211.38 201.642L208.44 204.562L1 204.142V201.202Z" fill="#FAB413"/>
<path fill-rule="evenodd" clip-rule="evenodd" d="M1 191.482L216.29 191.922L218.7 194.342L218.18 194.862L1 194.412V191.482Z" fill="#FAB413"/>
<path fill-rule="evenodd" clip-rule="evenodd" d="M1 181.763L206.59 182.183L209.51 185.123L1 184.683V181.763Z" fill="#FAB413"/>
<path fill-rule="evenodd" clip-rule="evenodd" d="M1 172.032L196.88 172.432L199.81 175.372L1 174.962V172.032Z" fill="#FAB413"/>
<path fill-rule="evenodd" clip-rule="evenodd" d="M1 162.303L187.18 162.693L190.1 165.623L1 165.233V162.303Z" fill="#FAB413"/>
<path fill-rule="evenodd" clip-rule="evenodd" d="M1 152.582L177.47 152.942L180.39 155.882L1 155.512V152.582Z" fill="#FAB413"/>
<path fill-rule="evenodd" clip-rule="evenodd" d="M1 142.822L167.77 143.172L170.69 146.112L1 145.822V142.822Z" fill="#FAB413"/>
<path fill-rule="evenodd" clip-rule="evenodd" d="M1 133.132L158.06 133.452L160.99 136.392L1 136.062V133.132Z" fill="#FAB413"/>
<path fill-rule="evenodd" clip-rule="evenodd" d="M1 409.752L118.35 292.402L1 175.062V409.752Z" fill="#E73B27"/>
<path fill-rule="evenodd" clip-rule="evenodd" d="M1 292.182L292.36 0.822266H1V292.182Z" fill="#FAB413"/>
<path fill-rule="evenodd" clip-rule="evenodd" d="M39.0601 479.052L72.4901 445.622H39.0601V479.052Z" fill="#FAB413"/>
<path fill-rule="evenodd" clip-rule="evenodd" d="M1 190.442L190.63 0.822266H191.72L191.89 0.982266L1 191.822V190.442Z" fill="#E73C26"/>
<path fill-rule="evenodd" clip-rule="evenodd" d="M1 201.312L201.49 0.822266H202.59L202.75 0.982266L1 202.732V201.312Z" fill="#E73C26"/>
<path fill-rule="evenodd" clip-rule="evenodd" d="M1 212.172L212.36 0.822266H213.46L213.62 0.982266L1 213.602V212.172Z" fill="#E73C26"/>
<path fill-rule="evenodd" clip-rule="evenodd" d="M1 223.042L223.22 0.822266H224.33L224.48 0.982266L1 224.462V223.042Z" fill="#E73C26"/>
<path fill-rule="evenodd" clip-rule="evenodd" d="M1 233.912L234.09 0.822266H235.19L235.35 0.982266L1 235.332V233.912Z" fill="#E73C26"/>
<path fill-rule="evenodd" clip-rule="evenodd" d="M1 244.822L245 0.822266H246.1L246.26 0.982266L1 246.192V244.822Z" fill="#E73C26"/>
<path fill-rule="evenodd" clip-rule="evenodd" d="M1 255.642L255.82 0.822266H256.92L257.09 0.982266L1 257.062V255.642Z" fill="#E73C26"/>
<path fill-rule="evenodd" clip-rule="evenodd" d="M1 266.512L266.69 0.822266H267.79L267.95 0.982266L1 267.932V266.512Z" fill="#E73C26"/>
<path fill-rule="evenodd" clip-rule="evenodd" d="M1 277.372L277.55 0.822266H278.66L278.81 0.982266L1 278.822V277.372Z" fill="#E73C26"/>
<path fill-rule="evenodd" clip-rule="evenodd" d="M59.14 49.6023C59.14 53.4986 57.9846 57.3074 55.82 60.5471C53.6553 63.7867 50.5786 66.3117 46.9789 67.8028C43.3792 69.2938 39.4181 69.6839 35.5967 68.9238C31.7753 68.1637 28.2651 66.2874 25.51 63.5323C22.7549 60.7773 20.8787 57.267 20.1185 53.4456C19.3584 49.6242 19.7485 45.6632 21.2396 42.0635C22.7306 38.4638 25.2556 35.3871 28.4953 33.2224C31.7349 31.0577 35.5437 29.9023 39.44 29.9023C42.027 29.9023 44.5887 30.4119 46.9789 31.4019C49.369 32.3919 51.5407 33.843 53.37 35.6723C55.1993 37.5017 56.6504 39.6734 57.6404 42.0635C58.6304 44.4536 59.14 47.0153 59.14 49.6023Z" fill="#E73C26"/>
<path fill-rule="evenodd" clip-rule="evenodd" d="M93.85 0.822266C94.7 10.7854 99.1094 20.1092 106.271 27.0873C113.433 34.0655 122.868 38.2313 132.85 38.8223V0.822266H93.85Z" fill="white"/>
<path fill-rule="evenodd" clip-rule="evenodd" d="M1 456.222L175.89 281.332L176.6 282.042L1 457.642V456.222Z" fill="white"/>
<path fill-rule="evenodd" clip-rule="evenodd" d="M1 447.592L170.86 277.732L171.56 278.442L1 449.012V447.592Z" fill="white"/>
<path fill-rule="evenodd" clip-rule="evenodd" d="M1 438.952L165.26 274.692L165.97 275.402L1 440.372V438.952Z" fill="white"/>
<path fill-rule="evenodd" clip-rule="evenodd" d="M1 430.323L162.05 269.263L162.76 269.973L1 431.743V430.323Z" fill="white"/>
<path fill-rule="evenodd" clip-rule="evenodd" d="M1 421.682L158 264.682L158.7 265.392L1 423.102V421.682Z" fill="white"/>
<path fill-rule="evenodd" clip-rule="evenodd" d="M1 413.053L154 260.053L154.71 260.763L1 414.473V413.053Z" fill="white"/>
<path fill-rule="evenodd" clip-rule="evenodd" d="M178.49 137.822L315.5 0.822266H316.6L316.76 0.982266L179.2 138.542L178.49 137.822Z" fill="white"/>
<path fill-rule="evenodd" clip-rule="evenodd" d="M36.48 105.823L99.1 168.473V43.2227L36.48 105.823Z" fill="white"/>
<path fill-rule="evenodd" clip-rule="evenodd" d="M36.48 105.912L1 141.392V233.512L36.48 198.032V105.912Z" fill="#E73B27"/>
<path fill-rule="evenodd" clip-rule="evenodd" d="M176.86 282.172L118.54 223.822V340.482L176.86 282.172Z" fill="#FAB413"/>
</g>
<defs>
<filter id="filter0_b_1612_6932" x="-30" y="-29.1777" width="920" height="672" filterUnits="userSpaceOnUse" color-interpolation-filters="sRGB">
<feFlood flood-opacity="0" result="BackgroundImageFix"/>
<feGaussianBlur in="BackgroundImage" stdDeviation="15"/>
<feComposite in2="SourceAlpha" operator="in" result="effect1_backgroundBlur_1612_6932"/>
<feBlend mode="normal" in="SourceGraphic" in2="effect1_backgroundBlur_1612_6932" result="shape"/>
</filter>
<linearGradient id="paint0_linear_1612_6932" x1="860" y1="0.822249" x2="593" y2="813.401" gradientUnits="userSpaceOnUse">
<stop stop-color="white" stop-opacity="0.6"/>
<stop offset="1" stop-color="white" stop-opacity="0.3"/>
</linearGradient>
<clipPath id="clip0_1612_6932">
<rect width="858.9" height="608.68" fill="white" transform="translate(1 0.822266)"/>
</clipPath>
</defs>
</svg>
