<svg width="14" height="14" viewBox="0 0 14 14" fill="none" xmlns="http://www.w3.org/2000/svg">
<path d="M7.03518 4.55L10.5 8.01482L9.51005 9.00477L7.03518 6.5299L4.5603 9.00477L3.57035 8.01482L7.03518 4.55Z" fill="#F2994A"/>
<path fill-rule="evenodd" clip-rule="evenodd" d="M7 14C3.13401 14 -7.80947e-07 10.866 -6.1196e-07 7C-4.42972e-07 3.13401 3.13401 4.42972e-07 7 6.11959e-07C10.866 7.80947e-07 14 3.13401 14 7C14 10.866 10.866 14 7 14ZM7 12.6C3.9072 12.6 1.4 10.0928 1.4 7C1.4 3.90721 3.90721 1.4 7 1.4C10.0928 1.4 12.6 3.90721 12.6 7C12.6 10.0928 10.0928 12.6 7 12.6Z" fill="#F2994A"/>
</svg>
