<svg width="44" height="44" viewBox="0 0 44 44" fill="none" xmlns="http://www.w3.org/2000/svg">
<path d="M11.7867 38.0081L6.15868 32.38C5.07443 31.3094 3.58286 31.1479 2.83516 31.8956C2.0836 32.7307 2.33412 34.2338 3.3362 35.2359L8.93118 40.8309C10.0168 41.9165 11.5199 42.0835 12.2715 41.3319C13.0189 40.5014 12.7752 39.0101 11.7867 38.0081Z" fill="white"/>
<path d="M32.3131 6.09179L37.9081 11.6868C38.9937 12.7724 40.4968 12.9394 41.2484 12.1878C42 11.3527 41.7495 9.84961 40.7474 8.84753L37.9917 6.09185L35.1524 3.25255C34.0668 2.16695 32.5637 1.99994 31.8121 2.7515C31.0605 3.58658 31.3111 5.0897 32.3131 6.09179Z" fill="white"/>
<path d="M6.09185 37.9917L4.50521 39.5783M35.1524 3.25255C34.0668 2.16695 32.5637 1.99994 31.8121 2.7515C31.0605 3.58658 31.3111 5.0897 32.3131 6.09179L37.9081 11.6868C38.9937 12.7724 40.4968 12.9394 41.2484 12.1878C42 11.3527 41.7494 9.84961 40.7474 8.84753M35.1524 3.25255L40.7474 8.84753M35.1524 3.25255L37.9917 6.09185M40.7474 8.84753L37.9917 6.09185M37.9917 6.09185L39.5783 4.50521M11.7867 38.0081L6.15868 32.38M11.7867 38.0081C12.7752 39.0101 13.0189 40.5014 12.2715 41.3319C11.5199 42.0835 10.0168 41.9165 8.93118 40.8309L3.3362 35.2359C2.33412 34.2338 2.0836 32.7307 2.83516 31.8956C3.58286 31.1479 5.07443 31.3094 6.15868 32.38M11.7867 38.0081C11.7813 38.0026 11.7759 37.9971 11.7704 37.9916L6.17545 32.3967C6.16987 32.3911 6.16428 32.3855 6.15868 32.38M11.7867 38.0081L15.1106 41.3319C16.1127 42.334 17.8664 42.334 18.8684 41.3319L19.954 40.2464C20.9561 39.2443 20.9561 37.4906 19.954 36.4885L7.59498 24.1295C6.59289 23.1274 4.83924 23.1274 3.83716 24.1295L2.75156 25.2151C1.74948 26.2172 1.74948 27.9708 2.75156 28.9729L6.15868 32.38M12.0616 28.5959L28.595 12.0625L32.0198 15.4872L15.4864 32.0207L12.0616 28.5959ZM24.1295 7.59498C23.1274 6.59289 23.1274 4.83924 24.1295 3.83716L25.2151 2.75156C26.2172 1.74948 27.9708 1.74948 28.9729 2.75156L41.2484 15.0271C42.2505 16.0292 42.2505 17.7828 41.2484 18.7849L40.1628 19.8705C39.1608 20.8726 37.4071 20.8726 36.405 19.8705L24.1295 7.59498Z" stroke="white" stroke-width="3" stroke-miterlimit="10" stroke-linejoin="round"/>
</svg>
