<svg id="Слой_1" data-name="Слой 1" xmlns="http://www.w3.org/2000/svg" viewBox="0 0 86.36 8.75"><defs><style>.cls-1{fill:#1d1d1b;}</style></defs><path class="cls-1" d="M11.72,5.53v.84H9V8.73h2.67v.84H9v4H8.07v-8Z" transform="translate(-8.07 -5.14)"/><path class="cls-1" d="M18.24,13.53l-.94-2.25H13.89l-1,2.25H12l3.68-8.39,3.59,8.39Zm-4-3.09H17L15.61,7.23Z" transform="translate(-8.07 -5.14)"/><path class="cls-1" d="M24.5,6.64l-.71.47a1.77,1.77,0,0,0-.46-.6,1.46,1.46,0,0,0-.9-.27,1.39,1.39,0,0,0-1,.34,1.18,1.18,0,0,0-.37.89.94.94,0,0,0,.3.7,2.74,2.74,0,0,0,.84.5L23,9a4.31,4.31,0,0,1,1.24.75,2,2,0,0,1,.57,1.46A2.33,2.33,0,0,1,24.08,13a2.51,2.51,0,0,1-1.81.69A2.39,2.39,0,0,1,20.53,13a2.77,2.77,0,0,1-.74-1.42l.86-.24a1.87,1.87,0,0,0,.48,1,1.55,1.55,0,0,0,1.15.45,1.53,1.53,0,0,0,1.19-.47,1.59,1.59,0,0,0,.42-1.12,1.18,1.18,0,0,0-.4-.93,3.84,3.84,0,0,0-1-.56l-.72-.33a4.26,4.26,0,0,1-1.06-.66,1.74,1.74,0,0,1-.56-1.31A1.91,1.91,0,0,1,20.82,6a2.32,2.32,0,0,1,1.62-.57,2.26,2.26,0,0,1,1.28.36A2.22,2.22,0,0,1,24.5,6.64Z" transform="translate(-8.07 -5.14)"/><path class="cls-1" d="M27.32,5.53V8.78h4.11V5.53h.88v8h-.88V9.62H27.32v3.91h-.89v-8Z" transform="translate(-8.07 -5.14)"/><path class="cls-1" d="M34.38,5.53h.89v8h-.89Z" transform="translate(-8.07 -5.14)"/><path class="cls-1" d="M44,12.49a4.28,4.28,0,0,1-5.92,0,4,4,0,0,1-1.2-3,4,4,0,0,1,1.21-3,4.28,4.28,0,0,1,5.9,0,4,4,0,0,1,1.22,3A4,4,0,0,1,44,12.49ZM43.37,7.2a3.25,3.25,0,0,0-4.61,0,3.21,3.21,0,0,0-.95,2.34,3.21,3.21,0,0,0,.95,2.34,3.25,3.25,0,0,0,4.61,0,3.21,3.21,0,0,0,.94-2.34A3.21,3.21,0,0,0,43.37,7.2Z" transform="translate(-8.07 -5.14)"/><path class="cls-1" d="M47.75,13.53h-.89V5.19l6.24,6.54V5.53H54v8.36L47.75,7.35Z" transform="translate(-8.07 -5.14)"/><path class="cls-1" d="M59.73,5.53V8.78h4.11V5.53h.89v8h-.89V9.62H59.73v3.91h-.88v-8Z" transform="translate(-8.07 -5.14)"/><path class="cls-1" d="M73.48,12.49a4.28,4.28,0,0,1-5.92,0,4,4,0,0,1-1.2-3,4,4,0,0,1,1.21-3,4.28,4.28,0,0,1,5.9,0,4,4,0,0,1,1.22,3A4,4,0,0,1,73.48,12.49ZM72.83,7.2a3.25,3.25,0,0,0-4.61,0,3.21,3.21,0,0,0-1,2.34,3.21,3.21,0,0,0,1,2.34,3.25,3.25,0,0,0,4.61,0,3.21,3.21,0,0,0,.94-2.34A3.21,3.21,0,0,0,72.83,7.2Z" transform="translate(-8.07 -5.14)"/><path class="cls-1" d="M77.21,5.53v4.91c0,.3,0,.54,0,.7a2.34,2.34,0,0,0,.17.62,1.55,1.55,0,0,0,.45.62,2.12,2.12,0,0,0,2.64,0,1.55,1.55,0,0,0,.45-.62,2,2,0,0,0,.17-.62c0-.16,0-.4,0-.7V5.53H82v5.15a3.22,3.22,0,0,1-.51,1.92,2.56,2.56,0,0,1-1,.79,3.12,3.12,0,0,1-1.36.29,3.15,3.15,0,0,1-1.36-.29,2.64,2.64,0,0,1-1-.79,3.29,3.29,0,0,1-.5-1.92V5.53Z" transform="translate(-8.07 -5.14)"/><path class="cls-1" d="M88.35,6.64l-.7.47a1.93,1.93,0,0,0-.47-.6,1.46,1.46,0,0,0-.9-.27,1.35,1.35,0,0,0-1,.34,1.15,1.15,0,0,0-.38.89.94.94,0,0,0,.3.7,2.74,2.74,0,0,0,.84.5l.77.34a4.31,4.31,0,0,1,1.24.75,2,2,0,0,1,.57,1.46A2.33,2.33,0,0,1,87.93,13a2.51,2.51,0,0,1-1.81.69A2.39,2.39,0,0,1,84.38,13a2.77,2.77,0,0,1-.74-1.42l.86-.24a1.87,1.87,0,0,0,.48,1,1.55,1.55,0,0,0,1.15.45,1.51,1.51,0,0,0,1.19-.47,1.59,1.59,0,0,0,.42-1.12,1.21,1.21,0,0,0-.39-.93,4.28,4.28,0,0,0-1-.56l-.72-.33a4.16,4.16,0,0,1-1.07-.66,1.73,1.73,0,0,1-.55-1.31A1.91,1.91,0,0,1,84.68,6a2.3,2.3,0,0,1,1.61-.57,2.22,2.22,0,0,1,2.06,1.24Z" transform="translate(-8.07 -5.14)"/><path class="cls-1" d="M94.44,5.53v.84H91.17V8.74h3.17v.84H91.17v3.11h3.27v.84H90.29v-8Z" transform="translate(-8.07 -5.14)"/></svg>