<svg width="120" height="120" viewBox="0 0 120 120" fill="none" xmlns="http://www.w3.org/2000/svg">
<path d="M48.9462 80.4193C47.4718 78.7845 42.9183 80.3427 37.5103 83.9837C37.7296 83.505 37.8422 82.9843 37.8403 82.4578C37.8385 81.9313 37.7223 81.4115 37.4997 80.9343C37.045 80.676 36.5403 80.5179 36.0195 80.4706C35.4986 80.4232 34.9737 80.4878 34.4798 80.6599C38.6059 75.5951 40.5771 71.2225 39.0859 69.5869C36.9526 67.2648 28.5539 71.4581 20.3047 78.9768C15.1537 83.9022 11.3387 90.0552 9.21753 96.8585C11.0412 96.4916 12.8334 95.9831 14.578 95.3377C11.7144 99.1331 9.49229 103.372 7.99994 107.886C12.6319 106.813 17.0579 104.992 21.1039 102.495C20.3306 104.171 19.6873 105.904 19.1795 107.679C26.1335 106.198 32.5964 102.972 37.9599 98.3056C46.1251 90.7831 51.0772 82.7919 48.9462 80.4193Z" fill="#E4C85A"/>
<path d="M56.7719 73.3191C55.2799 71.7004 50.7432 73.2593 45.3353 76.9003C45.5502 76.4204 45.6604 75.9003 45.6586 75.3745C45.6568 74.8487 45.5429 74.3293 45.3247 73.8509C44.87 73.5853 44.363 73.4216 43.8388 73.3712C43.3146 73.3208 42.7858 73.3849 42.2888 73.5589C46.414 68.511 48.3852 64.1383 46.9108 62.5036C44.7783 60.1646 36.362 64.374 28.1128 71.8927C22.9819 76.8084 19.18 82.9434 17.0616 89.7255C18.8729 89.3438 20.6536 88.8294 22.3892 88.1863C19.5314 91.9995 17.3197 96.2563 15.8425 100.787C20.4686 99.7115 24.8888 97.8905 28.9297 95.3951C28.1239 97.0592 27.4364 98.778 26.8722 100.539C33.8258 99.0461 40.2875 95.8156 45.6535 91.1488C53.9524 83.6493 58.9045 75.6581 56.7719 73.3191Z" fill="#C5453A"/>
<path d="M73.1356 77.5795L48.2649 100.248L19.307 68.487L44.1778 45.8188C57.511 33.6502 74.0397 27.7947 85.9641 24.9604C87.787 24.5225 89.4891 24.1464 91.0697 23.8489C94.6092 23.1501 98.1873 22.6631 101.785 22.3905C100.863 27.7 99.4942 32.9223 97.6933 38.0016C93.8381 49.5977 86.4681 65.4278 73.1356 77.5795Z" fill="white"/>
<path d="M73.136 77.5796L48.2652 100.248L41.8515 93.2133C34.1308 81.6545 42.8931 59.033 62.4344 41.2223C69.4754 34.665 77.5904 29.3654 86.4255 25.5544C87.9528 24.9513 89.4969 24.3489 91.07 23.8489C94.6095 23.1501 98.1876 22.6631 101.785 22.3905C100.863 27.7001 99.4945 32.9223 97.6937 38.0016C93.8384 49.5978 86.4684 65.4279 73.136 77.5796Z" fill="#84B3C5"/>
<path d="M61.8346 73.1322C60.2819 74.5453 58.3451 75.4666 56.2688 75.7795C54.1926 76.0924 52.0702 75.7828 50.1698 74.89C48.2695 73.9972 46.6765 72.5612 45.5922 70.7634C44.5078 68.9657 43.9809 66.8869 44.0778 64.7898C44.1748 62.6927 44.8914 60.6714 46.137 58.9814C47.3827 57.2914 49.1014 56.0086 51.0761 55.295C53.0507 54.5814 55.1926 54.469 57.2311 54.9722C59.2696 55.4754 61.1132 56.5715 62.5288 58.1219C64.421 60.2076 65.4103 62.9575 65.2802 65.7703C65.1501 68.5832 63.9113 71.2301 61.8346 73.1322V73.1322Z" fill="#D5E5E6"/>
<path d="M45.4644 73.7395C43.7915 71.9047 42.7004 69.6152 42.329 67.1604C41.9575 64.7056 42.3225 62.1959 43.3777 59.9485C44.4329 57.7011 46.1309 55.8171 48.2571 54.5346C50.3832 53.2521 52.842 52.6289 55.3225 52.7436C57.8029 52.8583 60.1937 53.7059 62.1924 55.1791C64.1911 56.6523 65.708 58.685 66.5513 61.0202C67.3945 63.3554 67.5263 65.8881 66.9299 68.2981C66.3335 70.7081 65.0357 72.8872 63.2006 74.5597C60.7379 76.7983 57.4878 77.9691 54.163 77.8153C50.8381 77.6615 47.71 76.1958 45.4644 73.7395ZM61.1713 59.4235C60.0121 58.1516 58.5017 57.252 56.8312 56.8384C55.1606 56.4249 53.4049 56.5159 51.7861 57.1001C50.1673 57.6843 48.7581 58.7353 47.7368 60.1203C46.7155 61.5053 46.128 63.162 46.0485 64.8809C45.969 66.5998 46.4011 68.3037 47.2902 69.777C48.1793 71.2503 49.4855 72.4269 51.0434 73.158C52.6014 73.8891 54.3412 74.1418 56.0428 73.8842C57.7445 73.6266 59.3314 72.8702 60.6031 71.7107C62.3036 70.1541 63.3182 67.9873 63.4247 65.6845C63.5312 63.3817 62.721 61.1305 61.1713 59.4235Z" fill="#C5453A"/>
<path d="M60.8394 68.7906C60.219 69.3541 59.4455 69.7212 58.6166 69.8454C57.7877 69.9697 56.9405 69.8456 56.1821 69.4888C55.4237 69.132 54.788 68.5585 54.3553 67.8408C53.9227 67.123 53.7124 66.2932 53.7511 65.456C53.7898 64.6189 54.0758 63.812 54.5728 63.1372C55.0699 62.4625 55.7558 61.9501 56.5439 61.6648C57.332 61.3796 58.187 61.3342 59.0009 61.5344C59.8148 61.7347 60.5511 62.1715 61.1169 62.7899C61.4936 63.2017 61.7854 63.6838 61.9754 64.2085C62.1654 64.7333 62.2499 65.2904 62.2242 65.8479C62.1984 66.4054 62.0628 66.9523 61.8251 67.4573C61.5875 67.9622 61.2525 68.4154 60.8394 68.7906V68.7906Z" fill="white"/>
<path d="M82.6943 51.2215C81.4628 52.3379 79.9281 53.0646 78.284 53.3099C76.6398 53.5552 74.9598 53.3081 73.456 52.5998C71.9521 51.8914 70.6918 50.7536 69.834 49.3298C68.9762 47.9061 68.5594 46.2602 68.6362 44.5999C68.713 42.9396 69.2799 41.3393 70.2655 40.0008C71.251 38.6623 72.6109 37.6456 74.1737 37.0791C75.7366 36.5126 77.4322 36.4216 79.0467 36.8176C80.6612 37.2136 82.1222 38.0788 83.2454 39.3041C83.9946 40.1214 84.5749 41.0787 84.9529 42.121C85.3308 43.1633 85.499 44.27 85.4478 45.3774C85.3966 46.4849 85.127 47.5713 84.6544 48.5743C84.1819 49.5772 83.5157 50.4769 82.6943 51.2215V51.2215Z" fill="#D5E5E6"/>
<path d="M69.5643 51.7093C68.233 50.2513 67.3642 48.4313 67.0678 46.4796C66.7713 44.5278 67.0606 42.532 67.899 40.7446C68.7374 38.9573 70.0872 37.4588 71.7776 36.4387C73.4681 35.4186 75.4232 34.9228 77.3955 35.014C79.3679 35.1052 81.2689 35.7794 82.858 36.9511C84.4471 38.1229 85.6528 39.7396 86.3226 41.5967C86.9925 43.4537 87.0963 45.4678 86.621 47.3838C86.1457 49.2999 85.1126 51.032 83.6524 52.3608C81.697 54.1404 79.115 55.0714 76.4736 54.9492C73.8322 54.8271 71.3472 53.6618 69.5643 51.7093V51.7093ZM82.0357 40.3263C81.115 39.3207 79.917 38.6103 78.5929 38.2848C77.2688 37.9594 75.878 38.0334 74.5959 38.4977C73.3139 38.9619 72.1982 39.7956 71.3897 40.8933C70.5811 41.991 70.116 43.3037 70.053 44.6655C69.9901 46.0274 70.332 47.3773 71.0358 48.545C71.7396 49.7127 72.7736 50.6457 74.0073 51.2263C75.241 51.8069 76.6191 52.0091 77.9676 51.8072C79.316 51.6054 80.5745 51.0086 81.584 50.0922C82.2609 49.4863 82.8113 48.7527 83.2039 47.9335C83.5965 47.1143 83.8234 46.2257 83.8716 45.3186C83.9198 44.4115 83.7884 43.5038 83.4849 42.6477C83.1813 41.7915 82.7117 41.0037 82.1029 40.3294L82.0357 40.3263Z" fill="#C5453A"/>
<path d="M81.8429 47.7797C81.3499 48.2253 80.7361 48.515 80.0787 48.6124C79.4214 48.7097 78.7499 48.6104 78.1489 48.3268C77.548 48.0432 77.0444 47.5881 76.7017 47.0188C76.359 46.4495 76.1925 45.7916 76.2232 45.1279C76.2539 44.4641 76.4804 43.8244 76.8742 43.2892C77.268 42.754 77.8114 42.3473 78.436 42.1204C79.0605 41.8934 79.7383 41.8565 80.3839 42.0141C81.0295 42.1717 81.6139 42.5168 82.0636 43.006C82.3643 43.3331 82.5973 43.7165 82.749 44.1341C82.9008 44.5516 82.9684 44.9951 82.9478 45.4389C82.9273 45.8827 82.8191 46.318 82.6295 46.7198C82.4398 47.1215 82.1725 47.4818 81.8429 47.7797Z" fill="white"/>
<path d="M107.569 15.3636L91.043 30.4318L92.8007 32.3589L109.327 17.2907L107.569 15.3636Z" fill="#B5C5C6"/>
<path d="M111.486 17.3478C111.078 17.7194 110.568 17.9616 110.022 18.0438C109.476 18.1259 108.918 18.0444 108.418 17.8095C107.918 17.5746 107.499 17.1968 107.214 16.7239C106.929 16.251 106.79 15.7042 106.816 15.1526C106.841 14.6009 107.03 14.0693 107.357 13.6247C107.685 13.1801 108.137 12.8426 108.656 12.6549C109.176 12.4671 109.739 12.4374 110.275 12.5696C110.812 12.7019 111.297 12.99 111.669 13.3978C112.161 13.9494 112.418 14.6717 112.384 15.4101C112.349 16.1484 112.027 16.844 111.486 17.3478V17.3478Z" fill="#C5453A"/>
<path d="M97.7609 38.0047L85.9643 24.9604C87.7873 24.5225 89.4894 24.1464 91.07 23.849C94.6095 23.1502 98.1876 22.6631 101.785 22.3905C100.885 27.6991 99.539 32.9224 97.7609 38.0047V38.0047Z" fill="#C5453A"/>
<path d="M44.6368 96.3742C43.9083 97.0359 42.9473 97.3819 41.9641 97.3364C40.981 97.2909 40.0559 96.8577 39.3916 96.1316L21.5768 76.6101C20.9141 75.8789 20.5677 74.9151 20.6133 73.9294C20.6589 72.9436 21.0928 72.016 21.8201 71.349V71.349C22.5515 70.6864 23.5154 70.3401 24.5013 70.3857C25.4872 70.4313 26.415 70.8651 27.0821 71.5923L44.8794 91.1299C45.5411 91.8583 45.8872 92.8192 45.8417 93.8022C45.7963 94.7851 45.363 95.71 44.6368 96.3742V96.3742Z" fill="#B5C5C6"/>
<path d="M16.7521 80.7498C16.2657 80.7662 15.7833 80.6569 15.3516 80.4323C15.0992 80.2873 14.8693 80.1064 14.6688 79.8954C12.4569 77.4517 13.5536 70.495 15.1155 67.6868L23.2458 52.9026C23.6491 52.1714 24.1927 51.527 24.8456 51.0063C25.4985 50.4857 26.2477 50.099 27.0504 49.8685C27.8531 49.6381 28.6934 49.5683 29.5231 49.6632C30.3528 49.7581 31.1556 50.0159 31.8854 50.4217C32.492 50.7556 33.041 51.1848 33.5114 51.6928C34.3905 52.6823 34.9454 53.9172 35.1015 55.2314C35.2576 56.5456 35.0073 57.8761 34.3845 59.0438L26.2373 73.8273C24.784 76.4721 20.003 80.7653 16.7521 80.7498Z" fill="#C5453A"/>
<path d="M16.7522 80.7497C16.3836 80.6369 16.0424 80.449 15.75 80.198L15.5728 80.0213C13.2799 77.5065 16.0237 70.2723 18.3656 67.7191L29.5625 55.1149C30.1693 54.4321 30.9171 53.8892 31.7543 53.5237C32.5915 53.1582 33.4981 52.9787 34.4114 52.9977C34.9149 53.9267 35.1764 54.9676 35.1717 56.0242C35.167 57.0808 34.8963 58.1193 34.3845 59.0437L26.2374 73.8272C24.7841 76.472 20.003 80.7653 16.7522 80.7497Z" fill="#E4C85A"/>
<path d="M34.3455 99.9578C34.2761 100.446 34.3404 100.944 34.5316 101.398C34.6532 101.658 34.8124 101.898 35.0041 102.111C37.216 104.554 44.2462 104.088 47.2038 102.793L62.6779 96.0631C64.2163 95.3848 65.4236 94.1251 66.0359 92.5594C66.6481 90.9937 66.6155 89.2493 65.9452 87.7076C65.6674 87.0694 65.2845 86.4823 64.8125 85.9707C64.4542 85.5791 64.0451 85.2373 63.5959 84.9543C62.7188 84.37 61.7082 84.0165 60.658 83.9267C59.6078 83.8369 58.5519 84.0137 57.5883 84.4407L42.1143 91.1704C39.3431 92.4403 34.6597 96.8055 34.3455 99.9578Z" fill="#C5453A"/>
<path d="M34.3456 99.9578C34.4071 100.337 34.5579 100.696 34.7857 101.006L34.9452 101.198C37.2549 103.714 44.7128 101.65 47.454 99.5702L61.0713 89.6383C61.8072 89.0972 62.4169 88.4028 62.8582 87.6031C63.2995 86.8034 63.5619 85.9174 63.6273 85.0063C62.7501 84.422 61.7396 84.0685 60.6894 83.9788C59.6392 83.889 58.5833 84.0657 57.6196 84.4927L42.1456 91.2224C39.3431 92.4404 34.6598 96.8056 34.3456 99.9578Z" fill="#E4C85A"/>
<path d="M32.3673 92.8252L32.2832 92.8213C30.155 94.7611 24.2795 97.2182 22.3354 95.1743C22.3354 95.1743 22.1911 95.016 22.1286 94.9121C20.5484 92.6492 23.2954 87.1669 25.2861 85.2882L35.1721 75.8912L35.176 75.8072C36.1827 74.9153 37.4976 74.4511 38.8412 74.5132C40.1849 74.5754 41.4513 75.1589 42.3714 76.1399L42.531 76.3326C43.4165 77.3189 43.8785 78.6139 43.8173 79.9379C43.7561 81.2619 43.1765 82.5087 42.2037 83.4091L32.3673 92.8252Z" fill="#C5453A"/>
<path d="M32.3674 92.8252L32.2833 92.8213C30.155 94.7611 24.2795 97.2182 22.3355 95.1743C22.3355 95.1743 22.1912 95.016 22.1286 94.9121L42.5975 76.3525C43.483 77.3388 43.9451 78.6338 43.8838 79.9578C43.8226 81.2818 43.243 82.5286 42.2702 83.429L32.3674 92.8252Z" fill="#E4C85A"/>
</svg>
