<svg version="1.1" id="Слой_1" xmlns="http://www.w3.org/2000/svg" xmlns:xlink="http://www.w3.org/1999/xlink" x="0px" y="0px"
	 viewBox="0 0 120 120" style="enable-background:new 0 0 120 120;" xml:space="preserve">
<style type="text/css">
	.st0{clip-path:url(#SVGID_00000068676368042128660780000011235042375649285009_);}
	.st1{fill:#FAB413;}
	.st2{fill:#FCF200;}
	.st3{fill:#FFFFFF;}
	.st4{fill:#84B3C5;}
	.st5{fill:#D5E5E6;}
	.st6{fill:#C5453A;}
	.st7{fill:#B5C5C6;}
</style>
<g>
	<g>
		<defs>
			<rect id="SVGID_1_" width="120" height="120"/>
		</defs>
		<clipPath id="SVGID_00000128452673074535550110000016591839994100423815_">
			<use xlink:href="#SVGID_1_"  style="overflow:visible;"/>
		</clipPath>
		<g style="clip-path:url(#SVGID_00000128452673074535550110000016591839994100423815_);">
			<path class="st1" d="M53,80.8c-2.1-2.1-8.1,0.3-15.1,5.5c0.3-0.7,0.4-1.4,0.3-2.1c0-0.7-0.2-1.4-0.5-2c-0.6-0.3-1.3-0.5-2-0.5
				s-1.4,0.1-2,0.3c5.2-7,7.6-13,5.5-15.1c-3-3-14,3.2-24.5,13.7C8.1,87.5,3.4,96,0.9,105.2c2.4-0.6,4.8-1.4,7.1-2.4
				c-3.6,5.2-6.3,11-8,17.2c6.1-1.7,11.9-4.4,17.2-8c-0.9,2.3-1.7,4.6-2.3,7c9.2-2.4,17.6-7.1,24.5-13.7C49.9,94.8,56,83.8,53,80.8z
				"/>
			<path class="st2" d="M63,70.8c-2.1-2.1-8.1,0.3-15.1,5.5c0.3-0.7,0.4-1.4,0.3-2.1s-0.2-1.4-0.5-2c-0.6-0.3-1.3-0.5-2-0.5
				s-1.4,0.1-2.1,0.3c5.2-7,7.6-13,5.5-15.1c-3-3-14,3.2-24.5,13.7C18.1,77.6,13.4,86,11,95.2c2.4-0.6,4.7-1.4,7-2.4
				c-3.6,5.3-6.3,11.1-8,17.2c6.1-1.7,11.9-4.4,17.1-8c-1,2.3-1.8,4.6-2.4,7c9.2-2.4,17.6-7.1,24.5-13.7C59.9,84.8,66,73.8,63,70.8z
				"/>
			<path class="st3" d="M85.1,75.5l-31.8,31.8L12.7,66.7l31.8-31.8C61.6,17.8,83.3,8.9,99,4.4c2.4-0.7,4.7-1.3,6.8-1.8
				c4.7-1.2,9.4-2,14.2-2.6c-0.9,7.1-2.4,14.2-4.5,21.1C111.1,36.8,102.2,58.4,85.1,75.5z"/>
			<path class="st4" d="M85.1,75.5l-31.8,31.8l-9-9c-11-15-0.7-45.7,24.3-70.7c9-9.2,19.5-16.8,31.1-22.4c2-0.9,4-1.8,6.1-2.6
				c4.7-1.2,9.4-2,14.2-2.6c-0.9,7.1-2.4,14.2-4.5,21.1C111.1,36.8,102.2,58.4,85.1,75.5z"/>
			<path class="st5" d="M69.8,70.3c-2,2-4.5,3.3-7.3,3.9c-2.8,0.5-5.6,0.3-8.2-0.8c-2.6-1.1-4.8-2.9-6.4-5.2
				c-1.6-2.3-2.4-5.1-2.4-7.9c0-2.8,0.8-5.6,2.4-7.9c1.6-2.3,3.8-4.2,6.4-5.2c2.6-1.1,5.4-1.4,8.2-0.8c2.8,0.5,5.3,1.9,7.3,3.9
				c2.7,2.7,4.1,6.3,4.1,10C73.9,64,72.4,67.6,69.8,70.3L69.8,70.3z"/>
			<path class="st6" d="M47.9,72.1c-2.3-2.3-3.9-5.3-4.6-8.6c-0.6-3.3-0.3-6.6,1-9.7c1.3-3.1,3.4-5.7,6.2-7.5s6-2.8,9.3-2.8
				s6.6,1,9.3,2.8c2.8,1.8,4.9,4.5,6.2,7.5c1.3,3.1,1.6,6.4,1,9.7c-0.6,3.3-2.2,6.2-4.6,8.6c-3.2,3.1-7.4,4.9-11.9,4.9
				C55.4,77,51.1,75.2,47.9,72.1z M68,52c-1.6-1.6-3.7-2.7-6-3.2c-2.3-0.4-4.6-0.2-6.7,0.7c-2.1,0.9-3.9,2.4-5.2,4.3
				c-1.3,1.9-2,4.2-2,6.5s0.7,4.6,2,6.5s3.1,3.4,5.2,4.3c2.1,0.9,4.5,1.1,6.7,0.7c2.3-0.4,4.3-1.6,6-3.2c2.2-2.2,3.4-5.1,3.4-8.2
				C71.4,57.1,70.2,54.2,68,52z"/>
			<path class="st3" d="M68.2,64.5c-0.8,0.8-1.8,1.3-2.9,1.5S63,66.2,62,65.7c-1-0.4-1.9-1.2-2.5-2.1s-1-2-1-3.1s0.3-2.2,1-3.1
				c0.6-0.9,1.5-1.7,2.5-2.1c1-0.4,2.2-0.5,3.3-0.3c1.1,0.2,2.1,0.8,2.9,1.5c0.5,0.5,0.9,1.2,1.2,1.8c0.3,0.7,0.4,1.4,0.4,2.2
				s-0.1,1.5-0.4,2.2C69.1,63.4,68.7,64,68.2,64.5L68.2,64.5z"/>
			<path class="st5" d="M96.3,39.7c-1.6,1.6-3.6,2.6-5.8,3.1c-2.2,0.4-4.4,0.2-6.5-0.7s-3.8-2.3-5-4.1s-1.9-4-1.9-6.2
				s0.7-4.4,1.9-6.2c1.2-1.8,3-3.3,5-4.1c2.1-0.9,4.3-1.1,6.5-0.7s4.2,1.5,5.8,3.1c1.1,1,1.9,2.3,2.5,3.7c0.6,1.4,0.9,2.8,0.9,4.3
				s-0.3,3-0.9,4.3C98.2,37.4,97.3,38.6,96.3,39.7L96.3,39.7z"/>
			<path class="st6" d="M78.8,41.2c-1.9-1.9-3.1-4.2-3.7-6.8c-0.5-2.6-0.3-5.3,0.8-7.7s2.7-4.5,4.9-6c2.2-1.5,4.8-2.3,7.4-2.3
				s5.2,0.8,7.4,2.3c2.2,1.5,3.9,3.6,4.9,6s1.3,5.1,0.8,7.7s-1.8,5-3.7,6.8c-2.5,2.5-5.9,3.9-9.4,3.9C84.7,45.1,81.3,43.7,78.8,41.2
				L78.8,41.2z M94.7,25.2c-1.3-1.3-2.9-2.2-4.7-2.5c-1.8-0.4-3.6-0.2-5.3,0.5c-1.7,0.7-3.1,1.9-4.1,3.4S79,29.9,79,31.7
				c0,1.8,0.5,3.6,1.6,5.1c1,1.5,2.5,2.7,4.1,3.4c1.7,0.7,3.5,0.9,5.3,0.5s3.4-1.2,4.7-2.5c0.9-0.9,1.6-1.9,2-3
				c0.5-1.1,0.7-2.3,0.7-3.5s-0.2-2.4-0.7-3.5C96.3,27.1,95.7,26,94.7,25.2L94.7,25.2z"/>
			<path class="st3" d="M94.9,35.1c-0.6,0.6-1.4,1.1-2.3,1.2c-0.9,0.2-1.8,0.1-2.6-0.3c-0.8-0.3-1.5-0.9-2-1.7
				c-0.5-0.7-0.8-1.6-0.8-2.5c0-0.9,0.3-1.8,0.8-2.5s1.2-1.3,2-1.7c0.8-0.3,1.7-0.4,2.6-0.3c0.9,0.2,1.7,0.6,2.3,1.2
				c0.4,0.4,0.8,0.9,1,1.5c0.2,0.5,0.3,1.1,0.3,1.7c0,0.6-0.1,1.2-0.3,1.7S95.4,34.7,94.9,35.1z"/>
			<path class="st6" d="M115.6,21.1L99,4.4c2.4-0.7,4.7-1.3,6.8-1.8c4.7-1.2,9.4-2,14.2-2.6C119.1,7.1,117.7,14.2,115.6,21.1
				L115.6,21.1z"/>
			<path class="st7" d="M48.2,102.4c-0.9,0.9-2.2,1.4-3.5,1.4s-2.6-0.5-3.5-1.4l-25-25c-0.9-0.9-1.5-2.2-1.5-3.5s0.5-2.6,1.5-3.5
				l0,0c0.9-0.9,2.2-1.5,3.5-1.5s2.6,0.5,3.5,1.5l25,25c0.9,0.9,1.5,2.2,1.5,3.5C49.7,100.2,49.2,101.4,48.2,102.4L48.2,102.4z"/>
			<path class="st6" d="M10,83.2c-0.6,0.1-1.3-0.1-1.9-0.3c-0.3-0.2-0.7-0.4-0.9-0.7C4.1,79.1,5.1,69.7,7,65.9l10-20.3
				c0.5-1,1.2-1.9,2-2.6c0.8-0.7,1.8-1.3,2.9-1.7s2.2-0.5,3.3-0.4c1.1,0.1,2.2,0.4,3.2,0.9c0.8,0.4,1.6,0.9,2.3,1.6
				c1.2,1.3,2.1,2.9,2.3,4.6c0.3,1.7,0,3.5-0.7,5.1l-10,20.3C20.5,77,14.4,83,10,83.2z"/>
			<path class="st6" d="M34.7,107.8c-0.1,0.7,0.1,1.3,0.3,1.9c0.2,0.3,0.4,0.7,0.7,0.9c3.1,3.1,12.5,2.1,16.3,0.2l20.3-9.9
				c2-1,3.5-2.8,4.3-4.9c0.7-2.1,0.6-4.5-0.4-6.5c-0.4-0.8-1-1.6-1.6-2.3c-0.5-0.5-1.1-0.9-1.7-1.3c-1.2-0.7-2.6-1.1-4-1.2
				s-2.8,0.2-4.1,0.9l-20.3,9.9C40.9,97.4,34.9,103.6,34.7,107.8z"/>
			<path class="st6" d="M31.6,98.4h-0.1c-2.7,2.7-10.4,6.4-13.1,3.8c0,0-0.2-0.2-0.3-0.3c-2.3-2.9,1.1-10.4,3.6-13.1l12.6-13.2v-0.1
				c1.3-1.3,3-2,4.8-2s3.5,0.7,4.8,2l0.2,0.2c1.2,1.3,1.9,3,1.9,4.7s-0.7,3.5-1.9,4.7L31.6,98.4z"/>
		</g>
	</g>
</g>
</svg>
