<svg width="41" height="30" viewBox="0 0 41 30" fill="none" xmlns="http://www.w3.org/2000/svg">
<path fill-rule="evenodd" clip-rule="evenodd" d="M20.7755 0.158359C20.3532 -0.0527864 19.8561 -0.0527864 19.4338 0.158359L0.82918 9.46068C0.321004 9.71477 0 10.2342 0 10.8023C0 11.3705 0.321004 11.8899 0.82918 12.144L6.04651 14.7526V22.4302V23.1593L6.61978 23.6097L7.54651 22.4302C6.61978 23.6097 6.62006 23.6099 6.62037 23.6102L6.62112 23.6108L6.62306 23.6123L6.62873 23.6167L6.64717 23.631C6.66259 23.643 6.68423 23.6596 6.71189 23.6807C6.76718 23.7229 6.84657 23.7827 6.94832 23.8577C7.15174 24.0075 7.44508 24.2184 7.81462 24.4698C8.55235 24.9718 9.60072 25.6403 10.8489 26.3101C13.3035 27.6272 16.7082 29.0465 20.1047 29.0465C23.4676 29.0465 26.8526 27.7672 29.3088 26.5691C30.5551 25.9611 31.6024 25.354 32.34 24.8978C32.7093 24.6693 33.0026 24.4777 33.206 24.3414C33.3077 24.2733 33.3871 24.2189 33.4424 24.1806C33.4701 24.1614 33.4918 24.1462 33.5072 24.1354L33.5257 24.1223L33.5314 24.1183L33.5333 24.1169L33.534 24.1164C33.5344 24.1162 33.5346 24.1159 32.6628 22.8953L33.5346 24.1159L34.1628 23.6673V22.8953V14.7526L39.3801 12.144C39.8883 11.8899 40.2093 11.3705 40.2093 10.8023C40.2093 10.2342 39.8883 9.71477 39.3801 9.46068L20.7755 0.158359ZM11.4731 14.1118L4.8541 10.8023L20.1047 3.17705L35.3552 10.8023L28.7362 14.1118L20.1047 18.4276L11.4731 14.1118ZM9.50224 21.9895C9.33069 21.8728 9.17817 21.7663 9.04651 21.6728V16.4452L19.4539 21.4562L20.1047 21.7695L20.7554 21.4562L31.1628 16.4452V22.0938C31.0441 22.17 30.9101 22.2547 30.7618 22.3464C30.0894 22.7623 29.1309 23.3179 27.9935 23.8728C25.6823 25.0002 22.7882 26.0465 20.1047 26.0465C17.4545 26.0465 14.5802 24.9077 12.2674 23.6666C11.1318 23.0573 10.1744 22.4468 9.50224 21.9895Z" fill="white"/>
</svg>
