<svg xmlns="http://www.w3.org/2000/svg" xmlns:xlink="http://www.w3.org/1999/xlink" version="1.1" x="0px" y="0px" viewBox="0 0 128 94" style="enable-background:new 0 0 720 540;" xml:space="preserve">
<style type="text/css">
	.st0{fill:#D71921;}
	.st1{fill:#FFFFFF;}
	.st2{display:none;}
</style>
<g id="Layer_1">
	<g>
		<path class="st0" d="M720,0c0,0-246.8,105.2-720,143.4V540h720V0z"/>
		<g>
			<polygon class="st1" points="391.2,387 391.2,338.1 345.8,338.1 345.8,387 329.1,387 329.1,275.1 345.8,275.1 345.8,322.9      391.2,322.9 391.2,275.1 408,275.1 408,387    "/>
			<path class="st1" d="M548.8,392l-11.1-11.2c-3.2,2.3-6.8,4.1-10.8,5.3c-4,1.2-8.1,1.8-12.5,1.8c-5.9,0-11.3-1-16.2-3.1     c-4.8-2-9.2-5-13-8.9c-2.7-2.7-4.8-5.6-6.3-8.6c-1.5-3.1-2.5-6.3-3.2-9.9c-0.7-3.6-1.1-7.5-1.2-11.9c-0.1-4.3-0.2-9.2-0.2-14.5     c0-5.3,0-10.2,0.2-14.5c0.1-4.3,0.5-8.3,1.2-11.9c0.7-3.6,1.7-6.9,3.2-9.9c1.5-3,3.5-5.9,6.3-8.6c3.8-3.9,8.2-6.8,13-8.9     c4.8-2,10.2-3.1,16.2-3.1c5.9,0,11.3,1,16.2,3.1c4.9,2.1,9.3,5,13.1,8.9c2.7,2.7,4.8,5.6,6.2,8.6c1.5,3.1,2.5,6.4,3.1,9.9     c0.6,3.6,1,7.5,1.1,11.9c0.1,4.3,0.2,9.2,0.2,14.5c0,4.7,0,9-0.1,13c0,3.9-0.3,7.5-0.8,10.7c-0.5,3.3-1.2,6.3-2.1,9     c-0.9,2.8-2.3,5.4-4.2,7.9l10.9,10.8L548.8,392z M537.7,331c0-5.7-0.1-10.3-0.2-14.1c-0.2-3.7-0.5-6.9-1-9.4     c-0.5-2.5-1.1-4.7-2-6.4c-0.9-1.7-2-3.3-3.4-4.8c-2-2.1-4.4-3.8-7.3-5c-2.9-1.3-6-1.9-9.3-1.9c-3.4,0-6.5,0.6-9.3,1.9     c-2.9,1.3-5.3,2.9-7.3,5c-1.4,1.5-2.5,3.1-3.4,4.8c-0.9,1.7-1.6,3.9-2,6.4c-0.5,2.6-0.8,5.7-0.9,9.4c-0.2,3.7-0.2,8.4-0.2,14.1     c0,5.6,0.1,10.3,0.2,14.1c0.2,3.7,0.5,6.9,0.9,9.4c0.5,2.6,1.1,4.7,2,6.4c0.9,1.7,2,3.3,3.4,4.8c2,2.1,4.4,3.8,7.3,5     c2.9,1.3,6,1.9,9.3,1.9c4.3,0,8.1-1.2,11.5-3.6l-11.8-11.8l9.4-9.4l10.8,10.8c1.5-2.8,2.4-6.3,2.8-10.5     C537.5,344,537.7,338.2,537.7,331z"/>
			<path class="st1" d="M640.2,347.1c0,6.8-0.6,12.7-1.9,17.8c-1.3,5.1-3.8,9.6-7.5,13.6c-2.6,2.7-5.9,5-9.8,6.8     c-3.9,1.8-8.6,2.7-14,2.7c-5.4,0-10.1-0.9-13.9-2.7c-3.9-1.8-7.1-4-9.7-6.8c-3.8-4-6.3-8.5-7.5-13.6c-1.3-5.1-1.9-11-1.9-17.8     c0-6.7,0.6-12.6,1.9-17.7c1.2-5.1,3.8-9.6,7.5-13.6c2.6-2.7,5.8-5,9.7-6.7c3.8-1.8,8.5-2.7,13.9-2.7c5.4,0,10.1,0.9,14,2.7     c3.9,1.8,7.2,4,9.8,6.7c3.8,4,6.3,8.5,7.5,13.6C639.6,334.5,640.2,340.4,640.2,347.1z M624.2,347.1c0-4.4-0.3-8.5-0.9-12.4     c-0.6-3.9-2.1-7-4.5-9.4c-3-3.1-6.9-4.6-11.7-4.6c-4.7,0-8.6,1.5-11.6,4.6c-2.4,2.4-3.9,5.5-4.5,9.4c-0.6,3.9-0.9,8-0.9,12.4     c0,4.4,0.3,8.5,0.9,12.4c0.6,3.9,2.1,7,4.5,9.4c3.1,3.1,7,4.7,11.6,4.7c4.7,0,8.6-1.6,11.7-4.7c2.4-2.4,3.9-5.6,4.5-9.4     C623.9,355.6,624.2,351.5,624.2,347.1z"/>
			<path class="st1" d="M355.1,457.7c0,2.1-0.4,3.9-1.2,5.4c-0.8,1.6-2,2.9-3.4,3.9c-1.5,1.1-3.2,1.9-5.2,2.4     c-2,0.5-4.2,0.8-6.5,0.8c-3.2,0-6.2-0.4-8.9-1.1c-2.7-0.8-5.3-2.3-7.6-4.5l5.2-5.2c1.6,1.7,3.4,2.8,5.4,3.3c2,0.6,4,0.8,5.9,0.8     c2.4,0,4.5-0.4,6.1-1.3c1.7-0.9,2.5-2.2,2.5-4.1c0-1.3-0.4-2.4-1.2-3.2c-0.8-0.8-2.2-1.3-4.1-1.4l-6.3-0.5     c-3.7-0.3-6.6-1.3-8.6-3.1c-2-1.7-3-4.3-3-7.8c0-1.9,0.4-3.6,1.2-5.1c0.8-1.5,1.8-2.8,3.2-3.8c1.3-1,2.9-1.8,4.7-2.3     c1.8-0.6,3.7-0.8,5.8-0.8c2.9,0,5.6,0.3,8.1,1c2.5,0.7,4.6,1.8,6.4,3.4l-4.9,5.1c-1.2-1-2.7-1.8-4.4-2.2     c-1.7-0.4-3.4-0.7-5.3-0.7c-2.4,0-4.1,0.5-5.3,1.4c-1.2,0.9-1.8,2.1-1.8,3.6c0,1.2,0.4,2.2,1.1,3c0.8,0.8,2.2,1.3,4.3,1.5     l6.2,0.5c3.7,0.3,6.6,1.4,8.6,3.1C354.1,451.5,355.1,454.1,355.1,457.7z"/>
			<path class="st1" d="M395.6,450c0,3.4-0.3,6.3-0.9,8.8c-0.6,2.5-1.9,4.7-3.7,6.7c-1.3,1.3-2.9,2.5-4.8,3.3     c-1.9,0.9-4.2,1.3-6.9,1.3c-2.7,0-5-0.4-6.9-1.3c-1.9-0.9-3.5-2-4.8-3.3c-1.9-2-3.1-4.2-3.7-6.7c-0.6-2.5-0.9-5.5-0.9-8.8     c0-3.3,0.3-6.2,0.9-8.7c0.6-2.5,1.9-4.8,3.7-6.7c1.3-1.3,2.9-2.5,4.8-3.3c1.9-0.9,4.2-1.3,6.9-1.3c2.7,0,5,0.4,6.9,1.3     c1.9,0.9,3.5,2,4.8,3.3c1.9,2,3.1,4.2,3.7,6.7C395.2,443.7,395.6,446.6,395.6,450z M387.7,450c0-2.2-0.1-4.2-0.5-6.1     c-0.3-1.9-1.1-3.5-2.3-4.7c-1.5-1.5-3.4-2.2-5.8-2.2c-2.3,0-4.2,0.8-5.7,2.2c-1.2,1.2-1.9,2.8-2.3,4.7c-0.3,1.9-0.5,4-0.5,6.1     c0,2.2,0.2,4.2,0.5,6.1c0.3,1.9,1.1,3.5,2.3,4.7c1.5,1.6,3.5,2.3,5.7,2.3c2.3,0,4.3-0.8,5.8-2.3c1.2-1.2,1.9-2.7,2.3-4.7     C387.5,454.2,387.7,452.1,387.7,450z"/>
			<path class="st1" d="M416.7,469.7c-1.9,0-3.5-0.3-4.8-0.9c-1.4-0.6-2.5-1.4-3.4-2.4c-0.9-1-1.5-2.1-1.9-3.4     c-0.4-1.3-0.6-2.7-0.6-4.2v-44.4h7.9v43.9c0,1.5,0.3,2.6,0.9,3.4c0.6,0.8,1.7,1.2,3.3,1.2h3.5v6.8H416.7z"/>
			<path class="st1" d="M453.9,469.7v-4c-1.3,1.5-2.9,2.6-4.8,3.3c-1.8,0.7-3.7,1.1-5.7,1.1c-2,0-3.8-0.3-5.5-0.9     c-1.6-0.6-3-1.5-4.2-2.6c-1.5-1.5-2.5-3.2-3.1-5c-0.6-1.8-0.9-3.9-0.9-6.1v-25.2h7.9v24c0,3.1,0.7,5.3,2.3,6.7     c1.5,1.4,3.4,2.1,5.6,2.1c1.1,0,2.1-0.2,3.1-0.5c1-0.3,1.9-0.8,2.6-1.6c0.7-0.7,1.3-1.7,1.7-2.8c0.4-1.1,0.7-2.4,0.7-3.9v-24h7.9     v39.4H453.9z"/>
			<path class="st1" d="M485.9,469.7c-1.9,0-3.5-0.3-4.8-0.9c-1.3-0.6-2.5-1.4-3.3-2.4c-0.9-1-1.5-2.2-2-3.5     c-0.4-1.3-0.7-2.7-0.7-4.1v-21.7h-4.5v-6h4.5v-12h7.9v12h7.6v6H483v21.3c0,1.4,0.3,2.6,1,3.4c0.7,0.8,1.8,1.2,3.3,1.2h3.3v6.8     H485.9z"/>
			<path class="st1" d="M500.4,422.6v-8.4h8.3v8.4H500.4z M500.7,469.7v-39.4h7.9v39.4H500.7z"/>
			<path class="st1" d="M551.9,450c0,3.4-0.3,6.3-0.9,8.8c-0.6,2.5-1.9,4.7-3.7,6.7c-1.3,1.3-2.9,2.5-4.8,3.3     c-1.9,0.9-4.2,1.3-6.9,1.3c-2.7,0-5-0.4-6.9-1.3c-1.9-0.9-3.5-2-4.8-3.3c-1.9-2-3.1-4.2-3.7-6.7c-0.6-2.5-0.9-5.5-0.9-8.8     c0-3.3,0.3-6.2,0.9-8.7c0.6-2.5,1.9-4.8,3.7-6.7c1.3-1.3,2.9-2.5,4.8-3.3c1.9-0.9,4.2-1.3,6.9-1.3c2.7,0,5,0.4,6.9,1.3     c1.9,0.9,3.5,2,4.8,3.3c1.9,2,3.1,4.2,3.7,6.7C551.6,443.7,551.9,446.6,551.9,450z M544,450c0-2.2-0.1-4.2-0.5-6.1     c-0.3-1.9-1.1-3.5-2.3-4.7c-1.5-1.5-3.4-2.2-5.8-2.2c-2.3,0-4.2,0.8-5.7,2.2c-1.2,1.2-1.9,2.8-2.3,4.7c-0.3,1.9-0.5,4-0.5,6.1     c0,2.2,0.2,4.2,0.5,6.1c0.3,1.9,1.1,3.5,2.3,4.7c1.5,1.6,3.5,2.3,5.7,2.3c2.3,0,4.3-0.8,5.8-2.3c1.2-1.2,1.9-2.7,2.3-4.7     C543.9,454.2,544,452.1,544,450z"/>
			<path class="st1" d="M586.5,469.7v-24c0-3.1-0.8-5.3-2.3-6.7c-1.5-1.4-3.4-2.1-5.6-2.1c-2.2,0-4.1,0.7-5.7,2.1     c-1.6,1.4-2.4,3.6-2.4,6.6v24h-7.9v-39.4h7.7v4c1.3-1.5,2.9-2.6,4.7-3.3c1.8-0.7,3.7-1.1,5.7-1.1c2,0,3.8,0.3,5.5,0.9     c1.6,0.6,3,1.5,4.2,2.6c1.5,1.5,2.5,3.2,3.1,5c0.6,1.8,0.9,3.9,0.9,6.1v25.1H586.5z"/>
			<path class="st1" d="M635.5,457.7c0,2.1-0.4,3.9-1.2,5.4c-0.8,1.6-2,2.9-3.4,3.9c-1.5,1.1-3.2,1.9-5.2,2.4     c-2,0.5-4.2,0.8-6.5,0.8c-3.2,0-6.2-0.4-8.9-1.1c-2.7-0.8-5.2-2.3-7.6-4.5l5.2-5.2c1.6,1.7,3.4,2.8,5.4,3.3c2,0.6,4,0.8,5.9,0.8     c2.4,0,4.5-0.4,6.1-1.3c1.7-0.9,2.5-2.2,2.5-4.1c0-1.3-0.4-2.4-1.2-3.2c-0.8-0.8-2.2-1.3-4.1-1.4l-6.3-0.5     c-3.7-0.3-6.6-1.3-8.6-3.1c-2-1.7-3-4.3-3-7.8c0-1.9,0.4-3.6,1.2-5.1c0.8-1.5,1.8-2.8,3.2-3.8c1.3-1,2.9-1.8,4.7-2.3     c1.8-0.6,3.7-0.8,5.7-0.8c2.9,0,5.6,0.3,8.1,1c2.5,0.7,4.6,1.8,6.4,3.4l-4.9,5.1c-1.2-1-2.7-1.8-4.4-2.2     c-1.7-0.4-3.4-0.7-5.3-0.7c-2.4,0-4.1,0.5-5.3,1.4c-1.2,0.9-1.8,2.1-1.8,3.6c0,1.2,0.4,2.2,1.1,3c0.8,0.8,2.2,1.3,4.3,1.5     l6.2,0.5c3.7,0.3,6.6,1.4,8.6,3.1C634.5,451.5,635.5,454.1,635.5,457.7z"/>
			<g>
				<rect x="435.2" y="307.2" class="st1" width="17" height="79.8"/>
				<rect x="434.9" y="275.1" class="st1" width="17" height="16.6"/>
			</g>
		</g>
	</g>
</g>
<g id="Guides" class="st2">
</g>
</svg>