<svg width="20" height="21" viewBox="0 0 20 21" fill="none" xmlns="http://www.w3.org/2000/svg">
<path fill-rule="evenodd" clip-rule="evenodd" d="M10.0009 0C7.28508 0 6.94424 0.0119417 5.87756 0.0607562C4.81297 0.10978 4.08629 0.279269 3.45045 0.52795C2.79274 0.784802 2.23482 1.12839 1.67898 1.68756C1.12272 2.24651 0.78105 2.80756 0.524797 3.46876C0.276878 4.10838 0.108126 4.83934 0.060209 5.90948C0.0125001 6.98214 0 7.3251 0 10.0562C0 12.7873 0.0120835 13.129 0.0604173 14.2017C0.109376 15.2722 0.27792 16.003 0.525005 16.6424C0.780633 17.3038 1.1223 17.8648 1.67835 18.4238C2.23398 18.9832 2.7919 19.3276 3.4492 19.5844C4.08546 19.8331 4.81234 20.0026 5.87673 20.0516C6.94341 20.1005 7.28403 20.1124 9.99969 20.1124C12.7158 20.1124 13.0556 20.1005 14.1222 20.0516C15.1868 20.0026 15.9143 19.8331 16.5506 19.5844C17.2081 19.3276 17.7652 18.9832 18.3208 18.4238C18.8771 17.8648 19.2187 17.3038 19.475 16.6426C19.7208 16.003 19.8896 15.272 19.9396 14.2019C19.9875 13.1292 20 12.7873 20 10.0562C20 7.3251 19.9875 6.98235 19.9396 5.90969C19.8896 4.83913 19.7208 4.10838 19.475 3.46897C19.2187 2.80756 18.8771 2.24651 18.3208 1.68756C17.7646 1.12818 17.2083 0.784593 16.55 0.52795C15.9125 0.279269 15.1854 0.10978 14.1208 0.0607562C13.0541 0.0119417 12.7145 0 9.99781 0H10.0009ZM9.66743 1.81199H9.66765L10.001 1.81208C12.671 1.81208 12.9874 1.82172 14.0418 1.86991C15.0168 1.91474 15.546 2.07857 15.8985 2.21622C16.3652 2.39849 16.6979 2.61637 17.0477 2.96834C17.3977 3.3203 17.6144 3.65551 17.796 4.1248C17.9329 4.47886 18.096 5.011 18.1404 5.99148C18.1883 7.05157 18.1987 7.37002 18.1987 10.0538C18.1987 12.7375 18.1883 13.056 18.1404 14.116C18.0958 15.0965 17.9329 15.6287 17.796 15.9827C17.6148 16.452 17.3977 16.7862 17.0477 17.1379C16.6977 17.4899 16.3654 17.7078 15.8985 17.8901C15.5464 18.0283 15.0168 18.1917 14.0418 18.2366C12.9876 18.2848 12.671 18.2952 10.001 18.2952C7.33071 18.2952 7.01425 18.2848 5.96008 18.2366C4.98506 18.1913 4.45589 18.0275 4.10318 17.8898C3.63651 17.7076 3.30317 17.4897 2.95317 17.1377C2.60316 16.7858 2.3865 16.4514 2.20483 15.9819C2.06795 15.6278 1.90482 15.0957 1.86045 14.1152C1.81253 13.0551 1.80295 12.7367 1.80295 10.0513C1.80295 7.36583 1.81253 7.04906 1.86045 5.98897C1.90503 5.00849 2.06795 4.47635 2.20483 4.12187C2.38608 3.65258 2.60316 3.31737 2.95317 2.9654C3.30317 2.61344 3.63651 2.39555 4.10318 2.21287C4.45568 2.07459 4.98506 1.91118 5.96008 1.86614C6.88259 1.82424 7.24009 1.81167 9.10386 1.80957V1.81208C9.27797 1.81181 9.46528 1.81189 9.6674 1.81199H9.66741H9.66743ZM14.1389 4.68843C14.1389 4.022 14.6764 3.48211 15.3389 3.48211V3.48169C16.0014 3.48169 16.5389 4.02221 16.5389 4.68843C16.5389 5.35466 16.0014 5.89518 15.3389 5.89518C14.6764 5.89518 14.1389 5.35466 14.1389 4.68843ZM10.0007 4.89185C7.16476 4.89196 4.86548 7.20421 4.86548 10.0561C4.86548 12.9081 7.16488 15.2194 10.0009 15.2194C12.837 15.2194 15.1356 12.9081 15.1356 10.0561C15.1356 7.20414 12.8368 4.89185 10.0007 4.89185ZM13.3343 10.0562C13.3343 8.20478 11.8418 6.7041 10.0009 6.7041C8.15988 6.7041 6.66757 8.20478 6.66757 10.0562C6.66757 11.9073 8.15988 13.4082 10.0009 13.4082C11.8418 13.4082 13.3343 11.9073 13.3343 10.0562Z" fill="white"/>
</svg>
