<svg width="414" height="676" fill="none" xmlns="http://www.w3.org/2000/svg"><path d="M455.654 326.126a29.97 29.97 0 01-9.514 31.916 29.974 29.974 0 119.514-31.916z" fill="#FFDE6E"/><path d="M406.491 353.256c9.08-6.542 18.281-13.695 29.261-15.9 7.014-1.408 14.954-.926 21.208-3.78a29.5 29.5 0 00-1.306-7.413 28.096 28.096 0 00-.982-2.696l-7.737 2.984c-1.909.741-3.919 1.491-5.958 1.26-2.038-.232-4.086-1.779-4.132-3.827a6.018 6.018 0 01.926-2.845 32.075 32.075 0 017.876-9.506 29.86 29.86 0 00-7.06-4.17 22.268 22.268 0 00-3.808 3.429c-5.374 6.115-7.283 14.973-13.575 20.143-4.799 3.947-11.322 5.041-16.622 8.265a23.49 23.49 0 00-6.004 5.272 29.718 29.718 0 005.846 10.248c.705-.491 1.427-.973 2.067-1.464z" fill="#F8AD40"/><path d="M406.268 335.049c1.631-.76 3.326-1.381 4.976-2.113a35.795 35.795 0 0013.351-10.414 4.275 4.275 0 00.927-1.761c.324-1.565-1.131-3.057-2.696-3.363a8.34 8.34 0 00-4.633.871 90.835 90.835 0 00-20.866 12.258 29.975 29.975 0 00.259 10.313c3.086-1.788 6.264-4.642 8.682-5.791z" fill="#F4911E"/><path d="M446.879 339.524c-7.496 1.001-15.334 1.325-22.034 4.856-4.012 2.121-7.412 5.281-10.674 8.394l-5.17 4.892c-.166.149-.444.38-.797.658a30.378 30.378 0 007.126 4.253c3.317-2.075 5.476-5.828 8.496-8.441 2.641-2.288 5.912-3.706 9.164-4.92a176.266 176.266 0 0114.149-4.772 81.905 81.905 0 009.145-3.011c.271-1.222.463-2.46.574-3.706a113.82 113.82 0 01-9.979 1.797z" fill="#F8AD40"/><path d="M399.467 323.143c1.853-.093 4.049-1.807 5.337-2.502a80.043 80.043 0 0015.474-10.933 8.814 8.814 0 003.094-4.494 29.953 29.953 0 00-23.905 17.929z" fill="#F4911E"/><path d="M449.946 315.675a29.978 29.978 0 01-15.802 33.584 29.972 29.972 0 01-36.345-7.53 29.987 29.987 0 0029.561 23.247 29.99 29.99 0 0023.425-11.704 29.982 29.982 0 00-.839-37.597z" fill="#FDD483"/><path fill-rule="evenodd" clip-rule="evenodd" d="M-15.5 500S46 480.743 141 482c95 1.257 80 5.5 175.5 13s122-23 123.5-101.5-118-54-123.5-78.5 9.2-38.2 60-77 63.5-61.5 40-109c-32.406-65.5-189.5-83-365-28.5-68.961 21.415 60.5-29-4.5-119l-48 12L-28 33C42 4 37.66 69.5 26 82c-62.5 67 23 40.259 126 52s135.514 110.5 37 138c-60.68 16.939-48 95.5-182 95.5-15.046 0-28.477-47.5-30-29-3.5 42.5 43.5 62.435 90.5 42 57.5-25 99.308-2.23 126.5 0 34.5 2.829 20.5-32.5 43.5-17.5 11.5 7.5 19.696 15.113 32.5 20.5 16.5 6.942 39.449-6.566 36.5-25-2-12.5-14.905-26.5-11-47 6-31.5 39.5-54 39.5-54s-69.5 57.5-10.5 101-24.982 64.004-50.5 54.5c-12.476-4.647-26.5 9-21.5 18.5 10.341 19.648-9.59 9.442-44.5 6-12.645-1.247-28.5 14.5-47 26-22.5 10-28.5 7.661-63 10C61.35 475.985 6.5 490-15.5 500zM368 159.5c-5-10.5-16-20.5-51.5-30.5-95.5-12.222-17 58-30 122s108.198-35.433 81.5-91.5z" fill="#072D3F"/><path d="M392.79 134.716l1.305 2.77 2.905.448-2.105 2.153.499 3.049-2.604-1.443-2.599 1.443.494-3.049-2.105-2.153 2.911-.448 1.299-2.77zM29.21 378.889l1.304 2.77 2.906.448-2.105 2.153.499 3.049-2.604-1.437-2.599 1.437.494-3.049L25 382.107l2.91-.448 1.3-2.77zM385.901 345.21l1.305 2.772 2.905.443-2.105 2.159.499 3.046-2.604-1.438-2.598 1.438.493-3.046-2.105-2.159 2.911-.443 1.299-2.772zM202.599 248.457l1.364 2.772 3.037.443-2.201 2.159.522 3.046-2.722-1.438-2.717 1.438.516-3.046-2.2-2.159 3.042-.443 1.359-2.772z" fill="#E6E5BF"/><path d="M361.395 191.358l.875 2.975 2.965.972-2.576 1.751-.011 3.105-2.473-1.896-2.971.945 1.053-2.922-1.825-2.519 3.116.092 1.847-2.503z" fill="#F2B21B"/><path d="M304.765 174.513a1.147 1.147 0 01-2.273.231 1.144 1.144 0 01.487-1.18 1.151 1.151 0 011.448.141c.216.214.337.505.338.808zM121.444 308.086a1.148 1.148 0 10.002-2.296 1.148 1.148 0 00-.002 2.296zM99.63 380.037a1.148 1.148 0 100-2.296 1.148 1.148 0 000 2.296zM276.444 137.39a1.143 1.143 0 01-.705 1.064 1.153 1.153 0 01-1.253-.245 1.145 1.145 0 01-.251-1.252 1.148 1.148 0 012.209.433zM235.321 233.143a1.04 1.04 0 01-.223.64 1.324 1.324 0 01-.601.425 1.543 1.543 0 01-.775.066 1.42 1.42 0 01-.688-.314 1.117 1.117 0 01-.367-.589 1.002 1.002 0 01.078-.665 1.21 1.21 0 01.496-.515c.221-.125.481-.192.746-.191.354 0 .693.12.943.335.25.214.391.505.391.808zM193.586 231.926c.74 0 1.34-.514 1.34-1.148 0-.634-.6-1.148-1.34-1.148-.739 0-1.339.514-1.339 1.148 0 .634.6 1.148 1.339 1.148zM155.889 249.728a1.501 1.501 0 01-.196.743c-.127.219-.307.39-.516.49a.99.99 0 01-.663.074 1.103 1.103 0 01-.587-.368 1.42 1.42 0 01-.313-.686 1.548 1.548 0 01.066-.773 1.33 1.33 0 01.423-.6 1.013 1.013 0 011.078-.123c.14.068.267.167.373.292.107.125.192.274.249.437.057.163.087.338.086.514zM392.79 63.148a1.149 1.149 0 11-2.298.001 1.149 1.149 0 012.298 0zM56 384.625a1.145 1.145 0 01-.706 1.064 1.146 1.146 0 01-1.569-.837 1.147 1.147 0 011.132-1.371A1.145 1.145 0 0156 384.625zM163.352 293.926c.74 0 1.339-.514 1.339-1.148 0-.634-.599-1.148-1.339-1.148s-1.34.514-1.34 1.148c0 .634.6 1.148 1.34 1.148zM177.148 251.901c.634 0 1.148-.599 1.148-1.339s-.514-1.34-1.148-1.34c-.634 0-1.148.6-1.148 1.34 0 .74.514 1.339 1.148 1.339zM393.938 262.931a1.15 1.15 0 01-1.375 1.12 1.146 1.146 0 01-.41-2.08 1.144 1.144 0 011.451.145 1.147 1.147 0 01.334.815zM32.654 305.981c0 .265-.067.524-.193.745-.126.22-.306.392-.515.493a.997.997 0 01-.664.076 1.106 1.106 0 01-.588-.366 1.423 1.423 0 01-.314-.686 1.548 1.548 0 01.065-.774c.087-.245.235-.454.423-.601.19-.147.411-.226.638-.226.305 0 .597.141.812.392.215.252.336.592.336.947zM349.067 350.222a1.148 1.148 0 11-.578 2.224 1.148 1.148 0 01.578-2.224zM376.857 323.054a1.346 1.346 0 01.994 1.108 1.345 1.345 0 01-1.399 1.527 1.334 1.334 0 01-1.191-.892 1.337 1.337 0 01.581-1.597 1.334 1.334 0 011.015-.146zM253.617 184.886c.257.056.489.176.667.344.178.169.293.38.332.605.038.225-.003.455-.117.66a1.244 1.244 0 01-.526.493 1.514 1.514 0 01-.757.158 1.473 1.473 0 01-.731-.229 1.176 1.176 0 01-.46-.539.994.994 0 01-.031-.667c.089-.293.309-.544.613-.699a1.544 1.544 0 011.01-.126zM144.548 353.283c.257.056.488.176.665.345.177.169.291.38.329.604a.998.998 0 01-.118.659 1.234 1.234 0 01-.525.492 1.52 1.52 0 01-1.486-.069 1.177 1.177 0 01-.46-.537.997.997 0 01-.035-.666c.044-.146.12-.284.226-.404a1.29 1.29 0 01.389-.3 1.525 1.525 0 011.015-.124zM390.783 169.586c.22.067.417.208.568.406.151.197.248.443.28.705.031.262-.004.529-.103.767a1.277 1.277 0 01-.45.572 1.018 1.018 0 01-.647.184 1.054 1.054 0 01-.626-.265 1.358 1.358 0 01-.394-.626 1.558 1.558 0 01-.03-.776c.037-.172.103-.332.194-.474.091-.141.205-.26.335-.35a1.004 1.004 0 01.873-.143zM375.47 249.949a1.156 1.156 0 01.852.95 1.151 1.151 0 01-.551 1.15 1.151 1.151 0 01-1.274-.068 1.153 1.153 0 01-.424-1.203 1.148 1.148 0 011.397-.829zM382.741 115.998a1.142 1.142 0 01.852.95 1.143 1.143 0 01-.551 1.151 1.146 1.146 0 01-1.668-.607 1.146 1.146 0 011.367-1.494zM383.124 381.992c.22.066.418.206.57.404.152.197.25.442.282.704.032.262-.003.53-.101.769a1.285 1.285 0 01-.45.573c-.195.136-.421.2-.647.186a1.058 1.058 0 01-.627-.266 1.34 1.34 0 01-.394-.627 1.546 1.546 0 01-.03-.776c.037-.171.103-.331.194-.472a1.22 1.22 0 01.333-.349c.13-.09.273-.149.423-.174a.995.995 0 01.447.028zM338.973 400.741c.256.057.487.178.663.347.176.17.29.38.326.604.037.225-.005.454-.119.658a1.232 1.232 0 01-.526.49c-.228.116-.49.171-.755.158a1.48 1.48 0 01-.73-.227 1.18 1.18 0 01-.459-.537.988.988 0 01-.035-.665c.043-.147.12-.285.226-.406.106-.121.239-.223.391-.3a1.556 1.556 0 011.018-.122z" fill="#EFC950"/><path d="M396.477 323.392a1.529 1.529 0 00-1.14-.374c.081.048.158.103.228.167a1.552 1.552 0 01.131 2.174c-.255.29-.61.471-.992.506a1.522 1.522 0 002.001-.421 1.551 1.551 0 00-.205-2.052h-.023z" fill="#230753" opacity=".1"/><path d="M330.79 407.716l1.305 2.77 2.905.448-2.105 2.153.499 3.049-2.604-1.443-2.599 1.443.494-3.049-2.105-2.153 2.911-.448 1.299-2.77zM323.901 618.21l1.305 2.772 2.905.443-2.105 2.159.499 3.046-2.604-1.438-2.598 1.438.493-3.046-2.105-2.159 2.911-.443 1.299-2.772zM124.697 440.63l1.364 2.772 3.038.442-2.201 2.16.522 3.045-2.723-1.438-2.716 1.438.516-3.045-2.201-2.16 3.043-.442 1.358-2.772z" fill="#E6E5BF"/><path d="M299.395 464.358l.875 2.975 2.965.972-2.576 1.751-.011 3.105-2.473-1.896-2.971.945 1.053-2.922-1.825-2.519 3.116.092 1.847-2.503z" fill="#F2B21B"/><path d="M242.765 447.513a1.147 1.147 0 01-2.273.231 1.144 1.144 0 01.487-1.18 1.151 1.151 0 011.448.141c.216.214.337.505.338.808zM59.444 581.086a1.148 1.148 0 100-2.296 1.148 1.148 0 000 2.296zM37.63 653.037a1.148 1.148 0 100-2.296 1.148 1.148 0 000 2.296zM214.444 410.39a1.143 1.143 0 01-.705 1.064 1.153 1.153 0 01-1.253-.245 1.145 1.145 0 01-.251-1.252 1.148 1.148 0 012.209.433zM157.42 425.316c.001.227-.077.45-.224.64a1.316 1.316 0 01-.6.425c-.245.087-.515.11-.776.066a1.42 1.42 0 01-.687-.314 1.11 1.11 0 01-.367-.589 1.002 1.002 0 01.078-.665 1.21 1.21 0 01.496-.515 1.5 1.5 0 01.746-.191c.354 0 .693.12.943.335.25.214.391.505.391.808zM131.586 504.926c.74 0 1.34-.514 1.34-1.148 0-.634-.6-1.148-1.34-1.148-.739 0-1.339.514-1.339 1.148 0 .634.6 1.148 1.339 1.148zM93.889 522.728c-.001.265-.07.523-.196.743-.127.219-.306.39-.516.49a.99.99 0 01-.663.074 1.105 1.105 0 01-.587-.368 1.418 1.418 0 01-.313-.686 1.548 1.548 0 01.066-.773c.087-.244.235-.453.423-.6.19-.147.41-.225.638-.225.15 0 .3.035.44.102.14.068.267.167.373.292.107.125.192.274.249.437.057.163.087.338.086.514zM330.79 336.148a1.15 1.15 0 01-.709 1.061 1.143 1.143 0 01-1.565-.837 1.148 1.148 0 112.274-.224zM101.352 566.926c.74 0 1.339-.514 1.339-1.148 0-.634-.599-1.148-1.339-1.148s-1.34.514-1.34 1.148c0 .634.6 1.148 1.34 1.148zM99.247 444.074c.634 0 1.148-.6 1.148-1.339 0-.74-.514-1.34-1.148-1.34-.634 0-1.148.6-1.148 1.34 0 .739.514 1.339 1.148 1.339zM331.938 535.931a1.15 1.15 0 01-1.375 1.12 1.146 1.146 0 01-.41-2.08 1.144 1.144 0 011.451.145 1.147 1.147 0 01.334.815zM287.067 623.222a1.148 1.148 0 11-.578 2.224 1.148 1.148 0 01.578-2.224zM314.857 596.054a1.346 1.346 0 01.994 1.108 1.345 1.345 0 01-1.399 1.527 1.334 1.334 0 01-1.191-.892 1.337 1.337 0 01.581-1.597 1.334 1.334 0 011.015-.146zM191.617 457.886c.257.056.489.176.667.344.178.169.293.38.332.605.038.225-.003.455-.117.66a1.244 1.244 0 01-.526.493 1.514 1.514 0 01-.757.158 1.473 1.473 0 01-.731-.229 1.176 1.176 0 01-.46-.539.994.994 0 01-.031-.667c.089-.293.309-.544.613-.699a1.544 1.544 0 011.01-.126zM82.548 626.283c.257.056.488.176.665.345.177.169.291.38.329.604.038.225-.004.454-.118.659a1.237 1.237 0 01-.525.492 1.52 1.52 0 01-1.486-.069 1.177 1.177 0 01-.46-.537.993.993 0 01-.035-.666c.044-.146.12-.284.226-.404.105-.121.238-.223.389-.3a1.525 1.525 0 011.015-.124zM328.783 442.586c.22.067.417.208.568.406.151.197.248.443.28.705.031.262-.004.529-.103.767a1.277 1.277 0 01-.45.572 1.018 1.018 0 01-.647.184 1.054 1.054 0 01-.626-.265 1.358 1.358 0 01-.394-.626 1.558 1.558 0 01-.03-.776c.037-.172.103-.332.194-.474.091-.141.205-.26.335-.35a1.004 1.004 0 01.873-.143zM313.47 522.949a1.156 1.156 0 01.852.95 1.151 1.151 0 01-.551 1.15 1.151 1.151 0 01-1.274-.068 1.153 1.153 0 01-.424-1.203 1.148 1.148 0 011.397-.829zM320.741 388.998a1.142 1.142 0 01.852.95 1.143 1.143 0 01-.551 1.151 1.146 1.146 0 01-1.668-.607 1.146 1.146 0 011.367-1.494zM321.124 654.992c.22.066.418.206.57.404.152.197.25.442.282.704.032.262-.003.53-.101.769a1.285 1.285 0 01-.45.573c-.195.136-.421.2-.647.186a1.058 1.058 0 01-.627-.266 1.34 1.34 0 01-.394-.627 1.546 1.546 0 01-.03-.776c.037-.171.103-.331.194-.472a1.22 1.22 0 01.333-.349c.13-.09.273-.149.423-.174a.995.995 0 01.447.028zM276.973 673.741c.256.057.487.178.663.347.176.17.29.38.326.604.037.225-.005.454-.119.658a1.24 1.24 0 01-.526.491c-.228.115-.49.17-.755.157a1.48 1.48 0 01-.73-.227 1.18 1.18 0 01-.459-.537.988.988 0 01-.035-.665c.043-.147.12-.285.226-.406.106-.121.239-.223.391-.3a1.556 1.556 0 011.018-.122z" fill="#EFC950"/><path d="M334.477 596.392a1.529 1.529 0 00-1.14-.374c.081.047.158.103.228.167a1.552 1.552 0 01.131 2.174c-.255.29-.61.471-.992.506a1.522 1.522 0 002.001-.421 1.551 1.551 0 00-.205-2.052h-.023z" fill="#230753" opacity=".1"/></svg>