<svg width="414" height="500" viewBox="0 0 414 500" fill="none" xmlns="http://www.w3.org/2000/svg">
<path fill-rule="evenodd" clip-rule="evenodd" d="M-15.5 500C-15.5 500 46 480.743 141 482C236 483.257 221 487.5 316.5 495C412 502.5 438.5 472 440 393.5C441.5 315 322 339.5 316.5 315C311 290.5 325.7 276.8 376.5 238C427.3 199.2 440 176.5 416.5 129C384.094 63.5 227 46 51.5 100.5C-17.4611 121.915 112 71.5 47 -18.5L-1 -6.5L-28 33C42 4 37.6604 69.5 26 82C-36.5 149 49 122.259 152 134C255 145.741 287.514 244.5 189 272C128.32 288.939 141 367.5 7 367.5C-8.04551 367.5 -21.4765 320 -23 338.5C-26.5 381 20.5 400.935 67.5 380.5C125 355.5 166.808 378.27 194 380.5C228.5 383.329 214.5 348 237.5 363C249 370.5 257.196 378.113 270 383.5C286.5 390.442 309.449 376.934 306.5 358.5C304.5 346 291.595 332 295.5 311.5C301.5 280 335 257.5 335 257.5C335 257.5 265.5 315 324.5 358.5C383.5 402 299.518 422.504 274 413C261.524 408.353 247.5 422 252.5 431.5C262.841 451.148 242.91 440.942 208 437.5C195.355 436.253 179.5 452 161 463.5C138.5 473.5 132.5 471.161 97.9999 473.5C61.3493 475.985 6.5 490 -15.5 500ZM368 159.5C363 149 352 139 316.5 129C221 116.778 299.5 187 286.5 251C273.5 315 394.698 215.567 368 159.5Z" fill="#072D3F"/>
</svg>
