<svg width="1440" height="1524" viewBox="0 0 1440 1524" fill="none" xmlns="http://www.w3.org/2000/svg">
<path fill-rule="evenodd" clip-rule="evenodd" d="M788.318 552.144C626.583 467.125 461.599 380.399 370 531C317.192 617.822 234.154 651.458 163.334 680.144C86.3624 711.322 23.825 736.653 30.2228 818.07C34.078 839.404 40.8778 868.729 52.6128 900.066C60.9524 920.1 71.7443 942.271 85.2599 966.888C111.229 1008.18 148.274 1045.67 201 1065.5C308.335 1105.88 367.214 1067.91 427.312 1029.16C428.333 1028.5 429.387 1027.82 430.472 1027.12C460.412 1007.77 514.273 972.975 577 958.5C638.819 944.234 653.795 947.247 736.225 963.833C740.466 964.686 744.886 965.575 749.5 966.5C768.71 970.35 788.276 974.86 808.156 979.443C930.166 1007.57 1063.97 1038.41 1199.5 936C1465.5 735 1494 720.5 1494 720.5L1605.5 1096C1605.5 1096 1629 1524 1486.5 1524C1384.79 1524 1350.49 1473.9 1319.41 1428.52C1306.94 1410.31 1295 1392.87 1279.43 1379.72C1253.7 1357.99 1216.39 1352.55 1180.78 1347.35C1129.18 1339.83 1081.14 1332.82 1077 1277.5C1071.72 1206.97 1045.96 1203.6 1010.01 1198.89C998.3 1197.36 985.512 1195.68 972 1191.5C951.229 1185.07 952.207 1177.44 953.587 1166.67C955.297 1153.33 957.625 1135.17 920 1108.5C645.615 913.977 571.08 984.991 444.533 1105.56C429.261 1120.11 413.231 1135.38 396 1151C236 1296 36.4999 1209.5 -16.5 1093C-35.6267 1050.96 -45.9625 993.873 -51.3614 938.078C-317.918 577.58 -200.758 486.054 -60.6936 376.635C41.0348 297.164 154.845 208.254 142.5 0H321C427.884 0 475.692 83.9592 530.323 179.9C621.616 340.226 731.961 534.012 1168.89 425.353C1272.02 416.337 1335.13 201.001 1376.35 0H1448.5C1425.12 293.316 1342.5 526.5 1118 638C1032.46 680.483 911.33 616.807 788.318 552.144ZM192.957 289.275C145.638 317.381 97.7148 345.845 142.5 419C209.84 529 386.5 482 409.625 300.572C430.856 134 354.269 70.2892 303.171 75.1728C272.72 78.0739 266.944 142.116 262.771 188.38C261.313 204.547 260.051 218.542 258 227C251.294 254.626 222.241 271.882 192.957 289.275ZM1455.74 1082C1508.66 986.922 1549.24 914.035 1438 936C1297.43 963.759 1285.49 1036.74 1274.11 1106.26C1268.12 1142.82 1262.3 1178.43 1238 1206C1226.14 1219.46 1222.08 1215.63 1214.58 1208.54C1207.23 1201.58 1196.57 1191.5 1172 1191.5C1158.6 1191.5 1151.54 1179.41 1142.94 1164.7C1135.33 1151.67 1118 1127.5 1113.5 1122C1096.19 1100.84 1075 1095 1048 1118.5C1029.04 1135 1017.5 1142.13 1002 1138C994.77 1136.07 993.523 1133.01 991.055 1126.93C988.23 1119.99 983.807 1109.11 967 1091.5C935.5 1058.5 840 1027 840 1027C840 1027 932.5 1061.5 964.5 1095C984.878 1116.33 986.196 1128.95 987.048 1137.1C987.534 1141.76 987.868 1144.96 991.5 1147.5C1001.5 1154.5 1035 1145 1054.5 1128.5C1073.5 1115 1098 1127.5 1103.5 1135C1109.62 1143.35 1113.18 1154.07 1115.26 1167.61C1118.36 1187.9 1121.91 1211.06 1146.5 1223C1158.05 1228.61 1168 1229.71 1177.07 1230.72C1189.61 1232.1 1200.46 1233.31 1211.5 1246C1237.52 1275.91 1247.51 1256.5 1254.91 1242.14C1262.72 1226.96 1267.64 1217.4 1285.5 1277.5C1320.27 1394.5 1483 1501 1503 1313.5C1507.32 1272.96 1505.69 1277.43 1498.56 1296.93C1483.82 1337.23 1445.61 1441.68 1388 1346C1346.84 1277.64 1406.61 1170.26 1455.74 1082Z" fill="#072D3F"/>
</svg>
