<svg width="41" height="41" viewBox="0 0 41 41" fill="none" xmlns="http://www.w3.org/2000/svg">
<path fill-rule="evenodd" clip-rule="evenodd" d="M15.1496 5.18269C15.0725 5.13159 15.0112 5.08646 14.9627 5.04761C15.0112 5.00876 15.0725 4.96362 15.1496 4.91253C15.6066 4.60992 16.3673 4.27973 17.443 3.97964C19.5735 3.3853 22.6043 3.00012 26.0171 3.00012C29.4298 3.00012 32.4607 3.3853 34.5911 3.97964C35.6669 4.27973 36.4276 4.60992 36.8845 4.91253C36.9617 4.96362 37.023 5.00876 37.0715 5.04761C37.023 5.08646 36.9617 5.13159 36.8845 5.18269C36.4276 5.4853 35.6669 5.81549 34.5911 6.11558C32.4607 6.70992 29.4298 7.0951 26.0171 7.0951C22.6043 7.0951 19.5735 6.70992 17.443 6.11558C16.3673 5.81549 15.6066 5.4853 15.1496 5.18269ZM35.3973 9.00524C36.043 8.82509 36.6542 8.61887 37.2091 8.3835L37.2091 11.3021C37.1869 11.3455 37.1089 11.4693 36.8694 11.6653C36.4682 11.9935 35.785 12.3727 34.7779 12.7288C32.7779 13.4361 29.7825 13.9536 26.0171 13.9536C22.3102 13.9536 19.291 13.2881 17.2093 12.6284C16.169 12.2986 15.365 11.9711 14.8295 11.7306L14.825 11.7285V8.38346C15.3798 8.61884 15.9911 8.82508 16.6369 9.00524C19.0985 9.69195 22.4137 10.0951 26.0171 10.0951C29.6204 10.0951 32.9357 9.69195 35.3973 9.00524ZM40.2093 11.3543L40.2091 11.3868L40.2091 18.2131H40.2092L40.2091 18.2379L40.2091 24.9922C40.2091 26.212 39.369 27.0571 38.6368 27.5663C37.8561 28.1092 36.8219 28.5442 35.6751 28.8913C33.536 29.539 30.7092 29.9685 27.6048 30.0936C26.1296 36.267 20.5887 40.8404 13.9556 40.8404C6.26256 40.8404 0 34.5655 0 26.8059C0 19.7922 5.11346 13.9996 11.825 12.9435V12.6629V5.04761C11.825 3.78141 12.7233 2.92108 13.4933 2.41122C14.3198 1.8639 15.4166 1.4304 16.6369 1.08997C19.0985 0.403273 22.4137 0.00012207 26.0171 0.00012207C29.6204 0.00012207 32.9357 0.403273 35.3973 1.08997C36.6175 1.4304 37.7143 1.8639 38.5409 2.41122C39.3108 2.92108 40.2092 3.78141 40.2092 5.04761L40.2091 5.07107L40.2091 11.3543H40.2093ZM35.7781 15.5572C36.2873 15.3771 36.767 15.1789 37.2091 14.9622L37.2091 18.0572C37.1599 18.1106 37.0576 18.2053 36.8594 18.337C36.378 18.6568 35.5925 19.0077 34.5114 19.3326C32.4409 19.9547 29.5732 20.3966 26.4601 20.4601C25.7794 19.1326 24.8926 17.9265 23.8426 16.8836C24.5412 16.9287 25.2665 16.9536 26.0171 16.9536C30.0245 16.9536 33.3753 16.4069 35.7781 15.5572ZM37.2497 18.0064C37.2498 18.0064 37.2491 18.0077 37.2475 18.0101C37.2488 18.0077 37.2496 18.0064 37.2497 18.0064ZM35.3747 22.2057C36.0292 22.009 36.6483 21.7873 37.2091 21.5393L37.2091 24.8648C37.1684 24.911 37.0847 24.9915 36.9239 25.1033C36.5074 25.393 35.8073 25.7169 34.8058 26.0201C33.077 26.5435 30.7012 26.9312 27.9876 27.0728C27.9892 26.984 27.9901 26.8951 27.9901 26.8059C27.9901 25.6403 27.8461 24.5076 27.575 23.4244C30.5119 23.2887 33.2495 22.8442 35.3747 22.2057ZM37.2433 24.8191C37.2436 24.8191 37.2422 24.822 37.2383 24.8278C37.2412 24.822 37.2431 24.8191 37.2433 24.8191ZM3 26.8059C3 20.6999 7.92094 15.7761 14.0258 15.7715C20.0688 15.8456 24.9901 20.782 24.9901 26.8059C24.9901 32.9148 20.0645 37.8404 13.9556 37.8404C7.93173 37.8404 3 32.921 3 26.8059ZM37.2382 4.88428C37.2409 4.87849 37.2428 4.87565 37.2431 4.87567C37.2434 4.8757 37.242 4.87858 37.2382 4.88428ZM14.796 4.88433C14.7922 4.87861 14.7908 4.8757 14.7911 4.87567C14.7913 4.87565 14.7932 4.8785 14.796 4.88433ZM13.1159 19.1048C12.7229 19.1048 12.3663 19.335 12.2045 19.6932L10.2017 24.128H9.14591C8.58498 24.128 8.04386 24.3471 7.64242 24.7422C7.24044 25.1378 7.01163 25.6778 7.01163 26.2443V30.1512C7.01163 30.7177 7.24044 31.2577 7.64242 31.6533C8.04386 32.0484 8.58498 32.2675 9.14591 32.2675H10.8473H17.24C17.7479 32.2716 18.2427 32.0959 18.6337 31.7688C19.0265 31.4403 19.2885 30.9804 19.3671 30.472L19.3673 30.471L20.1497 25.4494L20.1499 25.4479C20.197 25.1422 20.176 24.8302 20.0886 24.5337C20.0011 24.2373 19.8496 23.9643 19.6454 23.7333C19.4414 23.5024 19.1897 23.3189 18.9086 23.1948C18.6295 23.0715 18.3273 23.0092 18.0226 23.0117H15.8173V21.7792C15.8173 21.0647 15.5287 20.3827 15.0204 19.8825C14.5126 19.3827 13.8272 19.1048 13.1159 19.1048ZM9.14591 26.128H9.84732V30.2675H9.14591C9.10518 30.2675 9.06927 30.2514 9.04528 30.2278C9.02182 30.2047 9.01163 30.1768 9.01163 30.1512V26.2443C9.01163 26.2186 9.02182 26.1908 9.04528 26.1677C9.06927 26.1441 9.10518 26.128 9.14591 26.128ZM17.2446 30.2675H11.8473V25.3433L13.6528 21.3454C13.76 21.4679 13.8173 21.622 13.8173 21.7792V24.0117C13.8173 24.564 14.265 25.0117 14.8173 25.0117H18.0273V25.0118L18.0384 25.0117C18.0604 25.0114 18.0816 25.0159 18.1006 25.0243C18.1194 25.0326 18.135 25.0443 18.1467 25.0576C18.1584 25.0708 18.1661 25.0853 18.1703 25.0996C18.1745 25.1138 18.1755 25.1284 18.1733 25.1426L18.1733 25.143L17.3908 30.1647L17.3906 30.1664C17.387 30.1899 17.3743 30.2148 17.3505 30.2348C17.3262 30.2551 17.2927 30.268 17.2558 30.2676L17.2558 30.2675H17.2446Z" fill="white"/>
</svg>
