<svg width="132" height="139" viewBox="0 0 132 139" fill="none" xmlns="http://www.w3.org/2000/svg">
<path d="M42.5385 124.191L42.0552 128.294C41.5612 132.488 44.4272 136.305 48.4565 136.819L53.6198 137.478C57.6492 137.992 61.316 135.009 61.8101 130.815L62.2933 126.712C62.7873 122.518 59.9214 118.701 55.8921 118.187L50.7288 117.528C46.6994 117.014 43.0325 119.997 42.5385 124.191Z" fill="#C1C1C1"/>
<path d="M125.618 93.7551L129.972 81.9169C130.735 79.8434 129.738 77.5189 127.746 76.725L117.523 72.6508C115.531 71.8569 113.297 72.8943 112.535 74.9678L108.18 86.806C107.418 88.8795 108.414 91.204 110.406 91.9979L120.63 96.0721C122.622 96.866 124.855 95.8286 125.618 93.7551Z" fill="#C1C1C1"/>
<path d="M115.941 26.2644L118.632 30.0333C119.847 31.7378 120.364 33.8735 120.07 35.9735C119.776 38.0735 118.695 39.9668 117.063 41.2396L114.432 43.2874C112.793 44.5484 110.742 45.0843 108.726 44.7784C106.709 44.4725 104.891 43.3495 103.666 41.6542L100.962 37.8852C99.7522 36.1781 99.2393 34.0422 99.5354 31.9431C99.8316 29.844 100.913 27.9518 102.543 26.6789L105.175 24.6311C106.812 23.3668 108.864 22.829 110.882 23.135C112.899 23.4411 114.718 24.5662 115.941 26.2644Z" fill="#D5D5D5"/>
<path d="M53.0102 19.5618L65.1813 19.9976C67.3131 20.0739 69.1007 18.337 69.174 16.118L69.5503 4.72999C69.6237 2.51101 67.9549 0.650282 65.8231 0.573957L53.6521 0.138197C51.5203 0.061872 49.7327 1.79885 49.6593 4.01784L49.283 15.4059C49.2097 17.6248 50.8784 19.4855 53.0102 19.5618Z" fill="#D5D5D5"/>
<path d="M25.5633 38.6139L22.7752 42.2824C21.2345 44.2978 18.991 45.5978 16.5336 45.899C14.0761 46.2002 11.6039 45.4782 9.65558 43.8904C7.72387 42.283 6.47938 39.9472 6.19238 37.3903C5.90538 34.8335 6.59905 32.262 8.12273 30.2343L10.9108 26.5659C12.4519 24.5422 14.7015 23.2376 17.1657 22.9385C19.6299 22.6393 22.1075 23.3701 24.0546 24.9704C25.9846 26.5773 27.2262 28.9131 27.5088 31.4687C27.7914 34.0243 27.0921 36.5926 25.5633 38.6139Z" fill="#D5D5D5"/>
<path d="M126.755 69.8707C126.755 82.9181 123.038 95.6725 116.074 106.521C109.11 117.37 99.2118 125.825 87.6311 130.818C76.0503 135.811 63.3072 137.117 51.0132 134.572C38.7192 132.027 27.4264 125.744 18.5629 116.518C9.69937 107.292 3.66324 95.5373 1.21781 82.7406C-1.22763 69.9439 0.0274674 56.6797 4.82436 44.6255C9.62125 32.5712 17.7445 22.2683 28.1669 15.0196C38.5893 7.77083 50.8426 3.90179 63.3775 3.90179C80.1863 3.90179 96.3066 10.8521 108.192 23.2236C120.078 35.5952 126.755 52.3747 126.755 69.8707Z" fill="#F5F5F5"/>
<g style="mix-blend-mode:multiply" opacity="0.15">
<path d="M63.3775 108.515C48.8516 108.513 34.767 103.318 23.4806 93.8003C12.1941 84.2821 4.39064 71.0179 1.37594 56.2272C-0.579915 65.8374 -0.449141 75.781 1.75873 85.3318C3.96661 94.8827 8.19582 103.8 14.1376 111.432C20.0794 119.064 27.5837 125.219 36.1026 129.446C44.6215 133.674 53.9399 135.868 63.3775 135.868C72.8151 135.868 82.1335 133.674 90.6524 129.446C99.1713 125.219 106.676 119.064 112.617 111.432C118.559 103.8 122.788 94.8827 124.996 85.3318C127.204 75.781 127.335 65.8374 125.379 56.2272C122.364 71.0179 114.561 84.2821 103.274 93.8003C91.988 103.318 77.9034 108.513 63.3775 108.515Z" fill="#230753"/>
</g>
<path d="M48.1093 31.88C49.1835 34.556 46.9023 38.0736 43.1487 39.7194C39.395 41.3652 35.3758 40.536 34.3017 37.8601C33.2275 35.1841 35.4483 31.6539 39.2623 30.0081C43.0763 28.3624 46.9868 29.2041 48.1093 31.88Z" fill="#E2E2E2"/>
<path d="M31.7913 40.2595C30.174 36.2268 33.5173 30.9251 39.2745 28.4251C43.523 26.5909 47.8922 26.8045 50.5354 28.6764C48.1215 26.0255 43.1247 25.4602 38.2848 27.5582C32.5276 30.0708 29.1843 35.3473 30.8016 39.3927C31.2431 40.4232 31.9648 41.2967 32.8776 41.9053C32.4195 41.4325 32.051 40.8742 31.7913 40.2595Z" fill="#E2E2E2"/>
<g style="mix-blend-mode:multiply" opacity="0.15">
<path d="M48.1095 31.8799C47.8676 31.2288 47.448 30.6655 46.9025 30.2593C47.6388 32.885 45.4542 36.1388 41.8212 37.7218C38.9366 38.9781 35.9675 38.7896 34.2294 37.4705C34.2624 37.6027 34.3027 37.7327 34.3501 37.86C35.4243 40.5359 39.3832 41.3776 43.1972 39.7193C47.0112 38.061 49.1837 34.5684 48.1095 31.8799Z" fill="#230753"/>
</g>
<path d="M69.9191 16.6911C70.0881 18.2866 68 19.8444 65.2482 20.1585C62.4963 20.4726 60.1306 19.4425 59.9617 17.8344C59.7927 16.2263 61.8807 14.681 64.6326 14.3669C67.3845 14.0529 69.7743 15.0956 69.9191 16.6911Z" fill="#E2E2E2"/>
<path d="M83.0388 40.3475C81.8319 39.6189 81.5784 37.6465 82.3991 35.7495C82.2755 35.9174 82.1626 36.0937 82.0612 36.2771C80.9267 38.3123 81.0956 40.6239 82.4353 41.428C83.7751 42.232 85.7786 41.227 86.9132 39.1918C87.0114 39.0084 87.1 38.8197 87.1787 38.6264C86.008 40.3099 84.2579 41.0762 83.0388 40.3475Z" fill="#E2E2E2"/>
<g style="mix-blend-mode:multiply" opacity="0.15">
<path d="M58.1031 18.6385C57.8255 16.1259 61.1808 13.6132 65.5742 13.0856C67.2623 12.8687 68.9752 13.0142 70.6072 13.5127C68.6793 12.6408 66.5595 12.3324 64.4759 12.6207C60.0705 13.1358 56.7272 15.6233 56.9927 18.1862C57.1496 19.6561 58.4893 20.837 60.4205 21.4777C59.831 21.254 59.3074 20.8747 58.9012 20.377C58.4949 19.8792 58.2199 19.2802 58.1031 18.6385Z" fill="#230753"/>
</g>
<g style="mix-blend-mode:multiply" opacity="0.15">
<path d="M69.9194 16.6911C69.7746 15.3092 67.9762 14.3419 65.7192 14.3168C66.9261 14.7062 67.8193 15.4474 67.9279 16.3896C68.0969 17.9852 65.9968 19.543 63.257 19.8571C62.8966 19.9023 62.5337 19.9232 62.1707 19.9199C63.1715 20.2095 64.2175 20.2906 65.2485 20.1586C68.0245 19.8445 70.1125 18.2867 69.9194 16.6911Z" fill="#230753"/>
</g>
<path d="M17.3319 55.75C19.7458 57.2952 19.8786 61.4411 17.7302 65.0341C15.5818 68.6272 11.9127 70.273 9.54701 68.7277C7.18137 67.1824 7.00032 63.0366 9.14871 59.4561C11.2971 55.8756 14.9663 54.2047 17.3319 55.75Z" fill="#E2E2E2"/>
<g style="mix-blend-mode:multiply" opacity="0.15">
<path d="M18.708 53.9033C21.2306 55.549 21.7616 59.5567 20.2167 63.4764C22.3772 59.5315 22.1116 55.1093 19.5287 53.4259C18.808 53.0127 18.0009 52.7898 17.1781 52.7766C16.3554 52.7635 15.5421 52.9606 14.8095 53.3505C15.4617 53.1654 16.143 53.1189 16.8128 53.2139C17.4826 53.3089 18.1272 53.5433 18.708 53.9033Z" fill="#230753"/>
</g>
<g style="mix-blend-mode:multiply" opacity="0.15">
<path d="M7.95391 70.0844C4.70719 67.9864 4.24854 62.5465 6.74695 57.5213C6.48142 57.8856 6.22795 58.2626 5.98656 58.6646C2.80018 63.9788 3.06572 70.1222 6.57798 72.4086C10.0902 74.6951 15.5095 72.2328 18.6476 66.9311C18.8868 66.5251 19.1044 66.1057 19.2993 65.6748C16.0767 70.2604 11.2006 72.195 7.95391 70.0844Z" fill="#230753"/>
</g>
<g style="mix-blend-mode:multiply" opacity="0.15">
<path d="M17.3319 55.75C14.918 54.2173 11.2971 55.8631 9.14871 59.519C8.82828 60.0647 8.54983 60.636 8.31592 61.2275C10.4764 58.7149 13.3972 57.7601 15.3887 59.0541C17.3802 60.3481 17.8026 63.514 16.5957 66.592C17.0075 66.1198 17.379 65.6111 17.7061 65.0718C19.8786 61.4285 19.7096 57.2827 17.3319 55.75Z" fill="#230753"/>
</g>
<path d="M35.8467 81.9818C40.9763 85.3236 43.004 91.5674 40.3848 95.9268C37.7657 100.286 31.4896 101.128 26.36 97.7987C21.2304 94.4695 19.1906 88.2131 21.8097 83.8537C24.4288 79.4943 30.7171 78.6525 35.8467 81.9818Z" fill="#E2E2E2"/>
<g style="mix-blend-mode:multiply" opacity="0.15">
<path d="M21.8097 89.9719C24.4288 85.6125 30.7171 84.7708 35.8467 88.1126C38.218 89.639 40.0188 91.9609 40.9521 94.6956C42.5332 90.4618 40.4331 85.0723 35.7984 82.0445C30.6688 78.7153 24.3806 79.5319 21.7615 83.9164C21.1313 85.025 20.7498 86.2673 20.6453 87.5507C20.5408 88.8342 20.716 90.1256 21.158 91.3287C21.3373 90.8577 21.5553 90.4038 21.8097 89.9719Z" fill="#230753"/>
</g>
<g style="mix-blend-mode:multiply" opacity="0.15">
<path d="M46.468 91.1152C46.5892 93.307 46.0987 95.4884 45.0559 97.3967C41.5195 103.766 32.588 105.274 25.1048 100.776C21.2848 98.571 18.4118 94.9383 17.0665 90.6126C17.2958 95.6379 20.4218 100.889 25.648 104.03C33.1311 108.528 42.0626 107.007 45.5869 100.638C46.359 99.2006 46.8359 97.612 46.9876 95.9728C47.1392 94.3336 46.9623 92.6795 46.468 91.1152Z" fill="#230753"/>
</g>
<g style="mix-blend-mode:multiply" opacity="0.15">
<path d="M40.6142 119.52C42.6298 116.179 47.9646 115.877 52.551 118.867C53.9612 119.689 55.1773 120.829 56.1106 122.202C57.044 123.576 57.671 125.149 57.9462 126.807C58.1996 123.716 56.1478 120.061 52.551 117.724C47.9646 114.734 42.6298 115.035 40.6142 118.377C40.0011 119.432 39.7422 120.67 39.8779 121.895C39.9402 121.054 40.1925 120.24 40.6142 119.52Z" fill="#230753"/>
</g>
<g style="mix-blend-mode:multiply" opacity="0.15">
<path d="M54.7718 124.169C54.7006 124.641 54.5406 125.093 54.3011 125.5C52.8286 128.013 48.8939 128.176 45.5144 125.99C43.9885 125.027 42.7706 123.615 42.0143 121.933C41.5798 124.282 43.0884 127.209 45.9127 129.043C49.2802 131.229 53.1545 131.016 54.6994 128.553C55.0541 127.884 55.2461 127.135 55.2587 126.37C55.2714 125.606 55.1042 124.85 54.7718 124.169Z" fill="#230753"/>
</g>
<path d="M96.5447 82.7858C104.221 87.811 106.973 97.6228 102.688 104.759C98.4034 111.894 88.6995 113.641 81.0232 108.641C73.3469 103.64 70.583 93.8161 74.8677 86.6677C79.1524 79.5193 88.8685 77.7856 96.5447 82.7858Z" fill="#E2E2E2"/>
<g style="mix-blend-mode:multiply" opacity="0.15">
<path d="M79.1525 95.6001C83.4372 88.4643 93.1412 86.7181 100.878 91.7182C102.231 92.6037 103.468 93.6678 104.559 94.8841C104.132 92.3945 103.201 90.028 101.828 87.942C100.454 85.856 98.6698 84.0983 96.5931 82.7858C88.9168 77.7606 79.2128 79.5319 74.8678 86.6678C71.3676 92.5096 72.5745 100.161 77.342 105.512C76.7602 102.089 77.4043 98.5624 79.1525 95.6001Z" fill="#230753"/>
</g>
<g style="mix-blend-mode:multiply" opacity="0.15">
<path d="M108.88 92.8992C108.909 97.2185 107.748 101.456 105.537 105.111C99.3207 115.463 86.5631 118.829 77.0401 112.648C74.7915 111.173 72.8499 109.243 71.3303 106.973C69.8107 104.703 68.744 102.139 68.1931 99.432C68.18 102.972 69.0301 106.458 70.664 109.562C72.2978 112.667 74.662 115.289 77.535 117.184C87.0579 123.377 99.8155 120.01 106.019 109.646C109.04 104.668 110.067 98.656 108.88 92.8992Z" fill="#230753"/>
</g>
<path d="M49.8355 62.5968C49.3889 63.9285 47.5181 64.4687 45.6594 63.7903C43.8006 63.1119 42.654 61.4913 43.1006 60.1596C43.5472 58.8279 45.4059 58.3002 47.2767 58.9033C49.1475 59.5063 50.282 61.2651 49.8355 62.5968Z" fill="#E2E2E2"/>
<g style="mix-blend-mode:multiply" opacity="0.15">
<path d="M50.6682 60.4233C50.8514 60.7599 50.9663 61.1321 51.0057 61.5167C51.0452 61.9014 51.0083 62.2904 50.8975 62.6596C50.294 64.4687 47.7715 65.1722 45.2489 64.2802C44.1804 63.9128 43.2287 63.2482 42.4971 62.3581C43.2165 63.6392 44.3704 64.5937 45.7317 65.0341C48.2543 65.9512 50.7889 65.2225 51.3924 63.4134C51.5301 62.8923 51.5357 62.3431 51.4088 61.8191C51.2819 61.2951 51.0267 60.8142 50.6682 60.4233Z" fill="#230753"/>
</g>
<g style="mix-blend-mode:multiply" opacity="0.15">
<path d="M43.9696 61.1018C44.4162 59.7701 46.287 59.2425 48.1457 59.8455C48.6261 60.0253 49.0778 60.2794 49.4854 60.5993C48.9439 59.801 48.1692 59.2062 47.2767 58.9033C45.4059 58.2374 43.5472 58.7651 43.1006 60.1596C42.986 60.7121 43.0409 61.2881 43.2574 61.8065C43.4739 62.3249 43.8412 62.7595 44.3076 63.0491C44.1115 62.7733 43.979 62.4541 43.9204 62.1165C43.8618 61.7788 43.8786 61.4316 43.9696 61.1018Z" fill="#230753"/>
</g>
<g style="mix-blend-mode:multiply" opacity="0.15">
<path d="M78.0057 57.9737C77.43 57.7374 76.8002 57.6829 76.1948 57.817C75.5895 57.951 75.0356 58.2677 74.6021 58.7274C75.2013 58.6251 75.8155 58.6813 76.3884 58.8908C77.1351 59.0925 77.776 59.5911 78.1732 60.2794C78.5704 60.9678 78.6923 61.7909 78.5127 62.5718C78.4152 62.8467 78.2722 63.1019 78.0902 63.3256C78.5425 63.2617 78.9701 63.0731 79.3288 62.7793C79.6874 62.4855 79.9641 62.0972 80.13 61.6547C80.3096 60.8738 80.1877 60.0507 79.7905 59.3623C79.3933 58.674 78.7524 58.1754 78.0057 57.9737Z" fill="#230753"/>
</g>
<g style="mix-blend-mode:multiply" opacity="0.15">
<path d="M77.0766 64.318C73.7092 63.3632 71.597 60.1973 72.3695 57.2701C72.51 56.7666 72.7303 56.2911 73.0212 55.8631C72.0912 56.5034 71.4141 57.4713 71.1142 58.5892C70.3297 61.5164 72.4419 64.6823 75.8093 65.6371C77.0214 66.0486 78.3253 66.0646 79.5463 65.6828C80.7674 65.3011 81.847 64.5399 82.6407 63.5014C81.8248 64.0472 80.905 64.4029 79.9446 64.5438C78.9841 64.6848 78.0058 64.6078 77.0766 64.318Z" fill="#230753"/>
</g>
<g style="mix-blend-mode:multiply" opacity="0.15">
<path d="M110.956 63.0115C110.986 63.5751 110.814 64.1304 110.473 64.5693C110.201 65.0027 109.776 65.3066 109.29 65.4149C108.804 65.5232 108.296 65.4269 107.878 65.1471C107.737 65.0336 107.618 64.8929 107.528 64.7326C107.542 64.9523 107.598 65.1668 107.693 65.3632C107.789 65.5597 107.921 65.734 108.083 65.8758C108.501 66.1556 109.009 66.2519 109.495 66.1436C109.981 66.0353 110.407 65.7313 110.678 65.2979C110.937 64.9881 111.101 64.6056 111.15 64.1985C111.2 63.7915 111.132 63.3784 110.956 63.0115Z" fill="#230753"/>
</g>
<g style="mix-blend-mode:multiply" opacity="0.15">
<path d="M83.5458 35.9252C83.9662 35.5977 84.4927 35.4538 85.0134 35.5242C85.5341 35.5946 86.0079 35.8737 86.3339 36.3022C86.46 36.5187 86.5394 36.7612 86.5665 37.0129C86.5936 37.2645 86.5677 37.5193 86.4908 37.7595C86.7389 37.4628 86.8929 37.0936 86.9318 36.7023C86.9707 36.311 86.8926 35.9168 86.7081 35.5735C86.3821 35.1451 85.9083 34.8659 85.3876 34.7955C84.8669 34.7251 84.3403 34.8691 83.92 35.1966C83.455 35.5057 83.1057 35.9712 82.9303 36.5157C83.1026 36.2848 83.3106 36.0852 83.5458 35.9252Z" fill="#230753"/>
</g>
<g style="mix-blend-mode:multiply" opacity="0.15">
<path d="M110.461 44.4431C110.256 43.9398 109.869 43.5407 109.383 43.3316C108.898 43.1224 108.353 43.12 107.866 43.325C107.392 43.4665 106.971 43.7559 106.659 44.1542C106.872 43.9917 107.108 43.8645 107.359 43.7772C107.846 43.5756 108.39 43.5797 108.875 43.7884C109.359 43.9972 109.746 44.3943 109.954 44.8954C110.03 45.1794 110.037 45.4787 109.974 45.766C109.91 46.0534 109.779 46.3198 109.592 46.5411C109.935 46.3357 110.205 46.0204 110.361 45.6423C110.518 45.2642 110.553 44.8436 110.461 44.4431Z" fill="#230753"/>
</g>
<g style="mix-blend-mode:multiply" opacity="0.15">
<path d="M85.6097 23.4251C85.8752 22.1688 88.0236 21.4276 90.2806 21.9175C90.8659 22.0381 91.4338 22.2365 91.9704 22.508C91.1049 21.5798 89.9747 20.9674 88.7478 20.7618C86.4305 20.2592 84.3424 20.9376 84.089 22.2693C83.8958 23.2492 84.7407 24.292 86.1166 24.9704C85.9232 24.771 85.7768 24.5278 85.6889 24.2597C85.6009 23.9916 85.5738 23.706 85.6097 23.4251Z" fill="#230753"/>
</g>
<g style="mix-blend-mode:multiply" opacity="0.15">
<path d="M10.428 97.0196C8.70208 93.2507 6.02263 90.8135 4.39323 91.6175C4.19287 91.7425 4.02339 91.9146 3.89838 92.1201C4.93636 92.4844 7.06061 94.6326 8.59345 97.9744C9.6778 100.253 10.025 102.836 9.58315 105.336C9.75532 105.402 9.93893 105.43 10.122 105.417C10.305 105.404 10.4833 105.351 10.6453 105.261C12.2867 104.482 12.154 100.789 10.428 97.0196Z" fill="#230753"/>
</g>
<path d="M8.61768 97.9118C10.2954 101.555 10.935 104.872 10.0419 105.324C9.14873 105.776 7.08483 103.151 5.41922 99.5073C3.75362 95.864 3.10186 92.5348 3.98294 92.095C4.86402 91.6553 6.95207 94.2559 8.61768 97.9118Z" fill="#C1C1C1"/>
<g style="mix-blend-mode:multiply" opacity="0.15">
<path d="M8.61768 97.9118C8.46077 97.56 8.2918 97.2208 8.12282 96.8816C9.45048 100.098 9.89706 102.837 9.08839 103.239C8.27973 103.641 6.52962 101.543 4.96057 98.452C5.10541 98.8038 5.25025 99.143 5.41922 99.5073C7.08483 103.151 9.1608 105.789 10.0419 105.324C10.923 104.859 10.2954 101.555 8.61768 97.9118Z" fill="#230753"/>
</g>
<g style="mix-blend-mode:multiply" opacity="0.15">
<path d="M109.483 47.4456C108.736 47.7626 107.898 47.7595 107.152 47.4373C106.406 47.115 105.813 46.4996 105.5 45.7245C105.377 45.2973 105.356 44.8454 105.438 44.4077C105.52 43.97 105.703 43.5596 105.971 43.2119C105.495 43.562 105.135 44.056 104.938 44.6269C104.742 45.1979 104.719 45.818 104.873 46.4029C105.185 47.1779 105.779 47.7934 106.524 48.1157C107.27 48.4379 108.108 48.4409 108.856 48.124C109.565 47.8811 110.185 47.416 110.63 46.7923C110.292 47.0857 109.903 47.3076 109.483 47.4456Z" fill="#230753"/>
</g>
</svg>
