<svg width="114" height="115" viewBox="0 0 114 115" fill="none" xmlns="http://www.w3.org/2000/svg">
<path d="M37.514 102.62L37.0983 106.01C36.6734 109.475 39.1384 112.629 42.604 113.054L47.0449 113.599C50.5105 114.024 53.6644 111.559 54.0893 108.093L54.5049 104.703C54.9298 101.238 52.4649 98.0837 48.9993 97.6588L44.5584 97.1143C41.0928 96.6894 37.9389 99.1543 37.514 102.62Z" fill="#C1C1C1"/>
<path d="M108.97 77.4704L112.715 67.6885C113.371 65.9751 112.514 64.0544 110.8 63.3984L102.007 60.0319C100.294 59.3759 98.3732 60.233 97.7172 61.9464L93.972 71.7284C93.3161 73.4417 94.1732 75.3625 95.8865 76.0184L104.68 79.385C106.393 80.041 108.314 79.1838 108.97 77.4704Z" fill="#C1C1C1"/>
<path d="M100.647 21.7023L102.961 24.8166C104.006 26.225 104.451 27.9898 104.198 29.725C103.945 31.4602 103.015 33.0247 101.612 34.0764L99.3489 35.7685C97.9396 36.8105 96.1755 37.2533 94.4411 37.0005C92.7067 36.7478 91.1424 35.8199 90.0891 34.419L87.7638 31.3047C86.7229 29.894 86.2817 28.1291 86.5365 26.3946C86.7912 24.6602 87.7212 23.0966 89.1237 22.0448L91.3867 20.3527C92.7951 19.3081 94.5599 18.8636 96.2951 19.1165C98.0304 19.3694 99.5949 20.2991 100.647 21.7023Z" fill="#D5D5D5"/>
<path d="M46.5206 16.1639L56.9888 16.524C58.8223 16.5871 60.3598 15.1518 60.4229 13.3183L60.7466 3.9083C60.8097 2.07475 59.3744 0.537215 57.5408 0.474147L47.0726 0.114076C45.2391 0.0510083 43.7015 1.48629 43.6385 3.31984L43.3148 12.7298C43.2517 14.5634 44.687 16.1009 46.5206 16.1639Z" fill="#D5D5D5"/>
<path d="M22.9138 31.9069L20.5158 34.9382C19.1907 36.6035 17.261 37.6777 15.1474 37.9265C13.0338 38.1754 10.9074 37.5789 9.23168 36.2669C7.57023 34.9386 6.49985 33.0086 6.25301 30.8958C6.00617 28.7831 6.60279 26.6582 7.91329 24.9828L10.3113 21.9515C11.6368 20.2794 13.5716 19.2013 15.6911 18.9542C17.8105 18.707 19.9414 19.3108 21.6162 20.6331C23.2761 21.9609 24.344 23.891 24.5871 26.0027C24.8301 28.1145 24.2287 30.2367 22.9138 31.9069Z" fill="#D5D5D5"/>
<path d="M109.948 57.7346C109.948 68.5158 106.751 79.0548 100.761 88.019C94.7716 96.9832 86.2582 103.97 76.2977 108.096C66.3372 112.222 55.377 113.301 44.803 111.198C34.229 109.094 24.5162 103.903 16.8927 96.2794C9.26931 88.6559 4.07768 78.9431 1.97438 68.3691C-0.128917 57.7951 0.950581 46.8348 5.07635 36.8743C9.20212 26.9138 16.1889 18.4005 25.1531 12.4108C34.1173 6.42112 44.6563 3.22412 55.4375 3.22412C69.8945 3.22412 83.7595 8.96717 93.9822 19.1899C104.205 29.4126 109.948 43.2775 109.948 57.7346Z" fill="#F5F5F5"/>
<g style="mix-blend-mode:multiply" opacity="0.15">
<path d="M55.4374 89.6665C42.9438 89.665 30.8298 85.3727 21.1224 77.5077C11.415 69.6428 4.70331 58.6825 2.11039 46.4609C0.428176 54.4019 0.540654 62.6183 2.43963 70.5102C4.3386 78.4021 7.97612 85.7704 13.0866 92.0768C18.1971 98.3833 24.6514 103.469 31.9785 106.962C39.3055 110.455 47.3203 112.268 55.4374 112.268C63.5546 112.268 71.5693 110.455 78.8964 106.962C86.2234 103.469 92.6778 98.3833 97.7883 92.0768C102.899 85.7704 106.536 78.4021 108.435 70.5102C110.334 62.6183 110.447 54.4019 108.765 46.4609C106.172 58.6825 99.4599 69.6428 89.7525 77.5077C80.0451 85.3727 67.931 89.665 55.4374 89.6665Z" fill="#230753"/>
</g>
<path d="M42.3054 26.3426C43.2293 28.5537 41.2674 31.4604 38.0389 32.8203C34.8104 34.1802 31.3535 33.4951 30.4296 31.2839C29.5057 29.0728 31.4158 26.1557 34.6962 24.7958C37.9766 23.4359 41.34 24.1314 42.3054 26.3426Z" fill="#E2E2E2"/>
<path d="M28.2704 33.2667C26.8793 29.9344 29.7548 25.5536 34.7066 23.4878C38.3607 21.9722 42.1186 22.1487 44.392 23.6954C42.3158 21.505 38.0181 21.0379 33.8553 22.7715C28.9036 24.8477 26.0281 29.2077 27.4191 32.5504C27.7988 33.4019 28.4195 34.1237 29.2046 34.6266C28.8107 34.2359 28.4937 33.7746 28.2704 33.2667Z" fill="#E2E2E2"/>
<g style="mix-blend-mode:multiply" opacity="0.15">
<path d="M42.3055 26.3425C42.0974 25.8045 41.7366 25.339 41.2674 25.0034C41.9006 27.173 40.0217 29.8617 36.897 31.1697C34.416 32.2078 31.8622 32.0521 30.3674 30.9621C30.3957 31.0713 30.4304 31.1787 30.4712 31.2839C31.3951 33.495 34.8001 34.1905 38.0804 32.8203C41.3608 31.45 43.2294 28.5641 42.3055 26.3425Z" fill="#230753"/>
</g>
<path d="M61.0638 13.792C61.2092 15.1104 59.4133 16.3977 57.0464 16.6572C54.6796 16.9167 52.6449 16.0655 52.4995 14.7367C52.3542 13.408 54.1501 12.1311 56.517 11.8716C58.8838 11.6121 60.9393 12.4737 61.0638 13.792Z" fill="#E2E2E2"/>
<path d="M72.348 33.3394C71.3099 32.7374 71.0919 31.1076 71.7978 29.54C71.6914 29.6788 71.5943 29.8245 71.5071 29.976C70.5313 31.6577 70.6766 33.5678 71.8289 34.2322C72.9812 34.8966 74.7045 34.0661 75.6803 32.3844C75.7647 32.2329 75.841 32.077 75.9087 31.9173C74.9017 33.3083 73.3965 33.9415 72.348 33.3394Z" fill="#E2E2E2"/>
<g style="mix-blend-mode:multiply" opacity="0.15">
<path d="M50.901 15.401C50.6622 13.3248 53.5481 11.2486 57.3268 10.8126C58.7787 10.6335 60.2519 10.7536 61.6557 11.1656C59.9975 10.4451 58.1743 10.1903 56.3821 10.4285C52.5931 10.8541 49.7175 12.9096 49.9459 15.0273C50.0809 16.2419 51.2332 17.2177 52.8941 17.7471C52.3871 17.5622 51.9368 17.2488 51.5874 16.8375C51.238 16.4263 51.0015 15.9313 50.901 15.401Z" fill="#230753"/>
</g>
<g style="mix-blend-mode:multiply" opacity="0.15">
<path d="M61.0639 13.792C60.9394 12.6501 59.3926 11.8508 57.4514 11.8301C58.4895 12.1519 59.2577 12.7643 59.3511 13.5429C59.4964 14.8613 57.6901 16.1485 55.3336 16.4081C55.0236 16.4454 54.7116 16.4627 54.3994 16.46C55.2602 16.6992 56.1597 16.7663 57.0465 16.6572C59.4341 16.3977 61.23 15.1104 61.0639 13.792Z" fill="#230753"/>
</g>
<path d="M15.834 46.0666C17.9102 47.3435 18.0244 50.7692 16.1765 53.7382C14.3287 56.7071 11.1729 58.0671 9.13825 56.7902C7.10358 55.5133 6.94787 52.0876 8.79568 49.129C10.6435 46.1705 13.7993 44.7898 15.834 46.0666Z" fill="#E2E2E2"/>
<g style="mix-blend-mode:multiply" opacity="0.15">
<path d="M17.0175 44.5406C19.1871 45.9005 19.6439 49.212 18.3151 52.4509C20.1733 49.1913 19.9449 45.5372 17.7234 44.1461C17.1035 43.8047 16.4093 43.6205 15.7017 43.6096C14.994 43.5988 14.2945 43.7616 13.6644 44.0838C14.2254 43.9309 14.8113 43.8925 15.3874 43.971C15.9635 44.0495 16.5179 44.2432 17.0175 44.5406Z" fill="#230753"/>
</g>
<g style="mix-blend-mode:multiply" opacity="0.15">
<path d="M7.76801 57.9112C4.97553 56.1776 4.58106 51.6827 6.72992 47.5303C6.50154 47.8313 6.28353 48.1428 6.07591 48.475C3.33533 52.8661 3.56372 57.9424 6.58458 59.8318C9.60545 61.7211 14.2665 59.6864 16.9656 55.3057C17.1713 54.9702 17.3585 54.6236 17.5261 54.2676C14.7544 58.0566 10.5605 59.6552 7.76801 57.9112Z" fill="#230753"/>
</g>
<g style="mix-blend-mode:multiply" opacity="0.15">
<path d="M15.834 46.0665C13.7578 44.8001 10.6435 46.16 8.79573 49.1808C8.52013 49.6318 8.28064 50.1039 8.07945 50.5926C9.93765 48.5164 12.4498 47.7275 14.1627 48.7967C15.8756 49.866 16.2389 52.482 15.2008 55.0253C15.555 54.6352 15.8746 54.2149 16.1558 53.7692C18.0244 50.7587 17.8791 47.333 15.834 46.0665Z" fill="#230753"/>
</g>
<path d="M31.7584 67.742C36.1703 70.5033 37.9143 75.6626 35.6617 79.2648C33.409 82.867 28.0109 83.5625 23.599 80.8116C19.1871 78.0606 17.4327 72.8909 19.6853 69.2887C21.938 65.6865 27.3465 64.991 31.7584 67.742Z" fill="#E2E2E2"/>
<g style="mix-blend-mode:multiply" opacity="0.15">
<path d="M19.6853 74.3442C21.938 70.742 27.3465 70.0465 31.7584 72.8079C33.7979 74.0692 35.3468 75.9878 36.1495 78.2475C37.5094 74.7491 35.7031 70.2957 31.7168 67.7939C27.3049 65.0429 21.8965 65.7176 19.6438 69.3406C19.1018 70.2566 18.7736 71.2831 18.6838 72.3436C18.5939 73.4042 18.7446 74.4713 19.1247 75.4654C19.279 75.0762 19.4665 74.7011 19.6853 74.3442Z" fill="#230753"/>
</g>
<g style="mix-blend-mode:multiply" opacity="0.15">
<path d="M40.8937 75.289C40.9979 77.1001 40.5761 78.9027 39.6791 80.4795C36.6375 85.7427 28.9556 86.9884 22.5194 83.272C19.2339 81.4499 16.7628 78.4481 15.6057 74.8738C15.8029 79.0262 18.4916 83.3654 22.9865 85.9606C29.4227 89.677 37.1046 88.4209 40.1359 83.1578C40.7999 81.97 41.2101 80.6574 41.3406 79.3029C41.471 77.9484 41.3189 76.5817 40.8937 75.289Z" fill="#230753"/>
</g>
<g style="mix-blend-mode:multiply" opacity="0.15">
<path d="M35.8589 98.7605C37.5925 95.9991 42.1809 95.75 46.1256 98.2207C47.3385 98.9001 48.3844 99.8416 49.1872 100.977C49.99 102.112 50.5293 103.412 50.7659 104.781C50.9839 102.228 49.2192 99.2069 46.1256 97.276C42.1809 94.8053 37.5925 95.0544 35.8589 97.8158C35.3316 98.6878 35.1088 99.7102 35.2256 100.723C35.2792 100.028 35.4962 99.3555 35.8589 98.7605Z" fill="#230753"/>
</g>
<g style="mix-blend-mode:multiply" opacity="0.15">
<path d="M48.0358 102.601C47.9746 102.991 47.837 103.365 47.631 103.702C46.3645 105.778 42.9803 105.913 40.0736 104.106C38.7611 103.31 37.7137 102.144 37.0631 100.753C36.6894 102.695 37.987 105.113 40.4162 106.629C43.3125 108.435 46.6448 108.259 47.9735 106.224C48.2786 105.671 48.4438 105.052 48.4546 104.42C48.4655 103.789 48.3217 103.164 48.0358 102.601Z" fill="#230753"/>
</g>
<path d="M83.9643 68.4064C90.5666 72.5588 92.9335 80.6663 89.2482 86.5627C85.563 92.4591 77.2167 93.902 70.6144 89.7704C64.0121 85.6387 61.6349 77.5208 65.3201 71.6141C69.0054 65.7073 77.362 64.2748 83.9643 68.4064Z" fill="#E2E2E2"/>
<g style="mix-blend-mode:multiply" opacity="0.15">
<path d="M69.0054 78.995C72.6906 73.0986 81.0369 71.6557 87.6911 75.7874C88.855 76.519 89.9193 77.3984 90.8573 78.4034C90.4903 76.3462 89.6895 74.3908 88.5082 72.6671C87.3268 70.9434 85.7921 69.491 84.0059 68.4065C77.4036 64.2541 69.0573 65.7178 65.3201 71.6142C62.3097 76.4413 63.3477 82.7633 67.4482 87.1856C66.9478 84.3569 67.5018 81.4428 69.0054 78.995Z" fill="#230753"/>
</g>
<g style="mix-blend-mode:multiply" opacity="0.15">
<path d="M94.5737 76.7632C94.5985 80.3322 93.6007 83.8337 91.6982 86.8535C86.352 95.4074 75.3793 98.1895 67.1887 93.082C65.2546 91.8629 63.5847 90.2683 62.2777 88.3925C60.9707 86.5168 60.0532 84.3979 59.5795 82.1613C59.5681 85.0864 60.2993 87.9665 61.7046 90.532C63.1099 93.0974 65.1433 95.2643 67.6143 96.8296C75.8049 101.947 86.7776 99.1653 92.1134 90.601C94.7115 86.4876 95.5947 81.5201 94.5737 76.7632Z" fill="#230753"/>
</g>
<path d="M43.7899 51.724C43.4058 52.8244 41.7968 53.2708 40.1981 52.7103C38.5994 52.1497 37.6132 50.8105 37.9973 49.7101C38.3814 48.6098 39.9801 48.1738 41.5892 48.672C43.1982 49.1703 44.174 50.6237 43.7899 51.724Z" fill="#E2E2E2"/>
<g style="mix-blend-mode:multiply" opacity="0.15">
<path d="M44.5062 49.9282C44.6638 50.2063 44.7626 50.5138 44.7965 50.8317C44.8305 51.1495 44.7988 51.471 44.7035 51.7761C44.1844 53.2709 42.0148 53.8522 39.8452 53.1152C38.9261 52.8116 38.1076 52.2624 37.4783 51.5269C38.0971 52.5855 39.0895 53.3743 40.2604 53.7381C42.43 54.4959 44.61 53.8938 45.1291 52.3989C45.2475 51.9684 45.2524 51.5145 45.1432 51.0815C45.0341 50.6485 44.8146 50.2512 44.5062 49.9282Z" fill="#230753"/>
</g>
<g style="mix-blend-mode:multiply" opacity="0.15">
<path d="M38.7449 50.4889C39.129 49.3885 40.738 48.9525 42.3367 49.4508C42.7499 49.5994 43.1383 49.8093 43.489 50.0736C43.0232 49.414 42.3569 48.9225 41.5893 48.6722C39.9802 48.122 38.3815 48.558 37.9974 49.7103C37.8989 50.1669 37.946 50.6428 38.1323 51.0712C38.3185 51.4995 38.6344 51.8586 39.0355 52.0979C38.8669 51.87 38.7529 51.6063 38.7025 51.3273C38.6521 51.0483 38.6666 50.7614 38.7449 50.4889Z" fill="#230753"/>
</g>
<g style="mix-blend-mode:multiply" opacity="0.15">
<path d="M68.0191 47.9039C67.5239 47.7087 66.9822 47.6636 66.4616 47.7744C65.941 47.8852 65.4645 48.1468 65.0917 48.5267C65.607 48.4422 66.1353 48.4886 66.6281 48.6617C67.2703 48.8284 67.8215 49.2404 68.1631 49.8092C68.5048 50.3779 68.6096 51.0581 68.4551 51.7033C68.3713 51.9305 68.2483 52.1414 68.0918 52.3262C68.4808 52.2735 68.8486 52.1176 69.157 51.8748C69.4655 51.6321 69.7035 51.3112 69.8462 50.9455C70.0007 50.3003 69.8958 49.6201 69.5542 49.0514C69.2125 48.4826 68.6613 48.0706 68.0191 47.9039Z" fill="#230753"/>
</g>
<g style="mix-blend-mode:multiply" opacity="0.15">
<path d="M67.2199 53.1463C64.3236 52.3573 62.5069 49.7413 63.1713 47.3226C63.2922 46.9065 63.4816 46.5136 63.7319 46.1599C62.932 46.689 62.3496 47.4888 62.0917 48.4126C61.4169 50.8313 63.2336 53.4473 66.1299 54.2363C67.1724 54.5763 68.2939 54.5895 69.3441 54.274C70.3942 53.9586 71.3229 53.3296 72.0055 52.4715C71.3037 52.9225 70.5126 53.2164 69.6866 53.3329C68.8605 53.4494 68.019 53.3857 67.2199 53.1463Z" fill="#230753"/>
</g>
<g style="mix-blend-mode:multiply" opacity="0.15">
<path d="M96.3592 52.0669C96.3854 52.5326 96.2374 52.9915 95.944 53.3541C95.7103 53.7123 95.3445 53.9634 94.9264 54.0529C94.5083 54.1423 94.0718 54.0628 93.7121 53.8316C93.5906 53.7378 93.4884 53.6216 93.411 53.4891C93.4228 53.6706 93.4712 53.8478 93.5533 54.0102C93.6353 54.1725 93.7494 54.3166 93.8885 54.4337C94.2482 54.6649 94.6848 54.7444 95.1029 54.655C95.521 54.5655 95.8868 54.3143 96.1204 53.9562C96.3427 53.7002 96.4841 53.3841 96.5266 53.0478C96.5691 52.7114 96.5108 52.3701 96.3592 52.0669Z" fill="#230753"/>
</g>
<g style="mix-blend-mode:multiply" opacity="0.15">
<path d="M72.784 29.6852C73.1455 29.4146 73.5984 29.2957 74.0463 29.3539C74.4941 29.412 74.9016 29.6427 75.182 29.9967C75.2905 30.1756 75.3587 30.376 75.382 30.5839C75.4053 30.7919 75.3831 31.0024 75.317 31.2009C75.5304 30.9557 75.6628 30.6506 75.6963 30.3273C75.7297 30.004 75.6625 29.6783 75.5038 29.3946C75.2234 29.0406 74.8159 28.8099 74.3681 28.7517C73.9202 28.6936 73.4674 28.8125 73.1058 29.0832C72.7058 29.3386 72.4054 29.7232 72.2546 30.1732C72.4028 29.9823 72.5817 29.8174 72.784 29.6852Z" fill="#230753"/>
</g>
<g style="mix-blend-mode:multiply" opacity="0.15">
<path d="M95.9336 36.7236C95.757 36.3077 95.4241 35.9779 95.0066 35.8051C94.5892 35.6323 94.1206 35.6303 93.7017 35.7997C93.2938 35.9166 92.9315 36.1557 92.6636 36.4848C92.847 36.3506 93.0501 36.2455 93.2657 36.1734C93.6848 36.0068 94.1523 36.0101 94.569 36.1826C94.9858 36.3551 95.3189 36.6832 95.4976 37.0973C95.563 37.332 95.5687 37.5793 95.5143 37.8167C95.46 38.0542 95.3472 38.2743 95.1862 38.4572C95.481 38.2874 95.7131 38.0269 95.8478 37.7145C95.9824 37.4021 96.0126 37.0545 95.9336 36.7236Z" fill="#230753"/>
</g>
<g style="mix-blend-mode:multiply" opacity="0.15">
<path d="M74.5592 19.3564C74.7876 18.3183 76.6354 17.7058 78.5766 18.1106C79.08 18.2102 79.5685 18.3742 80.03 18.5985C79.2856 17.8316 78.3134 17.3255 77.2582 17.1556C75.2651 16.7404 73.4692 17.3009 73.2512 18.4013C73.0851 19.211 73.8118 20.0726 74.9952 20.6332C74.8288 20.4685 74.7029 20.2675 74.6273 20.046C74.5516 19.8245 74.5283 19.5884 74.5592 19.3564Z" fill="#230753"/>
</g>
<g style="mix-blend-mode:multiply" opacity="0.15">
<path d="M9.89611 80.168C8.41163 77.0537 6.10705 75.0398 4.70562 75.7042C4.53329 75.8075 4.38752 75.9497 4.28 76.1195C5.17276 76.4205 6.99981 78.1956 8.3182 80.957C9.25083 82.8398 9.54944 84.9737 9.16943 87.0402C9.31751 87.0947 9.47543 87.1173 9.63285 87.1066C9.79027 87.0959 9.94364 87.052 10.083 86.9779C11.4948 86.3343 11.3806 83.2823 9.89611 80.168Z" fill="#230753"/>
</g>
<path d="M8.33897 80.905C9.78192 83.9155 10.3321 86.6561 9.56391 87.0298C8.79572 87.4036 7.02057 85.2339 5.588 82.2234C4.15542 79.213 3.59485 76.462 4.35266 76.0986C5.11047 75.7353 6.90639 77.8842 8.33897 80.905Z" fill="#C1C1C1"/>
<g style="mix-blend-mode:multiply" opacity="0.15">
<path d="M8.33897 80.905C8.20402 80.6143 8.05868 80.334 7.91334 80.0537C9.05525 82.7112 9.43935 84.9743 8.74383 85.3065C8.0483 85.6387 6.54305 83.9051 5.19352 81.3513C5.31809 81.642 5.44267 81.9223 5.588 82.2234C7.02058 85.2338 8.8061 87.4139 9.56392 87.0298C10.3217 86.6457 9.78192 83.9154 8.33897 80.905Z" fill="#230753"/>
</g>
<g style="mix-blend-mode:multiply" opacity="0.15">
<path d="M95.0927 39.2047C94.4495 39.4665 93.7289 39.4641 93.0875 39.1978C92.4461 38.9315 91.9356 38.4229 91.667 37.7825C91.5612 37.4295 91.5427 37.0561 91.6132 36.6944C91.6837 36.3327 91.8411 35.9936 92.0718 35.7063C91.6626 35.9956 91.3524 36.4038 91.1834 36.8756C91.0144 37.3473 90.9947 37.8597 91.1272 38.343C91.3958 38.9835 91.9063 39.492 92.5477 39.7583C93.1891 40.0246 93.9097 40.0271 94.5529 39.7652C95.1628 39.5645 95.6958 39.1802 96.0789 38.6649C95.7884 38.9073 95.4534 39.0906 95.0927 39.2047Z" fill="#230753"/>
</g>
</svg>
