<svg width="41" height="41" viewBox="0 0 41 41" fill="none" xmlns="http://www.w3.org/2000/svg">
<path fill-rule="evenodd" clip-rule="evenodd" d="M15.1496 5.18257C15.0725 5.13147 15.0112 5.08634 14.9627 5.04749C15.0112 5.00863 15.0725 4.9635 15.1496 4.91241C15.6066 4.6098 16.3673 4.27961 17.443 3.97952C19.5735 3.38518 22.6043 3 26.0171 3C29.4298 3 32.4607 3.38518 34.5911 3.97952C35.6669 4.27961 36.4276 4.6098 36.8845 4.91241C36.9617 4.9635 37.023 5.00864 37.0715 5.04749C37.023 5.08634 36.9617 5.13147 36.8845 5.18257C36.4276 5.48517 35.6669 5.81536 34.5911 6.11546C32.4607 6.7098 29.4298 7.09497 26.0171 7.09497C22.6043 7.09497 19.5735 6.7098 17.443 6.11546C16.3673 5.81536 15.6066 5.48517 15.1496 5.18257ZM35.3973 9.00512C36.043 8.82497 36.6542 8.61874 37.2091 8.38338L37.2091 11.302C37.1869 11.3454 37.1089 11.4692 36.8694 11.6652C36.4682 11.9934 35.785 12.3726 34.7779 12.7287C32.7779 13.436 29.7825 13.9535 26.0171 13.9535C22.3102 13.9535 19.291 13.2879 17.2093 12.6282C16.169 12.2985 15.365 11.9709 14.8295 11.7305L14.825 11.7284V8.38334C15.3798 8.61872 15.9911 8.82496 16.6369 9.00512C19.0985 9.69182 22.4137 10.095 26.0171 10.095C29.6204 10.095 32.9357 9.69182 35.3973 9.00512ZM40.2093 11.3541L40.2091 11.3867L40.2091 18.213H40.2092L40.2091 18.2378L40.2091 24.992C40.2091 26.2119 39.369 27.0569 38.6368 27.5661C37.8561 28.1091 36.8219 28.544 35.6751 28.8912C33.536 29.5388 30.7092 29.9684 27.6048 30.0935C26.1296 36.2668 20.5887 40.8403 13.9556 40.8403C6.26256 40.8403 0 34.5654 0 26.8058C0 19.7921 5.11346 13.9994 11.825 12.9434V12.6628V5.04749C11.825 3.78129 12.7233 2.92095 13.4933 2.4111C14.3198 1.86378 15.4166 1.43028 16.6369 1.08985C19.0985 0.403151 22.4137 0 26.0171 0C29.6204 0 32.9357 0.403151 35.3973 1.08985C36.6175 1.43028 37.7143 1.86378 38.5409 2.4111C39.3108 2.92095 40.2092 3.78129 40.2092 5.04749L40.2091 5.07095L40.2091 11.3541H40.2093ZM35.7781 15.5571C36.2873 15.377 36.767 15.1787 37.2091 14.9621L37.2091 18.0571C37.1599 18.1105 37.0576 18.2052 36.8594 18.3369C36.378 18.6567 35.5925 19.0076 34.5114 19.3325C32.4409 19.9546 29.5732 20.3965 26.4601 20.46C25.7794 19.1325 24.8926 17.9264 23.8426 16.8834C24.5412 16.9286 25.2665 16.9535 26.0171 16.9535C30.0245 16.9535 33.3753 16.4067 35.7781 15.5571ZM37.2497 18.0063C37.2498 18.0063 37.2491 18.0075 37.2475 18.01C37.2488 18.0075 37.2496 18.0063 37.2497 18.0063ZM35.3747 22.2056C36.0292 22.0089 36.6483 21.7871 37.2091 21.5392L37.2091 24.8647C37.1684 24.9108 37.0847 24.9914 36.9239 25.1032C36.5074 25.3929 35.8073 25.7167 34.8058 26.0199C33.077 26.5433 30.7012 26.9311 27.9876 27.0726C27.9892 26.9839 27.9901 26.895 27.9901 26.8058C27.9901 25.6402 27.8461 24.5075 27.575 23.4243C30.5119 23.2886 33.2495 22.8441 35.3747 22.2056ZM37.2433 24.819C37.2436 24.819 37.2422 24.8219 37.2383 24.8277C37.2412 24.8218 37.2431 24.8189 37.2433 24.819ZM3 26.8058C3 20.6998 7.92094 15.776 14.0258 15.7714C20.0688 15.8455 24.9901 20.7819 24.9901 26.8058C24.9901 32.9147 20.0645 37.8403 13.9556 37.8403C7.93173 37.8403 3 32.9209 3 26.8058ZM37.2382 4.88416C37.2409 4.87837 37.2428 4.87552 37.2431 4.87555C37.2434 4.87558 37.242 4.87846 37.2382 4.88416ZM14.796 4.88421C14.7922 4.87849 14.7908 4.87558 14.7911 4.87555C14.7913 4.87552 14.7932 4.87838 14.796 4.88421ZM13.1159 19.1047C12.7229 19.1047 12.3663 19.3349 12.2045 19.6931L10.2017 24.1279H9.14591C8.58498 24.1279 8.04386 24.347 7.64242 24.7421C7.24044 25.1377 7.01163 25.6777 7.01163 26.2441V30.1511C7.01163 30.7176 7.24044 31.2576 7.64242 31.6532C8.04386 32.0482 8.58498 32.2674 9.14591 32.2674H10.8473H17.24C17.7479 32.2715 18.2427 32.0958 18.6337 31.7687C19.0265 31.4402 19.2885 30.9802 19.3671 30.4718L19.3673 30.4708L20.1497 25.4493L20.1499 25.4477C20.197 25.1421 20.176 24.8301 20.0886 24.5336C20.0011 24.2372 19.8496 23.9642 19.6454 23.7332C19.4414 23.5022 19.1897 23.3188 18.9086 23.1947C18.6295 23.0714 18.3273 23.0091 18.0226 23.0116H15.8173V21.7791C15.8173 21.0646 15.5287 20.3826 15.0204 19.8823C14.5126 19.3826 13.8272 19.1047 13.1159 19.1047ZM9.14591 26.1279H9.84732V30.2674H9.14591C9.10518 30.2674 9.06927 30.2513 9.04528 30.2277C9.02182 30.2046 9.01163 30.1767 9.01163 30.1511V26.2441C9.01163 26.2185 9.02182 26.1906 9.04528 26.1676C9.06927 26.1439 9.10518 26.1279 9.14591 26.1279ZM17.2446 30.2674H11.8473V25.3432L13.6528 21.3453C13.76 21.4678 13.8173 21.6219 13.8173 21.7791V24.0116C13.8173 24.5639 14.265 25.0116 14.8173 25.0116H18.0273V25.0117L18.0384 25.0115C18.0604 25.0113 18.0816 25.0158 18.1006 25.0241C18.1194 25.0325 18.135 25.0442 18.1467 25.0575C18.1584 25.0707 18.1661 25.0852 18.1703 25.0995C18.1745 25.1137 18.1755 25.1283 18.1733 25.1425L18.1733 25.1429L17.3908 30.1646L17.3906 30.1662C17.387 30.1898 17.3743 30.2147 17.3505 30.2347C17.3262 30.255 17.2927 30.2678 17.2558 30.2674L17.2558 30.2674H17.2446Z" fill="white"/>
</svg>
