<svg width="46" height="43" viewBox="0 0 46 43" fill="none" xmlns="http://www.w3.org/2000/svg">
<path fill-rule="evenodd" clip-rule="evenodd" d="M28 0.5C27.1716 0.5 26.5 1.17157 26.5 2C26.5 2.82843 27.1716 3.5 28 3.5C31.8456 3.5 35.5338 5.02767 38.253 7.74695C40.9723 10.4662 42.5 14.1544 42.5 18C42.5 18.8284 43.1716 19.5 44 19.5C44.8284 19.5 45.5 18.8284 45.5 18C45.5 13.3587 43.6563 8.90752 40.3744 5.62563C37.0925 2.34374 32.6413 0.5 28 0.5ZM28 7.5C27.1716 7.5 26.5 8.17157 26.5 9C26.5 9.82843 27.1716 10.5 28 10.5C29.9891 10.5 31.8968 11.2902 33.3033 12.6967C34.7098 14.1032 35.5 16.0109 35.5 18C35.5 18.8284 36.1716 19.5 37 19.5C37.8284 19.5 38.5 18.8284 38.5 18C38.5 15.2152 37.3938 12.5445 35.4246 10.5754C33.4555 8.60625 30.7848 7.5 28 7.5ZM29.5 17C29.5 17.2761 29.2761 17.5 29 17.5C28.7239 17.5 28.5 17.2761 28.5 17C28.5 16.7239 28.7239 16.5 29 16.5C29.2761 16.5 29.5 16.7239 29.5 17ZM29 14.5C27.6193 14.5 26.5 15.6193 26.5 17C26.5 18.3807 27.6193 19.5 29 19.5C30.3807 19.5 31.5 18.3807 31.5 17C31.5 15.6193 30.3807 14.5 29 14.5ZM3.5 9C3.5 7.61929 4.61929 6.5 6 6.5H22C22.8284 6.5 23.5 5.82843 23.5 5C23.5 4.17157 22.8284 3.5 22 3.5H6C2.96243 3.5 0.5 5.96243 0.5 9V29C0.5 32.0376 2.96243 34.5 6 34.5H20.5V39.5H14C13.1716 39.5 12.5 40.1716 12.5 41C12.5 41.8284 13.1716 42.5 14 42.5H22H30C30.8284 42.5 31.5 41.8284 31.5 41C31.5 40.1716 30.8284 39.5 30 39.5H23.5V34.5H38C41.0376 34.5 43.5 32.0376 43.5 29V26C43.5 25.1716 42.8284 24.5 42 24.5C41.1716 24.5 40.5 25.1716 40.5 26V29C40.5 30.3807 39.3807 31.5 38 31.5H22H6C4.61929 31.5 3.5 30.3807 3.5 29V9Z" fill="white"/>
</svg>
