<svg class="logo" width="118" height="40" viewBox="0 0 118 40" fill="none" xmlns="http://www.w3.org/2000/svg"><path d="M6.8476 26.8893C5.85662 26.8893 4.99147 26.732 4.25217 26.4174C3.5286 26.0871 2.923 25.6388 2.43537 25.0725C1.96348 24.4905 1.60169 23.8141 1.35002 23.0433C1.11407 22.2726 0.996094 21.4389 0.996094 20.5423C0.996094 19.6457 1.11407 18.8041 1.35002 18.0176C1.60169 17.2312 1.96348 16.5548 2.43537 15.9885C2.923 15.4065 3.5286 14.9503 4.25217 14.62C4.99147 14.2897 5.85662 14.1245 6.8476 14.1245C7.83858 14.1245 8.70372 14.2897 9.44302 14.62C10.1823 14.9503 10.7958 15.4065 11.2834 15.9885C11.771 16.5548 12.1328 17.2312 12.3688 18.0176C12.6047 18.8041 12.7227 19.6457 12.7227 20.5423C12.7227 21.4389 12.6047 22.2726 12.3688 23.0433C12.1328 23.8141 11.771 24.4905 11.2834 25.0725C10.7958 25.6388 10.1823 26.0871 9.44302 26.4174C8.70372 26.732 7.83858 26.8893 6.8476 26.8893ZM6.8476 24.341C7.72847 24.341 8.35766 24.0186 8.73518 23.3737C9.12842 22.713 9.32505 21.7692 9.32505 20.5423C9.32505 19.3154 9.12842 18.3794 8.73518 17.7345C8.35766 17.0739 7.72847 16.7435 6.8476 16.7435C5.98245 16.7435 5.35326 17.0739 4.96001 17.7345C4.5825 18.3794 4.39374 19.3154 4.39374 20.5423C4.39374 21.7692 4.5825 22.713 4.96001 23.3737C5.35326 24.0186 5.98245 24.341 6.8476 24.341Z" fill="var(--pr-1)"></path><path d="M15.3671 14.4076C15.5874 14.3605 15.8076 14.329 16.0278 14.3133C16.248 14.2818 16.4918 14.2661 16.7592 14.2661C17.0266 14.2661 17.2626 14.2818 17.4671 14.3133C17.6716 14.329 17.8839 14.3605 18.1041 14.4076C18.1513 14.4863 18.1907 14.6043 18.2221 14.7616C18.2693 14.9031 18.3086 15.0604 18.3401 15.2335C18.3715 15.3908 18.3951 15.5481 18.4109 15.7054C18.4423 15.8627 18.4659 15.9964 18.4817 16.1065C18.639 15.8705 18.8277 15.6346 19.0479 15.3986C19.2682 15.1627 19.5198 14.9503 19.803 14.7616C20.1018 14.5728 20.4322 14.4234 20.7939 14.3133C21.1557 14.1874 21.5568 14.1245 21.9973 14.1245C23.3815 14.1245 24.4197 14.502 25.1118 15.2571C25.8196 16.0121 26.1735 17.1997 26.1735 18.8199V26.6061C25.6073 26.7005 25.0489 26.7477 24.4983 26.7477C23.9478 26.7477 23.3894 26.7005 22.8231 26.6061V19.7165C22.8231 18.8671 22.6894 18.2143 22.422 17.7581C22.1703 17.3019 21.722 17.0739 21.0771 17.0739C20.8097 17.0739 20.5344 17.1132 20.2513 17.1918C19.9681 17.2705 19.7086 17.4278 19.4726 17.6637C19.2524 17.8839 19.0715 18.1985 18.93 18.6075C18.7884 19.0165 18.7176 19.5513 18.7176 20.212V26.6061C18.1513 26.7005 17.5929 26.7477 17.0424 26.7477C16.4918 26.7477 15.9334 26.7005 15.3671 26.6061V14.4076Z" fill="var(--pr-1)"></path><path d="M74.5244 21.2972C73.6435 21.0455 72.9514 20.6759 72.448 20.1883C71.9604 19.6849 71.7166 18.9377 71.7166 17.9468C71.7166 16.7513 72.1413 15.8154 72.9907 15.139C73.8558 14.4626 75.0277 14.1244 76.5063 14.1244C77.1198 14.1244 77.7254 14.1795 78.3231 14.2896C78.9208 14.3997 79.5264 14.5648 80.1399 14.7851C80.1084 15.194 80.0298 15.6187 79.904 16.0592C79.7781 16.4996 79.6287 16.885 79.4557 17.2153C79.0781 17.058 78.6613 16.9243 78.2051 16.8142C77.749 16.6884 77.2692 16.6254 76.7659 16.6254C76.231 16.6254 75.8142 16.712 75.5153 16.885C75.2165 17.0423 75.067 17.3018 75.067 17.6636C75.067 18.0097 75.1693 18.2535 75.3738 18.3951C75.594 18.5366 75.9007 18.6703 76.294 18.7962L77.6389 19.1973C78.0793 19.3231 78.4725 19.4804 78.8186 19.6692C79.1804 19.8422 79.4871 20.0624 79.7388 20.3298C79.9905 20.5972 80.1871 20.9276 80.3287 21.3208C80.4702 21.714 80.541 22.1938 80.541 22.7601C80.541 23.3421 80.4152 23.8848 80.1635 24.3881C79.9276 24.8915 79.5736 25.3319 79.1017 25.7094C78.6456 26.0712 78.0872 26.3622 77.4265 26.5824C76.7659 26.7869 76.0187 26.8892 75.185 26.8892C74.8075 26.8892 74.4614 26.8734 74.1468 26.842C73.8322 26.8262 73.5255 26.7869 73.2266 26.724C72.9435 26.6768 72.6604 26.6139 72.3772 26.5352C72.0941 26.4566 71.7874 26.3544 71.457 26.2285C71.4885 25.8038 71.5593 25.3791 71.6694 24.9544C71.7952 24.514 71.9525 24.0893 72.1413 23.6803C72.6604 23.8848 73.148 24.0421 73.6042 24.1522C74.076 24.2466 74.5637 24.2937 75.067 24.2937C75.2872 24.2937 75.5232 24.278 75.7749 24.2466C76.0423 24.1994 76.2861 24.1286 76.5063 24.0342C76.7265 23.9241 76.9074 23.7904 77.049 23.6331C77.2063 23.4601 77.2849 23.2398 77.2849 22.9724C77.2849 22.5949 77.167 22.3275 76.931 22.1702C76.7108 21.9972 76.3962 21.8478 75.9872 21.7219L74.5244 21.2972Z" fill="var(--pr-1)"></path><path d="M82.9468 14.3839C83.167 14.3368 83.3793 14.3053 83.5838 14.2896C83.804 14.2738 84.0478 14.266 84.3153 14.266C84.7557 14.266 85.204 14.3132 85.6602 14.4075C85.7073 14.4862 85.7467 14.6042 85.7781 14.7615C85.8253 14.903 85.8646 15.0603 85.8961 15.2334C85.9433 15.4064 85.9748 15.5794 85.9905 15.7524C86.0219 15.9097 86.0455 16.0434 86.0613 16.1535C86.2028 15.9019 86.3759 15.6581 86.5804 15.4221C86.7848 15.1704 87.0287 14.9502 87.3118 14.7615C87.6107 14.5727 87.941 14.4233 88.3028 14.3132C88.6646 14.1873 89.0657 14.1244 89.5061 14.1244C90.1825 14.1244 90.8117 14.2502 91.3937 14.5019C91.9914 14.7536 92.5105 15.139 92.9509 15.6581C93.3914 16.1614 93.7296 16.7985 93.9655 17.5692C94.2172 18.34 94.343 19.2523 94.343 20.3062C94.343 21.3287 94.1936 22.2489 93.8947 23.0668C93.5959 23.869 93.1633 24.5533 92.597 25.1196C92.0307 25.6858 91.3386 26.1263 90.5207 26.4409C89.7027 26.7397 88.7747 26.8892 87.7365 26.8892C87.4691 26.8892 87.2017 26.8734 86.9343 26.842C86.6826 26.8262 86.4702 26.8027 86.2972 26.7712V32.198C85.9983 32.2452 85.7073 32.2766 85.4242 32.2924C85.1568 32.3081 84.8894 32.316 84.622 32.316C84.3546 32.316 84.0793 32.3081 83.7962 32.2924C83.5288 32.2766 83.2456 32.2452 82.9468 32.198V14.3839ZM86.2972 24.0106C86.7219 24.1364 87.2095 24.1994 87.7601 24.1994C88.7353 24.1994 89.4825 23.8848 90.0016 23.2556C90.5207 22.6264 90.7802 21.6747 90.7802 20.4006C90.7802 19.913 90.7409 19.4647 90.6622 19.0557C90.5836 18.631 90.4499 18.2692 90.2611 17.9703C90.0724 17.6715 89.8286 17.4355 89.5297 17.2625C89.2466 17.0895 88.8926 17.003 88.4679 17.003C88.0747 17.003 87.7365 17.0816 87.4534 17.2389C87.186 17.3805 86.9657 17.585 86.7927 17.8524C86.6197 18.104 86.4938 18.4029 86.4152 18.749C86.3365 19.095 86.2972 19.4647 86.2972 19.8579V24.0106Z" fill="var(--pr-1)"></path><path d="M102.125 26.8892C101.134 26.8892 100.269 26.7319 99.5296 26.4173C98.8061 26.0869 98.2005 25.6386 97.7128 25.0724C97.2409 24.4904 96.8792 23.814 96.6275 23.0432C96.3915 22.2725 96.2736 21.4388 96.2736 20.5422C96.2736 19.6456 96.3915 18.804 96.6275 18.0175C96.8792 17.231 97.2409 16.5547 97.7128 15.9884C98.2005 15.4064 98.8061 14.9502 99.5296 14.6199C100.269 14.2896 101.134 14.1244 102.125 14.1244C103.116 14.1244 103.981 14.2896 104.72 14.6199C105.46 14.9502 106.073 15.4064 106.561 15.9884C107.049 16.5547 107.41 17.231 107.646 18.0175C107.882 18.804 108 19.6456 108 20.5422C108 21.4388 107.882 22.2725 107.646 23.0432C107.41 23.814 107.049 24.4904 106.561 25.0724C106.073 25.6386 105.46 26.0869 104.72 26.4173C103.981 26.7319 103.116 26.8892 102.125 26.8892ZM102.125 24.3409C103.006 24.3409 103.635 24.0185 104.013 23.3735C104.406 22.7129 104.603 21.7691 104.603 20.5422C104.603 19.3152 104.406 18.3793 104.013 17.7344C103.635 17.0737 103.006 16.7434 102.125 16.7434C101.26 16.7434 100.631 17.0737 100.237 17.7344C99.86 18.3793 99.6712 19.3152 99.6712 20.5422C99.6712 21.7691 99.86 22.7129 100.237 23.3735C100.631 24.0185 101.26 24.3409 102.125 24.3409Z" fill="var(--pr-1)"></path><path d="M110.975 16.9558H109.441L109.323 16.4839L113.736 10.8447H114.278V14.4075H117.133C117.18 14.6435 117.212 14.8558 117.228 15.0446C117.243 15.2334 117.251 15.43 117.251 15.6345C117.251 15.8547 117.243 16.067 117.228 16.2715C117.212 16.476 117.18 16.7041 117.133 16.9558H114.278V21.7455C114.278 22.2331 114.318 22.6264 114.396 22.9252C114.475 23.2241 114.585 23.4601 114.727 23.6331C114.884 23.8061 115.073 23.9241 115.293 23.987C115.513 24.0499 115.773 24.0814 116.071 24.0814C116.307 24.0814 116.535 24.0657 116.756 24.0342C116.992 23.987 117.196 23.9477 117.369 23.9162C117.479 24.2151 117.558 24.5297 117.605 24.86C117.652 25.1746 117.676 25.4577 117.676 25.7094C117.676 25.8825 117.668 26.0319 117.652 26.1577C117.652 26.2678 117.644 26.3779 117.629 26.4881C116.905 26.6611 116.158 26.7476 115.387 26.7476C113.956 26.7476 112.863 26.4173 112.107 25.7566C111.352 25.0802 110.975 23.987 110.975 22.4769V16.9558Z" fill="var(--pr-1)"></path><rect x="29" width="40" height="40" rx="20" fill="#F91250"></rect><path fill-rule="evenodd" clip-rule="evenodd" d="M41.6291 9.74788C41.8966 9.70068 42.1719 9.66922 42.4551 9.65348C42.7383 9.63775 43.0136 9.62988 43.2811 9.62988C43.5486 9.62988 43.8239 9.63775 44.1071 9.65348C44.3903 9.66922 44.6735 9.70068 44.9567 9.74788V16.2379C45.0668 16.0963 45.2084 15.9311 45.3815 15.7423C45.5703 15.5378 45.7984 15.349 46.0659 15.1759C46.3334 14.9871 46.6559 14.8298 47.0335 14.7039C47.4111 14.578 47.8438 14.5151 48.3315 14.5151C49.6846 14.5151 50.7072 14.8927 51.3995 15.6479C52.1075 16.4031 52.4615 17.591 52.4615 19.2115V27.0231C52.1783 27.0703 51.8951 27.1018 51.6119 27.1175C51.3287 27.1332 51.0534 27.1411 50.7859 27.1411C50.5184 27.1411 50.2431 27.1332 49.9599 27.1175C49.6767 27.1018 49.3935 27.0703 49.1103 27.0231V20.1083C49.1103 19.2587 48.9766 18.6058 48.7091 18.1495C48.4416 17.6932 47.9854 17.4651 47.3403 17.4651C47.0728 17.4651 46.7975 17.5044 46.5143 17.5831C46.2311 17.6617 45.9715 17.8191 45.7355 18.0551C45.5152 18.2754 45.3264 18.59 45.1691 18.9991C45.0275 19.4082 44.9567 19.9431 44.9567 20.6039V27.0231C44.6735 27.0703 44.3903 27.1018 44.1071 27.1175C43.8239 27.1332 43.5486 27.1411 43.2811 27.1411C43.0136 27.1411 42.7383 27.1332 42.4551 27.1175C42.1876 27.1018 41.9123 27.0703 41.6291 27.0231V9.74788ZM32.9723 17.3471H31.4383L31.3203 16.8751L35.7335 11.2347H36.2763V14.7983H39.1319C39.1791 15.0343 39.2106 15.2467 39.2263 15.4355C39.242 15.6243 39.2499 15.821 39.2499 16.0255C39.2499 16.2458 39.242 16.4582 39.2263 16.6627C39.2106 16.8672 39.1791 17.0953 39.1319 17.3471H36.2763V22.1379C36.2763 22.6256 36.3156 23.019 36.3943 23.3179C36.473 23.6168 36.5831 23.8528 36.7247 24.0259C36.882 24.199 37.0708 24.317 37.2911 24.3799C37.5114 24.4428 37.771 24.4743 38.0699 24.4743C38.3059 24.4743 38.534 24.4586 38.7543 24.4271C38.9903 24.3799 39.1948 24.3406 39.3679 24.3091C39.478 24.608 39.5567 24.9227 39.6039 25.2531C39.6511 25.5678 39.6747 25.851 39.6747 26.1027C39.6747 26.2758 39.6668 26.4252 39.6511 26.5511C39.6511 26.6612 39.6432 26.7714 39.6275 26.8815C38.9038 27.0546 38.1564 27.1411 37.3855 27.1411C35.9538 27.1411 34.8603 26.8107 34.1051 26.1499C33.3499 25.4734 32.9723 24.3799 32.9723 22.8695V17.3471ZM58.1712 21.9255C58.2341 22.8695 58.5645 23.5539 59.1624 23.9787C59.7603 24.4035 60.5469 24.6159 61.5224 24.6159C62.0573 24.6159 62.6001 24.5687 63.1508 24.4743C63.7172 24.3642 64.2521 24.2147 64.7556 24.0259C64.9287 24.3406 65.0781 24.7182 65.204 25.1587C65.3299 25.5992 65.4007 26.0712 65.4164 26.5747C64.1892 27.0467 62.8047 27.2827 61.2628 27.2827C60.13 27.2827 59.1545 27.1253 58.3364 26.8107C57.534 26.496 56.8732 26.0634 56.354 25.5127C55.8505 24.9463 55.4729 24.2776 55.2212 23.5067C54.9852 22.7358 54.8672 21.894 54.8672 20.9815C54.8672 20.0847 54.9931 19.243 55.2448 18.4563C55.4965 17.6696 55.8663 16.9852 56.354 16.4031C56.8575 15.821 57.4711 15.3647 58.1948 15.0343C58.9343 14.6881 59.7917 14.5151 60.7672 14.5151C61.6168 14.5151 62.372 14.6646 63.0328 14.9635C63.6936 15.2624 64.2521 15.6715 64.7084 16.1907C65.1804 16.7099 65.5344 17.3314 65.7704 18.0551C66.0064 18.7631 66.1244 19.5262 66.1244 20.3443C66.1244 20.6432 66.1087 20.9422 66.0772 21.2411C66.0615 21.5243 66.0379 21.7524 66.0064 21.9255H58.1712ZM62.962 19.5892C62.9306 18.834 62.7182 18.2282 62.3248 17.772C61.9472 17.3 61.4123 17.064 60.72 17.064C59.9334 17.064 59.3355 17.2842 58.9264 17.7248C58.5174 18.1653 58.2735 18.7868 58.1948 19.5892H62.962Z" fill="var(--light)"></path></svg>