<svg width="116" height="78" viewBox="0 0 116 78" fill="none" xmlns="http://www.w3.org/2000/svg">
<g clip-path="url(#clip0_99_1307)">
<path d="M58.3728 9.58719C56.3073 4.22104 51.2541 -3.14426 38.3201 2.90176C25.9556 8.67664 8.86677 26.8066 3.32822 36.9359C-2.21032 47.0652 0.0115128 55.6567 3.8536 63.3134C8.08872 71.7633 17.1164 77.7769 26.6214 77.6312C40.7144 77.4167 53.7045 68.2384 59.997 63.3377C66.6746 58.1334 69.8589 51.8729 67.1238 39.6716C65.3912 32.019 59.4315 12.3431 58.3728 9.58719Z" fill="#55D769"/>
<path d="M24.1471 45.8471C24.1471 49.4893 20.71 50.3917 16.0859 50.7883V41.6383H18.9173C22.8436 41.6383 24.131 42.8524 24.131 45.843L24.1471 45.8471ZM95.4904 51.1566C95.4904 47.8422 96.6454 46.8912 102.216 46.8912H103.219V43.7913H102.489C96.1281 43.7913 92.2659 45.0822 92.2659 50.9461V52.4516C92.2659 57.1783 93.9704 60.6465 101.638 60.6465H103.223V57.5466H101.883C95.5546 57.5466 95.4944 54.908 95.4944 52.4516L95.4904 51.1566ZM70.7254 60.3996H73.9338V38.6922H70.7254V60.3996ZM12.709 38.6922V60.3996H16.0859V53.9246C22.5348 53.1153 27.6162 51.4965 27.6162 45.8309C27.6162 40.7642 25.1216 38.676 18.2155 38.676L12.709 38.6922ZM47.9095 46.3044C47.7297 45.489 47.4607 44.6964 47.1074 43.941H44.7331C44.919 45.0776 45.0008 46.2291 44.9778 47.3808V60.3996H48.1862V50.1125C48.1862 47.2554 51.928 46.9802 53.9373 46.875V43.8358C49.1607 44.0219 47.6408 45.2481 47.0312 46.4136L47.9095 46.3044ZM116 57.5425H115.599C109.668 57.5425 108.753 55.9238 108.753 52.4475V46.9316H115.996V43.9532H108.757V39.3357H105.549V52.5689C105.549 59.0439 109.198 60.6141 115.254 60.6627H115.984L116 57.5425ZM80.1902 51.1282C80.1902 48.089 81.5578 46.4622 84.3893 46.4622C86.4266 46.4622 87.2809 47.2716 87.2809 48.9187C87.2809 50.7317 86.0015 51.2537 84.1767 51.2537H79.0031L79.5205 53.6494H84.1446C87.734 53.6494 90.2888 52.5446 90.2888 48.951C90.2888 45.3574 88.0068 43.763 84.3853 43.763C79.9135 43.763 77.0219 46.4622 77.0219 51.0999V52.4516C77.0219 57.2107 78.7264 60.6465 86.3905 60.6465H88.6725V57.5466H86.8156C80.9763 57.5466 80.1822 55.859 80.1822 52.5123L80.1902 51.1282ZM64.5812 49.9142C63.5786 50.4646 61.449 50.59 59.8649 50.8369C57.1257 51.2416 54.571 52.0024 54.571 55.5353C54.571 59.3434 57.2781 60.5696 59.925 60.5696C62.572 60.5696 64.4288 59.6469 65.4034 58.1738L64.2002 56.7291C63.715 57.1581 62.8326 58.0808 60.3662 58.1091C58.6336 58.1091 57.5989 57.1581 57.5989 55.5312C57.5989 53.8113 58.6336 53.2609 60.4584 53.0141C62.1629 52.7672 64.3526 52.7065 65.3272 52.0307C65.3272 51.626 64.6294 49.728 64.5652 49.9142H64.5812ZM60.3822 43.8439C58.6176 43.8439 57.3102 43.937 55.9105 44.0584V46.9316C57.3102 46.8102 58.6176 46.7172 60.3822 46.7172C63.1896 46.7172 64.2163 47.393 64.2163 51.3225V57.065C64.327 58.2152 64.6365 59.3369 65.1307 60.3794H67.5049C67.2924 59.6105 67.2924 57.5466 67.2924 56.9719V51.3832C67.2924 45.5193 65.255 43.8317 60.3862 43.8317L60.3822 43.8439ZM38.8737 49.9142C37.8711 50.4646 35.7415 50.59 34.1573 50.8369C31.4181 51.2416 28.8634 52.0024 28.8634 55.5353C28.8634 59.3434 31.5706 60.5696 34.2175 60.5696C36.8645 60.5696 38.7213 59.6469 39.6919 58.1738L38.4887 56.7291C38.0034 57.1581 37.1211 58.0808 34.6547 58.1091C32.9221 58.1091 31.8874 57.1581 31.8874 55.5312C31.8874 53.8113 32.9221 53.2609 34.7469 53.0141C36.4514 52.7672 38.6411 52.7065 39.6157 52.0307C39.6157 51.626 38.9178 49.728 38.8577 49.9142H38.8737ZM34.6747 43.8439C32.9101 43.8439 31.6026 43.937 30.203 44.0584V46.9316C31.6026 46.8102 32.9101 46.7172 34.6747 46.7172C37.4821 46.7172 38.5088 47.393 38.5088 51.3225V57.065C38.6193 58.2152 38.9288 59.337 39.4232 60.3794H41.7974C41.5849 59.6105 41.5849 57.5466 41.5849 56.9719V51.3832C41.5808 45.5395 39.5435 43.852 34.6747 43.852V43.8439Z" fill="white"/>
</g>
<defs>
<clipPath id="clip0_99_1307">
<rect width="116" height="77" fill="white" transform="translate(0 0.633789)"/>
</clipPath>
</defs>
</svg>
