<svg width="1440" height="5476" viewBox="0 0 1440 5476" fill="none" xmlns="http://www.w3.org/2000/svg">
<path d="M136 4357L140.958 4367.2L152 4368.85L144 4376.77L145.896 4388L136 4382.71L126.123 4388L128 4376.77L120 4368.85L131.062 4367.2L136 4357Z" fill="#E6E5BF"/>
<path d="M734 3556L738.958 3566.21L750 3567.84L742 3575.79L743.896 3587L734 3581.71L724.123 3587L726 3575.79L718 3567.84L729.062 3566.21L734 3556Z" fill="#E6E5BF"/>
<path d="M1396.61 3645L1399.89 3656.15L1411 3659.8L1401.34 3666.36L1401.3 3678L1392.03 3670.89L1380.9 3674.44L1384.84 3663.48L1378 3654.04L1389.68 3654.38L1396.61 3645Z" fill="#F2B21B"/>
<path d="M407.594 3941L410.892 3952.17L422 3955.82L412.329 3962.36L412.288 3974L403.042 3966.89L391.914 3970.46L395.839 3959.5L389 3950.06L400.695 3950.4L407.594 3941Z" fill="#F2B21B"/>
<path d="M1182 3581.48C1182 3582.37 1181.74 3583.24 1181.25 3583.99C1180.76 3584.73 1180.06 3585.31 1179.24 3585.65C1178.41 3586 1177.51 3586.09 1176.63 3585.92C1175.76 3585.74 1174.96 3585.32 1174.33 3584.69C1173.69 3584.06 1173.26 3583.26 1173.09 3582.39C1172.91 3581.51 1173 3580.61 1173.34 3579.78C1173.68 3578.96 1174.26 3578.26 1175 3577.76C1175.74 3577.26 1176.61 3577 1177.5 3577C1178.69 3577 1179.83 3577.47 1180.67 3578.31C1181.52 3579.15 1181.99 3580.29 1182 3581.48Z" fill="#EFC950"/>
<path d="M486.5 4088C488.985 4088 491 4085.99 491 4083.5C491 4081.01 488.985 4079 486.5 4079C484.015 4079 482 4081.01 482 4083.5C482 4085.99 484.015 4088 486.5 4088Z" fill="#EFC950"/>
<path d="M403.5 4361C405.985 4361 408 4358.99 408 4356.5C408 4354.01 405.985 4352 403.5 4352C401.015 4352 399 4354.01 399 4356.5C399 4358.99 401.015 4361 403.5 4361Z" fill="#EFC950"/>
<path d="M1074 3439.98C1074 3440.97 1073.74 3441.94 1073.25 3442.76C1072.76 3443.59 1072.06 3444.23 1071.24 3444.61C1070.41 3444.99 1069.51 3445.1 1068.63 3444.91C1067.76 3444.72 1066.96 3444.24 1066.33 3443.54C1065.69 3442.84 1065.26 3441.95 1065.09 3440.98C1064.91 3440.01 1065 3439.01 1065.34 3438.09C1065.68 3437.18 1066.26 3436.39 1067 3435.84C1067.74 3435.29 1068.61 3435 1069.5 3435C1070.69 3435 1071.83 3435.52 1072.67 3436.46C1073.52 3437.39 1073.99 3438.66 1074 3439.98Z" fill="#EFC950"/>
<path d="M857 3497.48C857.004 3498.37 856.743 3499.24 856.25 3499.99C855.757 3500.73 855.054 3501.31 854.231 3501.65C853.408 3502 852.502 3502.09 851.627 3501.91C850.752 3501.74 849.949 3501.31 849.318 3500.68C848.687 3500.05 848.259 3499.25 848.086 3498.37C847.913 3497.5 848.003 3496.59 848.346 3495.77C848.689 3494.95 849.269 3494.24 850.012 3493.75C850.755 3493.26 851.628 3493 852.52 3493C853.708 3493 854.848 3493.47 855.688 3494.31C856.528 3495.15 857 3496.29 857 3497.48Z" fill="#EFC950"/>
<path d="M760.5 3799C762.985 3799 765 3796.99 765 3794.5C765 3792.01 762.985 3790 760.5 3790C758.015 3790 756 3792.01 756 3794.5C756 3796.99 758.015 3799 760.5 3799Z" fill="#EFC950"/>
<path d="M617 3866.52C616.996 3867.41 616.729 3868.28 616.232 3869.01C615.735 3869.75 615.031 3870.33 614.208 3870.66C613.386 3871 612.482 3871.09 611.61 3870.91C610.738 3870.74 609.938 3870.31 609.311 3869.67C608.684 3869.04 608.257 3868.24 608.085 3867.37C607.913 3866.5 608.003 3865.59 608.344 3864.77C608.686 3863.95 609.262 3863.25 610.002 3862.76C610.742 3862.26 611.611 3862 612.5 3862C613.093 3862 613.679 3862.12 614.227 3862.34C614.774 3862.57 615.271 3862.91 615.689 3863.33C616.107 3863.75 616.438 3864.24 616.663 3864.79C616.888 3865.34 617.003 3865.93 617 3866.52Z" fill="#EFC950"/>
<path d="M835 4327.48C835.004 4328.37 834.743 4329.24 834.251 4329.99C833.759 4330.73 833.058 4331.31 832.236 4331.65C831.414 4332 830.508 4332.09 829.634 4331.92C828.76 4331.74 827.956 4331.32 827.325 4330.69C826.694 4330.06 826.263 4329.26 826.088 4328.39C825.913 4327.51 826.001 4326.61 826.341 4325.78C826.681 4324.96 827.257 4324.26 827.998 4323.76C828.738 4323.26 829.609 4323 830.5 4323C831.69 4323 832.832 4323.47 833.675 4324.31C834.518 4325.15 834.995 4326.29 835 4327.48Z" fill="#EFC950"/>
<path d="M1033 4072.5C1033 4073.39 1032.74 4074.26 1032.24 4075C1031.75 4075.74 1031.04 4076.32 1030.22 4076.66C1029.4 4077 1028.5 4077.09 1027.62 4076.91C1026.75 4076.74 1025.95 4076.31 1025.32 4075.68C1024.69 4075.05 1024.26 4074.25 1024.09 4073.38C1023.91 4072.51 1024 4071.6 1024.34 4070.78C1024.68 4069.96 1025.26 4069.25 1026 4068.76C1026.74 4068.26 1027.61 4068 1028.5 4068C1029.69 4068 1030.84 4068.47 1031.68 4069.32C1032.53 4070.16 1033 4071.31 1033 4072.5Z" fill="#EFC950"/>
<path d="M238 4378.48C238.004 4379.37 237.743 4380.24 237.25 4380.99C236.757 4381.73 236.054 4382.31 235.231 4382.65C234.408 4383 233.502 4383.09 232.627 4382.91C231.752 4382.74 230.949 4382.31 230.318 4381.68C229.687 4381.05 229.259 4380.25 229.086 4379.37C228.913 4378.5 229.003 4377.59 229.346 4376.77C229.689 4375.95 230.269 4375.24 231.012 4374.75C231.755 4374.26 232.628 4374 233.52 4374C234.708 4374 235.848 4374.47 236.688 4375.31C237.528 4376.15 238 4377.29 238 4378.48Z" fill="#EFC950"/>
<path d="M645.5 4034C647.985 4034 650 4031.99 650 4029.5C650 4027.01 647.985 4025 645.5 4025C643.015 4025 641 4027.01 641 4029.5C641 4031.99 643.015 4034 645.5 4034Z" fill="#EFC950"/>
<path d="M637.5 3568C639.985 3568 642 3565.99 642 3563.5C642 3561.01 639.985 3559 637.5 3559C635.015 3559 633 3561.01 633 3563.5C633 3565.99 635.015 3568 637.5 3568Z" fill="#EFC950"/>
<path d="M150 4080.5C150 4081.39 149.736 4082.26 149.242 4083C148.747 4083.74 148.044 4084.32 147.222 4084.66C146.4 4085 145.495 4085.09 144.622 4084.91C143.749 4084.74 142.947 4084.31 142.318 4083.68C141.689 4083.05 141.26 4082.25 141.086 4081.38C140.913 4080.5 141.002 4079.6 141.343 4078.78C141.683 4077.96 142.26 4077.25 143 4076.76C143.74 4076.26 144.61 4076 145.5 4076C146.693 4076 147.838 4076.47 148.682 4077.32C149.526 4078.16 150 4079.31 150 4080.5Z" fill="#EFC950"/>
<path d="M1301.24 3982.14C1302.2 3982.36 1303.06 3982.83 1303.72 3983.49C1304.38 3984.16 1304.81 3984.98 1304.95 3985.86C1305.09 3986.74 1304.94 3987.64 1304.51 3988.44C1304.08 3989.25 1303.4 3989.92 1302.55 3990.37C1301.7 3990.82 1300.72 3991.04 1299.73 3990.99C1298.74 3990.95 1297.79 3990.63 1297 3990.1C1296.21 3989.57 1295.61 3988.84 1295.28 3988C1294.96 3987.16 1294.91 3986.25 1295.16 3985.39C1295.32 3984.81 1295.6 3984.28 1296 3983.8C1296.39 3983.33 1296.89 3982.93 1297.45 3982.63C1298.02 3982.33 1298.64 3982.13 1299.29 3982.05C1299.94 3981.96 1300.6 3981.99 1301.24 3982.14Z" fill="#EFC950"/>
<path d="M1349.63 4247.15C1350.49 4247.37 1351.27 4247.84 1351.86 4248.51C1352.45 4249.17 1352.83 4249.99 1352.96 4250.88C1353.08 4251.76 1352.94 4252.65 1352.55 4253.45C1352.17 4254.25 1351.55 4254.92 1350.79 4255.37C1350.02 4255.83 1349.14 4256.04 1348.25 4255.99C1347.37 4255.94 1346.51 4255.63 1345.8 4255.1C1345.09 4254.57 1344.55 4253.84 1344.26 4253C1343.96 4252.16 1343.92 4251.25 1344.14 4250.39C1344.28 4249.82 1344.54 4249.28 1344.9 4248.8C1345.25 4248.33 1345.7 4247.93 1346.21 4247.63C1346.72 4247.32 1347.29 4247.13 1347.88 4247.04C1348.46 4246.96 1349.06 4247 1349.63 4247.15Z" fill="#EFC950"/>
<path d="M987.597 3621.14C988.461 3621.35 989.242 3621.82 989.84 3622.48C990.437 3623.15 990.825 3623.97 990.953 3624.85C991.081 3625.73 990.945 3626.64 990.561 3627.44C990.176 3628.24 989.561 3628.92 988.794 3629.37C988.027 3629.83 987.143 3630.04 986.252 3629.99C985.362 3629.94 984.507 3629.63 983.794 3629.1C983.082 3628.56 982.545 3627.82 982.251 3626.98C981.957 3626.14 981.92 3625.23 982.145 3624.37C982.444 3623.22 983.184 3622.23 984.206 3621.63C985.227 3621.02 986.445 3620.85 987.597 3621.14Z" fill="#EFC950"/>
<path d="M573.616 4259.14C574.478 4259.36 575.255 4259.83 575.85 4260.49C576.444 4261.16 576.828 4261.98 576.955 4262.86C577.081 4263.74 576.943 4264.64 576.558 4265.44C576.174 4266.25 575.56 4266.92 574.794 4267.37C574.029 4267.82 573.146 4268.04 572.257 4267.99C571.369 4267.95 570.514 4267.64 569.802 4267.1C569.09 4266.57 568.552 4265.84 568.256 4265C567.96 4264.16 567.92 4263.25 568.14 4262.39C568.286 4261.81 568.544 4261.28 568.898 4260.8C569.253 4260.33 569.697 4259.93 570.206 4259.63C570.714 4259.33 571.277 4259.13 571.862 4259.05C572.447 4258.96 573.043 4258.99 573.616 4259.14Z" fill="#EFC950"/>
<path d="M1225.62 4170.14C1226.48 4170.36 1227.26 4170.83 1227.85 4171.49C1228.44 4172.16 1228.83 4172.98 1228.95 4173.86C1229.08 4174.74 1228.94 4175.64 1228.56 4176.44C1228.17 4177.25 1227.56 4177.92 1226.79 4178.37C1226.03 4178.82 1225.15 4179.04 1224.26 4178.99C1223.37 4178.95 1222.51 4178.63 1221.8 4178.1C1221.09 4177.57 1220.55 4176.84 1220.26 4176C1219.96 4175.16 1219.92 4174.25 1220.14 4173.39C1220.29 4172.81 1220.54 4172.28 1220.9 4171.8C1221.25 4171.33 1221.7 4170.93 1222.21 4170.63C1222.71 4170.33 1223.28 4170.13 1223.86 4170.05C1224.45 4169.96 1225.04 4169.99 1225.62 4170.14Z" fill="#EFC950"/>
<path d="M1195.62 4359.14C1196.48 4359.36 1197.26 4359.84 1197.85 4360.5C1198.45 4361.16 1198.83 4361.99 1198.96 4362.87C1199.08 4363.75 1198.94 4364.65 1198.55 4365.45C1198.17 4366.26 1197.55 4366.93 1196.78 4367.38C1196.02 4367.83 1195.13 4368.04 1194.24 4367.99C1193.35 4367.94 1192.5 4367.63 1191.79 4367.09C1191.08 4366.56 1190.54 4365.82 1190.25 4364.98C1189.96 4364.14 1189.92 4363.23 1190.14 4362.37C1190.44 4361.21 1191.19 4360.23 1192.22 4359.62C1193.24 4359.02 1194.47 4358.85 1195.62 4359.14Z" fill="#EFC950"/>
<path d="M1311.63 4439.15C1312.49 4439.37 1313.27 4439.84 1313.86 4440.51C1314.45 4441.17 1314.83 4441.99 1314.96 4442.88C1315.08 4443.76 1314.94 4444.65 1314.55 4445.45C1314.17 4446.25 1313.55 4446.92 1312.79 4447.37C1312.02 4447.83 1311.14 4448.04 1310.25 4447.99C1309.37 4447.94 1308.51 4447.63 1307.8 4447.1C1307.09 4446.57 1306.55 4445.84 1306.26 4445C1305.96 4444.16 1305.92 4443.25 1306.14 4442.39C1306.29 4441.82 1306.54 4441.28 1306.9 4440.8C1307.25 4440.33 1307.7 4439.93 1308.21 4439.63C1308.72 4439.32 1309.29 4439.13 1309.88 4439.04C1310.46 4438.96 1311.06 4439 1311.63 4439.15Z" fill="#EFC950"/>
<path d="M1148.5 1093L1152.99 1101.88L1163 1103.32L1155.75 1110.22L1157.47 1120L1148.5 1115.37L1139.55 1120L1141.25 1110.22L1134 1103.32L1144.02 1101.88L1148.5 1093Z" fill="#E6E5BF"/>
<path d="M1300 1439L1304.34 1447.89L1314 1449.31L1307 1456.23L1308.66 1466L1300 1461.39L1291.36 1466L1293 1456.23L1286 1449.31L1295.68 1447.89L1300 1439Z" fill="#E6E5BF"/>
<path d="M170.34 1750L173.239 1760.16L183 1763.47L174.501 1769.42L174.465 1780L166.34 1773.54L156.56 1776.78L160.01 1766.82L154 1758.24L164.277 1758.55L170.34 1750Z" fill="#F2B21B"/>
<path d="M241 1880C243.209 1880 245 1878.21 245 1876C245 1873.79 243.209 1872 241 1872C238.791 1872 237 1873.79 237 1876C237 1878.21 238.791 1880 241 1880Z" fill="#EFC950"/>
<path d="M167 2121C169.209 2121 171 2119.21 171 2117C171 2114.79 169.209 2113 167 2113C164.791 2113 163 2114.79 163 2117C163 2119.21 164.791 2121 167 2121Z" fill="#EFC950"/>
<path d="M1149 1061C1149 1061.79 1148.77 1062.56 1148.33 1063.22C1147.89 1063.88 1147.26 1064.39 1146.53 1064.7C1145.8 1065 1145 1065.08 1144.22 1064.92C1143.44 1064.77 1142.73 1064.39 1142.17 1063.83C1141.61 1063.27 1141.23 1062.56 1141.08 1061.78C1140.92 1061 1141 1060.2 1141.3 1059.47C1141.61 1058.74 1142.12 1058.11 1142.78 1057.67C1143.44 1057.23 1144.21 1057 1145 1057C1146.06 1057 1147.08 1057.42 1147.83 1058.17C1148.58 1058.92 1149 1059.94 1149 1061Z" fill="#EFC950"/>
<path d="M1152 1691.02C1152 1691.81 1151.76 1692.58 1151.32 1693.24C1150.88 1693.89 1150.25 1694.4 1149.52 1694.7C1148.79 1695 1147.98 1695.08 1147.21 1694.92C1146.43 1694.76 1145.72 1694.38 1145.17 1693.82C1144.61 1693.26 1144.23 1692.55 1144.08 1691.77C1143.92 1691 1144 1690.2 1144.31 1689.47C1144.61 1688.74 1145.12 1688.11 1145.78 1687.67C1146.44 1687.23 1147.21 1687 1148 1687C1148.53 1687 1149.05 1687.1 1149.53 1687.31C1150.02 1687.51 1150.46 1687.8 1150.83 1688.18C1151.21 1688.55 1151.5 1688.99 1151.7 1689.48C1151.9 1689.97 1152 1690.49 1152 1691.02Z" fill="#EFC950"/>
<path d="M1328 1163.02C1328 1163.81 1327.76 1164.58 1327.32 1165.24C1326.88 1165.89 1326.25 1166.4 1325.52 1166.7C1324.79 1167 1323.98 1167.08 1323.21 1166.92C1322.43 1166.76 1321.72 1166.38 1321.17 1165.82C1320.61 1165.26 1320.23 1164.55 1320.08 1163.77C1319.92 1163 1320 1162.2 1320.31 1161.47C1320.61 1160.74 1321.12 1160.11 1321.78 1159.67C1322.44 1159.23 1323.21 1159 1324 1159C1324.53 1159 1325.05 1159.1 1325.53 1159.31C1326.02 1159.51 1326.46 1159.8 1326.83 1160.18C1327.21 1160.55 1327.5 1160.99 1327.7 1161.48C1327.9 1161.97 1328 1162.49 1328 1163.02Z" fill="#EFC950"/>
<path d="M1093.99 1893.12C1094.76 1893.32 1095.45 1893.74 1095.98 1894.33C1096.51 1894.92 1096.85 1895.65 1096.96 1896.43C1097.07 1897.22 1096.95 1898.01 1096.61 1898.73C1096.27 1899.44 1095.72 1900.04 1095.04 1900.44C1094.36 1900.84 1093.57 1901.04 1092.78 1900.99C1091.99 1900.95 1091.23 1900.68 1090.6 1900.2C1089.97 1899.73 1089.49 1899.08 1089.23 1898.33C1088.96 1897.58 1088.93 1896.78 1089.12 1896.01C1089.25 1895.5 1089.48 1895.02 1089.8 1894.6C1090.11 1894.18 1090.51 1893.83 1090.96 1893.56C1091.41 1893.29 1091.91 1893.11 1092.43 1893.04C1092.95 1892.97 1093.48 1892.99 1093.99 1893.12Z" fill="#EFC950"/>
<path d="M1269.99 1365.12C1270.76 1365.32 1271.45 1365.74 1271.98 1366.33C1272.51 1366.92 1272.85 1367.65 1272.96 1368.43C1273.07 1369.22 1272.95 1370.01 1272.61 1370.73C1272.27 1371.44 1271.72 1372.04 1271.04 1372.44C1270.36 1372.84 1269.57 1373.04 1268.78 1372.99C1267.99 1372.95 1267.23 1372.68 1266.6 1372.2C1265.97 1371.73 1265.49 1371.08 1265.23 1370.33C1264.96 1369.58 1264.93 1368.78 1265.12 1368.01C1265.25 1367.5 1265.48 1367.02 1265.8 1366.6C1266.11 1366.18 1266.51 1365.83 1266.96 1365.56C1267.41 1365.29 1267.91 1365.11 1268.43 1365.04C1268.95 1364.97 1269.48 1364.99 1269.99 1365.12Z" fill="#EFC950"/>
<path d="M1141.01 1417.13C1141.77 1417.33 1142.46 1417.75 1142.99 1418.34C1143.51 1418.93 1143.85 1419.66 1143.96 1420.44C1144.07 1421.23 1143.95 1422.02 1143.6 1422.74C1143.26 1423.45 1142.71 1424.04 1142.03 1424.44C1141.35 1424.85 1140.57 1425.04 1139.78 1424.99C1138.99 1424.95 1138.23 1424.67 1137.6 1424.2C1136.97 1423.73 1136.49 1423.08 1136.23 1422.33C1135.97 1421.59 1135.93 1420.78 1136.12 1420.01C1136.25 1419.5 1136.48 1419.02 1136.8 1418.6C1137.12 1418.18 1137.51 1417.82 1137.97 1417.56C1138.42 1417.29 1138.92 1417.11 1139.44 1417.04C1139.97 1416.97 1140.5 1417 1141.01 1417.13Z" fill="#EFC950"/>
<path d="M1265.99 1120.12C1266.76 1120.32 1267.45 1120.74 1267.98 1121.33C1268.51 1121.92 1268.85 1122.65 1268.96 1123.43C1269.07 1124.22 1268.95 1125.01 1268.61 1125.73C1268.27 1126.44 1267.72 1127.04 1267.04 1127.44C1266.36 1127.84 1265.57 1128.04 1264.78 1127.99C1263.99 1127.95 1263.23 1127.68 1262.6 1127.2C1261.97 1126.73 1261.49 1126.08 1261.23 1125.33C1260.96 1124.58 1260.93 1123.78 1261.12 1123.01C1261.25 1122.5 1261.48 1122.02 1261.8 1121.6C1262.11 1121.18 1262.51 1120.83 1262.96 1120.56C1263.41 1120.29 1263.91 1120.11 1264.43 1120.04C1264.95 1119.97 1265.48 1119.99 1265.99 1120.12Z" fill="#EFC950"/>
<path d="M1089.99 1648.12C1090.76 1648.32 1091.45 1648.74 1091.98 1649.33C1092.51 1649.92 1092.85 1650.65 1092.96 1651.43C1093.07 1652.22 1092.95 1653.01 1092.61 1653.73C1092.27 1654.44 1091.72 1655.04 1091.04 1655.44C1090.36 1655.84 1089.57 1656.04 1088.78 1655.99C1087.99 1655.95 1087.23 1655.68 1086.6 1655.2C1085.97 1654.73 1085.49 1654.08 1085.23 1653.33C1084.96 1652.58 1084.93 1651.78 1085.12 1651.01C1085.25 1650.5 1085.48 1650.02 1085.8 1649.6C1086.11 1649.18 1086.51 1648.83 1086.96 1648.56C1087.41 1648.29 1087.91 1648.11 1088.43 1648.04C1088.95 1647.97 1089.48 1647.99 1089.99 1648.12Z" fill="#EFC950"/>
<path d="M1114.99 1237.12C1115.76 1237.32 1116.45 1237.74 1116.98 1238.33C1117.51 1238.91 1117.85 1239.65 1117.96 1240.43C1118.07 1241.21 1117.95 1242.01 1117.61 1242.73C1117.27 1243.44 1116.72 1244.04 1116.04 1244.44C1115.36 1244.84 1114.57 1245.04 1113.78 1244.99C1112.99 1244.95 1112.23 1244.68 1111.6 1244.2C1110.97 1243.73 1110.49 1243.07 1110.23 1242.33C1109.96 1241.58 1109.93 1240.77 1110.12 1240.01C1110.39 1238.98 1111.05 1238.1 1111.96 1237.56C1112.88 1237.02 1113.96 1236.86 1114.99 1237.12Z" fill="#EFC950"/>
<path d="M1114.99 2090.12C1115.76 2090.32 1116.45 2090.74 1116.98 2091.33C1117.51 2091.92 1117.85 2092.65 1117.96 2093.43C1118.07 2094.22 1117.95 2095.01 1117.61 2095.73C1117.27 2096.44 1116.72 2097.04 1116.04 2097.44C1115.36 2097.84 1114.57 2098.04 1113.78 2097.99C1112.99 2097.95 1112.23 2097.68 1111.6 2097.2C1110.97 2096.73 1110.49 2096.08 1110.23 2095.33C1109.96 2094.58 1109.93 2093.78 1110.12 2093.01C1110.25 2092.5 1110.48 2092.02 1110.8 2091.6C1111.11 2091.18 1111.51 2090.83 1111.96 2090.56C1112.41 2090.29 1112.91 2090.11 1113.43 2090.04C1113.95 2089.97 1114.48 2089.99 1114.99 2090.12Z" fill="#EFC950"/>
<path d="M1290.99 1562.12C1291.76 1562.32 1292.45 1562.74 1292.98 1563.33C1293.51 1563.92 1293.85 1564.65 1293.96 1565.43C1294.07 1566.22 1293.95 1567.01 1293.61 1567.73C1293.27 1568.44 1292.72 1569.04 1292.04 1569.44C1291.36 1569.84 1290.57 1570.04 1289.78 1569.99C1288.99 1569.95 1288.23 1569.68 1287.6 1569.2C1286.97 1568.73 1286.49 1568.08 1286.23 1567.33C1285.96 1566.58 1285.93 1565.78 1286.12 1565.01C1286.25 1564.5 1286.48 1564.02 1286.8 1563.6C1287.11 1563.18 1287.51 1562.83 1287.96 1562.56C1288.41 1562.29 1288.91 1562.11 1289.43 1562.04C1289.95 1561.97 1290.48 1561.99 1290.99 1562.12Z" fill="#EFC950"/>
<path d="M999.158 2682.44L1001.25 2677.18L998.106 2672.49L1003.75 2672.85L1007.25 2668.41L1008.65 2673.89L1013.95 2675.85L1009.17 2678.87L1008.95 2684.52L1004.6 2680.91L999.158 2682.44Z" fill="#E6E5BF"/>
<path d="M1249.13 2674.92L1252.16 2670L1249.84 2664.71L1255.45 2666.08L1259.76 2662.23L1260.19 2667.99L1265.19 2670.89L1259.85 2673.09L1258.63 2678.74L1254.88 2674.33L1249.13 2674.92Z" fill="#F2B21B"/>
<path d="M859.985 2508.98C860.317 2508.68 860.732 2508.48 861.177 2508.41C861.621 2508.35 862.075 2508.41 862.481 2508.61C862.888 2508.8 863.228 2509.11 863.459 2509.49C863.69 2509.88 863.801 2510.32 863.778 2510.77C863.756 2511.22 863.601 2511.65 863.333 2512.01C863.064 2512.37 862.695 2512.65 862.272 2512.8C861.848 2512.95 861.39 2512.97 860.954 2512.86C860.518 2512.75 860.125 2512.51 859.825 2512.18C859.423 2511.73 859.214 2511.15 859.244 2510.55C859.274 2509.95 859.54 2509.38 859.985 2508.98Z" fill="#EFC950"/>
<path d="M1276.97 2597C1276.14 2596.07 1274.71 2595.99 1273.78 2596.83C1272.85 2597.66 1272.78 2599.09 1273.61 2600.02C1274.45 2600.95 1275.88 2601.02 1276.81 2600.19C1277.73 2599.35 1277.81 2597.92 1276.97 2597Z" fill="#EFC950"/>
<path d="M1405.29 2537.02C1404.45 2536.09 1403.02 2536.02 1402.09 2536.85C1401.17 2537.69 1401.09 2539.12 1401.93 2540.04C1402.76 2540.97 1404.19 2541.05 1405.12 2540.21C1406.05 2539.38 1406.12 2537.95 1405.29 2537.02Z" fill="#EFC950"/>
<path d="M843.613 2595.47C843.946 2595.17 844.361 2594.97 844.805 2594.91C845.25 2594.84 845.704 2594.91 846.11 2595.1C846.516 2595.29 846.856 2595.6 847.087 2595.99C847.318 2596.37 847.43 2596.82 847.407 2597.26C847.385 2597.71 847.229 2598.15 846.961 2598.51C846.693 2598.87 846.324 2599.14 845.9 2599.29C845.477 2599.44 845.018 2599.46 844.583 2599.35C844.147 2599.24 843.754 2599 843.453 2598.67C843.051 2598.22 842.843 2597.64 842.873 2597.04C842.903 2596.44 843.169 2595.88 843.613 2595.47Z" fill="#EFC950"/>
<path d="M1080.15 2592.02C1079.32 2591.09 1077.89 2591.02 1076.96 2591.85C1076.04 2592.69 1075.96 2594.11 1076.8 2595.04C1077.63 2595.97 1079.06 2596.04 1079.99 2595.21C1080.92 2594.37 1080.99 2592.94 1080.15 2592.02Z" fill="#EFC950"/>
<path d="M1152.35 2622.43C1152.69 2622.14 1153.1 2621.94 1153.54 2621.88C1153.99 2621.82 1154.44 2621.89 1154.84 2622.08C1155.24 2622.28 1155.58 2622.58 1155.8 2622.97C1156.03 2623.35 1156.14 2623.8 1156.12 2624.24C1156.09 2624.69 1155.94 2625.12 1155.67 2625.47C1155.4 2625.83 1155.03 2626.1 1154.61 2626.25C1154.19 2626.4 1153.73 2626.42 1153.3 2626.31C1152.87 2626.2 1152.48 2625.96 1152.18 2625.63C1151.98 2625.41 1151.83 2625.15 1151.73 2624.87C1151.63 2624.59 1151.59 2624.29 1151.6 2624C1151.62 2623.7 1151.69 2623.41 1151.82 2623.14C1151.95 2622.87 1152.13 2622.63 1152.35 2622.43Z" fill="#EFC950"/>
<path d="M1249.81 2389.14C1250.15 2388.84 1250.56 2388.64 1251.01 2388.57C1251.45 2388.51 1251.9 2388.57 1252.31 2388.77C1252.72 2388.96 1253.06 2389.27 1253.29 2389.65C1253.52 2390.04 1253.63 2390.48 1253.61 2390.93C1253.59 2391.38 1253.43 2391.81 1253.16 2392.17C1252.89 2392.53 1252.52 2392.81 1252.1 2392.96C1251.68 2393.11 1251.22 2393.13 1250.78 2393.02C1250.35 2392.91 1249.95 2392.67 1249.65 2392.34C1249.25 2391.89 1249.04 2391.3 1249.07 2390.71C1249.1 2390.11 1249.37 2389.54 1249.81 2389.14Z" fill="#EFC950"/>
<path d="M1090.16 2401.09C1090.49 2400.79 1090.9 2400.6 1091.35 2400.53C1091.79 2400.47 1092.24 2400.54 1092.64 2400.73C1093.05 2400.92 1093.38 2401.23 1093.61 2401.61C1093.84 2402 1093.95 2402.44 1093.93 2402.89C1093.9 2403.33 1093.75 2403.76 1093.48 2404.12C1093.21 2404.48 1092.85 2404.75 1092.42 2404.9C1092 2405.05 1091.55 2405.07 1091.11 2404.96C1090.68 2404.85 1090.29 2404.62 1089.99 2404.28C1089.59 2403.84 1089.38 2403.25 1089.41 2402.65C1089.44 2402.05 1089.71 2401.49 1090.16 2401.09Z" fill="#EFC950"/>
<path d="M1204.72 2556.45C1203.89 2555.52 1202.46 2555.45 1201.53 2556.28C1200.6 2557.12 1200.53 2558.55 1201.36 2559.48C1202.2 2560.4 1203.63 2560.48 1204.55 2559.64C1205.48 2558.81 1205.56 2557.38 1204.72 2556.45Z" fill="#EFC950"/>
<path d="M1035.71 2714.09C1034.88 2713.16 1033.45 2713.09 1032.52 2713.92C1031.59 2714.76 1031.52 2716.19 1032.35 2717.11C1033.19 2718.04 1034.62 2718.12 1035.55 2717.28C1036.47 2716.45 1036.55 2715.02 1035.71 2714.09Z" fill="#EFC950"/>
<path d="M1385.93 2723.53C1386.26 2723.23 1386.67 2723.04 1387.11 2722.98C1387.56 2722.91 1388.01 2722.98 1388.41 2723.17C1388.81 2723.37 1389.15 2723.67 1389.38 2724.06C1389.61 2724.44 1389.72 2724.88 1389.7 2725.33C1389.67 2725.78 1389.52 2726.21 1389.25 2726.56C1388.98 2726.92 1388.61 2727.19 1388.19 2727.34C1387.77 2727.49 1387.32 2727.51 1386.88 2727.4C1386.45 2727.29 1386.06 2727.06 1385.76 2726.73C1385.36 2726.28 1385.15 2725.69 1385.18 2725.09C1385.21 2724.5 1385.48 2723.93 1385.93 2723.53Z" fill="#EFC950"/>
<path d="M938.924 2567.47C938.713 2567.07 938.626 2566.62 938.672 2566.17C938.718 2565.73 938.896 2565.3 939.184 2564.96C939.471 2564.61 939.855 2564.36 940.286 2564.23C940.717 2564.1 941.177 2564.11 941.606 2564.24C942.036 2564.37 942.416 2564.63 942.698 2564.98C942.98 2565.33 943.152 2565.76 943.191 2566.21C943.231 2566.65 943.136 2567.1 942.92 2567.5C942.703 2567.89 942.375 2568.21 941.976 2568.42C941.444 2568.7 940.825 2568.75 940.254 2568.57C939.682 2568.39 939.204 2568 938.924 2567.47Z" fill="#EFC950"/>
<path d="M1311.2 2508.21C1310.99 2507.82 1310.91 2507.37 1310.95 2506.93C1311 2506.48 1311.18 2506.06 1311.47 2505.72C1311.75 2505.37 1312.13 2505.12 1312.56 2505C1312.99 2504.87 1313.45 2504.87 1313.88 2505.01C1314.3 2505.14 1314.68 2505.4 1314.96 2505.75C1315.24 2506.09 1315.41 2506.52 1315.45 2506.96C1315.49 2507.41 1315.4 2507.85 1315.19 2508.25C1314.97 2508.64 1314.65 2508.96 1314.25 2509.17C1313.99 2509.3 1313.7 2509.39 1313.41 2509.42C1313.11 2509.44 1312.81 2509.41 1312.53 2509.32C1312.25 2509.23 1311.98 2509.09 1311.75 2508.9C1311.53 2508.71 1311.34 2508.48 1311.2 2508.21Z" fill="#EFC950"/>
<path d="M1062.29 2297.49C1062.08 2297.09 1062 2296.64 1062.04 2296.2C1062.09 2295.76 1062.27 2295.34 1062.56 2294.99C1062.84 2294.65 1063.22 2294.4 1063.65 2294.27C1064.08 2294.15 1064.54 2294.15 1064.97 2294.28C1065.39 2294.42 1065.77 2294.67 1066.05 2295.02C1066.33 2295.37 1066.5 2295.79 1066.54 2296.24C1066.58 2296.68 1066.49 2297.13 1066.28 2297.52C1066.06 2297.91 1065.74 2298.23 1065.34 2298.44C1065.08 2298.58 1064.79 2298.66 1064.5 2298.69C1064.2 2298.72 1063.9 2298.69 1063.62 2298.6C1063.33 2298.51 1063.07 2298.37 1062.84 2298.18C1062.62 2297.99 1062.43 2297.75 1062.29 2297.49Z" fill="#EFC950"/>
<path d="M1141.84 2246.24C1141.64 2245.84 1141.55 2245.39 1141.6 2244.95C1141.65 2244.5 1141.83 2244.08 1142.11 2243.74C1142.4 2243.4 1142.78 2243.15 1143.21 2243.02C1143.64 2242.9 1144.1 2242.9 1144.52 2243.04C1144.95 2243.17 1145.33 2243.43 1145.61 2243.78C1145.89 2244.13 1146.06 2244.55 1146.1 2245C1146.14 2245.44 1146.04 2245.89 1145.83 2246.28C1145.61 2246.67 1145.28 2246.99 1144.89 2247.2C1144.36 2247.47 1143.74 2247.53 1143.17 2247.35C1142.6 2247.17 1142.12 2246.77 1141.84 2246.24Z" fill="#EFC950"/>
<path d="M1365.81 4527.13L1370.82 4537.26L1382 4538.9L1373.9 4546.78L1375.82 4557.94L1365.81 4552.66L1355.81 4557.94L1357.71 4546.78L1349.61 4538.9L1360.81 4537.26L1365.81 4527.13Z" fill="#E6E5BF"/>
<path d="M-0.806007 5444.71L4.21212 5454.84L15.388 5456.48L7.29096 5464.36L9.21026 5475.52L-0.806007 5470.26L-10.8023 5475.52L-8.903 5464.36L-17 5456.48L-5.80415 5454.84L-0.806007 5444.71Z" fill="#E6E5BF"/>
<path d="M1133.91 5193.26L1138.93 5203.4L1150.11 5205.02L1142.01 5212.91L1143.93 5224.05L1133.91 5218.79L1123.92 5224.05L1125.82 5212.91L1117.72 5205.02L1128.91 5203.4L1133.91 5193.26Z" fill="#E6E5BF"/>
<path d="M591.394 4650.78L596.412 4660.92L607.588 4662.54L599.491 4670.44L601.41 4681.57L591.394 4676.31L581.397 4681.57L583.297 4670.44L575.2 4662.54L586.396 4660.92L591.394 4650.78Z" fill="#E6E5BF"/>
<path d="M1247.51 4770L1250.75 4781.08L1261.72 4784.69L1252.19 4791.21L1252.15 4802.77L1242.99 4795.71L1232 4799.23L1235.89 4788.35L1229.14 4778.98L1240.67 4779.32L1247.51 4770Z" fill="#F2B21B"/>
<path d="M76.3732 5032.18L79.632 5043.28L90.6079 5046.9L81.0514 5053.39L81.0115 5064.95L71.8748 5057.89L60.8789 5061.43L64.7575 5050.55L58 5041.18L69.5557 5041.52L76.3732 5032.18Z" fill="#F2B21B"/>
<path d="M797.017 4866.66L800.276 4877.76L811.252 4881.38L801.696 4887.87L801.656 4899.43L792.519 4892.37L781.523 4895.91L785.402 4885.04L778.644 4875.66L790.2 4876L797.017 4866.66Z" fill="#F2B21B"/>
<path d="M1035.29 4676.13C1035.29 4677.03 1035.03 4677.91 1034.53 4678.66C1034.04 4679.41 1033.33 4679.99 1032.5 4680.34C1031.67 4680.69 1030.76 4680.78 1029.88 4680.61C1029 4680.43 1028.19 4680 1027.55 4679.37C1026.91 4678.74 1026.48 4677.93 1026.3 4677.05C1026.12 4676.16 1026.21 4675.25 1026.56 4674.42C1026.9 4673.59 1027.48 4672.88 1028.23 4672.38C1028.97 4671.88 1029.85 4671.61 1030.75 4671.61C1031.95 4671.61 1033.1 4672.09 1033.95 4672.94C1034.8 4673.78 1035.28 4674.93 1035.29 4676.13Z" fill="#EFC950"/>
<path d="M346.605 5177.81C349.1 5177.81 351.123 5175.78 351.123 5173.29C351.123 5170.79 349.1 5168.77 346.605 5168.77C344.109 5168.77 342.086 5170.79 342.086 5173.29C342.086 5175.78 344.109 5177.81 346.605 5177.81Z" fill="#EFC950"/>
<path d="M264.015 5448.67C266.511 5448.67 268.534 5446.64 268.534 5444.15C268.534 5441.65 266.511 5439.63 264.015 5439.63C261.52 5439.63 259.497 5441.65 259.497 5444.15C259.497 5446.64 261.52 5448.67 264.015 5448.67Z" fill="#EFC950"/>
<path d="M928.708 4536.09C928.712 4536.98 928.45 4537.86 927.953 4538.61C927.457 4539.36 926.75 4539.95 925.921 4540.29C925.092 4540.64 924.179 4540.73 923.297 4540.56C922.415 4540.39 921.605 4539.96 920.968 4539.32C920.332 4538.69 919.897 4537.88 919.721 4537C919.544 4536.12 919.633 4535.2 919.975 4534.37C920.318 4533.54 920.9 4532.83 921.647 4532.33C922.393 4531.83 923.272 4531.57 924.17 4531.57C925.37 4531.57 926.522 4532.04 927.372 4532.89C928.223 4533.74 928.703 4534.89 928.708 4536.09Z" fill="#EFC950"/>
<path d="M713.608 4593C713.612 4593.9 713.349 4594.78 712.852 4595.53C712.355 4596.28 711.646 4596.87 710.816 4597.21C709.986 4597.56 709.072 4597.65 708.19 4597.48C707.307 4597.3 706.497 4596.87 705.861 4596.23C705.225 4595.6 704.793 4594.79 704.618 4593.9C704.444 4593.02 704.535 4592.11 704.881 4591.28C705.227 4590.45 705.812 4589.74 706.561 4589.24C707.311 4588.74 708.191 4588.48 709.09 4588.49C710.288 4588.49 711.438 4588.96 712.285 4589.81C713.132 4590.66 713.608 4591.81 713.608 4593Z" fill="#EFC950"/>
<path d="M617.344 4892.09C619.84 4892.09 621.863 4890.07 621.863 4887.57C621.863 4885.08 619.84 4883.06 617.344 4883.06C614.849 4883.06 612.826 4885.08 612.826 4887.57C612.826 4890.07 614.849 4892.09 617.344 4892.09Z" fill="#EFC950"/>
<path d="M475.557 4958.65C475.553 4959.54 475.285 4960.41 474.786 4961.15C474.287 4961.89 473.58 4962.47 472.754 4962.81C471.928 4963.15 471.02 4963.23 470.145 4963.06C469.27 4962.88 468.466 4962.45 467.837 4961.82C467.207 4961.18 466.778 4960.38 466.606 4959.5C466.433 4958.63 466.524 4957.72 466.866 4956.89C467.209 4956.07 467.788 4955.37 468.53 4954.87C469.273 4954.37 470.146 4954.11 471.039 4954.11C471.634 4954.11 472.223 4954.23 472.772 4954.46C473.322 4954.68 473.821 4955.02 474.241 4955.44C474.66 4955.86 474.993 4956.36 475.219 4956.91C475.445 4957.46 475.559 4958.05 475.557 4958.65Z" fill="#EFC950"/>
<path d="M691.716 5415.58C691.72 5416.48 691.458 5417.36 690.961 5418.11C690.465 5418.86 689.758 5419.44 688.929 5419.79C688.1 5420.13 687.187 5420.23 686.305 5420.05C685.423 5419.88 684.613 5419.45 683.976 5418.82C683.34 5418.18 682.905 5417.37 682.728 5416.49C682.552 5415.61 682.641 5414.7 682.983 5413.87C683.326 5413.04 683.908 5412.33 684.655 5411.83C685.401 5411.33 686.28 5411.06 687.178 5411.06C688.378 5411.06 689.53 5411.54 690.38 5412.38C691.231 5413.23 691.711 5414.38 691.716 5415.58Z" fill="#EFC950"/>
<path d="M579.798 5289.02C579.802 5289.92 579.539 5290.8 579.043 5291.55C578.547 5292.3 577.839 5292.89 577.01 5293.23C576.182 5293.58 575.268 5293.67 574.387 5293.5C573.505 5293.33 572.695 5292.89 572.058 5292.26C571.421 5291.63 570.987 5290.82 570.81 5289.94C570.633 5289.06 570.722 5288.14 571.065 5287.31C571.408 5286.48 571.99 5285.77 572.736 5285.27C573.483 5284.77 574.361 5284.51 575.26 5284.51C576.46 5284.51 577.611 5284.98 578.462 5285.83C579.312 5286.68 579.793 5287.82 579.798 5289.02Z" fill="#EFC950"/>
<path d="M701.753 5299.02C701.757 5299.92 701.494 5300.8 700.998 5301.55C700.501 5302.3 699.794 5302.88 698.965 5303.23C698.136 5303.57 697.223 5303.67 696.341 5303.49C695.46 5303.32 694.649 5302.89 694.013 5302.26C693.376 5301.62 692.942 5300.81 692.765 5299.93C692.588 5299.05 692.677 5298.14 693.02 5297.31C693.363 5296.48 693.944 5295.77 694.691 5295.27C695.438 5294.77 696.316 5294.5 697.214 5294.5C698.415 5294.5 699.566 5294.98 700.416 5295.83C701.267 5296.67 701.747 5297.82 701.753 5299.02Z" fill="#EFC950"/>
<path d="M631.779 5161.07C631.783 5161.97 631.52 5162.85 631.024 5163.6C630.527 5164.35 629.82 5164.93 628.991 5165.28C628.162 5165.63 627.249 5165.72 626.367 5165.55C625.486 5165.37 624.675 5164.94 624.039 5164.31C623.402 5163.67 622.968 5162.87 622.791 5161.99C622.614 5161.1 622.703 5160.19 623.046 5159.36C623.389 5158.53 623.97 5157.82 624.717 5157.32C625.464 5156.82 626.342 5156.55 627.24 5156.55C628.441 5156.55 629.592 5157.03 630.442 5157.88C631.293 5158.72 631.773 5159.87 631.779 5161.07Z" fill="#EFC950"/>
<path d="M681.72 5037.86C681.72 5038.75 681.455 5039.63 680.959 5040.37C680.462 5041.11 679.757 5041.69 678.931 5042.03C678.105 5042.38 677.197 5042.47 676.32 5042.29C675.444 5042.12 674.639 5041.69 674.007 5041.05C673.375 5040.42 672.945 5039.62 672.77 5038.74C672.596 5037.86 672.686 5036.96 673.028 5036.13C673.37 5035.3 673.949 5034.6 674.692 5034.1C675.435 5033.61 676.308 5033.34 677.202 5033.34C678.4 5033.34 679.55 5033.82 680.397 5034.66C681.244 5035.51 681.72 5036.66 681.72 5037.86Z" fill="#EFC950"/>
<path d="M100.256 5466.18C100.26 5467.08 99.997 5467.96 99.4998 5468.71C99.0026 5469.46 98.2941 5470.04 97.464 5470.39C96.6339 5470.74 95.7198 5470.83 94.8376 5470.65C93.9554 5470.48 93.1449 5470.05 92.509 5469.41C91.8731 5468.77 91.4405 5467.96 91.266 5467.08C91.0915 5466.2 91.1831 5465.28 91.529 5464.45C91.875 5463.62 92.4598 5462.92 93.2092 5462.42C93.9585 5461.92 94.8387 5461.66 95.738 5461.66C96.9363 5461.66 98.0856 5462.14 98.9329 5462.99C99.7803 5463.83 100.256 5464.98 100.256 5466.18Z" fill="#EFC950"/>
<path d="M503.506 5124.73C506.002 5124.73 508.025 5122.7 508.025 5120.21C508.025 5117.71 506.002 5115.69 503.506 5115.69C501.011 5115.69 498.988 5117.71 498.988 5120.21C498.988 5122.7 501.011 5124.73 503.506 5124.73Z" fill="#EFC950"/>
<path d="M495.469 4662.74C497.965 4662.74 499.988 4660.71 499.988 4658.22C499.988 4655.72 497.965 4653.7 495.469 4653.7C492.974 4653.7 490.951 4655.72 490.951 4658.22C490.951 4660.71 492.974 4662.74 495.469 4662.74Z" fill="#EFC950"/>
<path d="M1164.98 4883.56C1164.98 4884.45 1164.71 4885.32 1164.21 4886.06C1163.71 4886.8 1163 4887.38 1162.18 4887.72C1161.35 4888.06 1160.44 4888.14 1159.57 4887.97C1158.69 4887.79 1157.89 4887.36 1157.26 4886.73C1156.63 4886.09 1156.2 4885.29 1156.03 4884.41C1155.86 4883.54 1155.95 4882.63 1156.29 4881.8C1156.63 4880.98 1157.21 4880.27 1157.95 4879.78C1158.7 4879.28 1159.57 4879.02 1160.46 4879.02C1161.06 4879.02 1161.65 4879.14 1162.2 4879.36C1162.75 4879.59 1163.24 4879.93 1163.66 4880.35C1164.08 4880.77 1164.42 4881.27 1164.64 4881.82C1164.87 4882.37 1164.98 4882.96 1164.98 4883.56Z" fill="#EFC950"/>
<path d="M12.8487 5170.35C12.8487 5171.24 12.5837 5172.12 12.0873 5172.86C11.5908 5173.6 10.8851 5174.18 10.0595 5174.52C9.23386 5174.87 8.3254 5174.96 7.44893 5174.78C6.57246 5174.61 5.76736 5174.18 5.13546 5173.54C4.50356 5172.91 4.07323 5172.11 3.89889 5171.23C3.72455 5170.35 3.81404 5169.45 4.15603 5168.62C4.49801 5167.79 5.07711 5167.09 5.82014 5166.59C6.56317 5166.1 7.43677 5165.83 8.33041 5165.83C9.52874 5165.83 10.678 5166.31 11.5253 5167.15C12.3727 5168 12.8487 5169.15 12.8487 5170.35Z" fill="#EFC950"/>
<path d="M947.402 4949.03C948.267 4949.25 949.048 4949.73 949.644 4950.39C950.241 4951.06 950.627 4951.88 950.754 4952.77C950.881 4953.65 950.742 4954.56 950.356 4955.36C949.97 4956.17 949.354 4956.84 948.585 4957.3C947.817 4957.75 946.93 4957.97 946.038 4957.92C945.145 4957.87 944.288 4957.56 943.572 4957.03C942.857 4956.49 942.317 4955.75 942.02 4954.91C941.723 4954.07 941.682 4953.16 941.904 4952.29C942.05 4951.72 942.309 4951.18 942.665 4950.7C943.021 4950.23 943.467 4949.83 943.978 4949.52C944.488 4949.22 945.053 4949.02 945.641 4948.94C946.228 4948.85 946.827 4948.89 947.402 4949.03Z" fill="#EFC950"/>
<path d="M995.904 5211.39C996.767 5211.62 997.545 5212.1 998.139 5212.76C998.732 5213.43 999.115 5214.26 999.239 5215.14C999.363 5216.02 999.222 5216.92 998.835 5217.73C998.448 5218.53 997.831 5219.2 997.062 5219.66C996.294 5220.11 995.408 5220.33 994.517 5220.28C993.626 5220.23 992.769 5219.92 992.055 5219.38C991.341 5218.85 990.801 5218.11 990.504 5217.27C990.207 5216.43 990.166 5215.52 990.386 5214.65C990.532 5214.08 990.792 5213.53 991.149 5213.06C991.506 5212.58 991.954 5212.18 992.467 5211.88C992.98 5211.57 993.547 5211.38 994.137 5211.29C994.727 5211.21 995.327 5211.24 995.904 5211.39Z" fill="#EFC950"/>
<path d="M1099.94 5110.09C1100.81 5110.31 1101.59 5110.79 1102.19 5111.45C1102.78 5112.12 1103.17 5112.94 1103.3 5113.83C1103.42 5114.71 1103.29 5115.62 1102.9 5116.42C1102.51 5117.23 1101.9 5117.9 1101.13 5118.36C1100.36 5118.81 1099.47 5119.03 1098.58 5118.98C1097.69 5118.93 1096.83 5118.62 1096.12 5118.09C1095.4 5117.55 1094.86 5116.81 1094.56 5115.97C1094.27 5115.13 1094.23 5114.22 1094.45 5113.35C1094.59 5112.78 1094.85 5112.24 1095.21 5111.76C1095.56 5111.29 1096.01 5110.89 1096.52 5110.58C1097.03 5110.28 1097.6 5110.08 1098.18 5110C1098.77 5109.91 1099.37 5109.95 1099.94 5110.09Z" fill="#EFC950"/>
<path d="M842.78 4715.14C843.652 4715.36 844.44 4715.83 845.043 4716.5C845.645 4717.17 846.036 4718 846.166 4718.89C846.295 4719.78 846.157 4720.68 845.77 4721.5C845.382 4722.31 844.762 4722.99 843.988 4723.44C843.215 4723.9 842.323 4724.12 841.425 4724.07C840.527 4724.02 839.664 4723.71 838.946 4723.17C838.227 4722.63 837.685 4721.88 837.389 4721.03C837.093 4720.19 837.056 4719.27 837.282 4718.4C837.584 4717.24 838.331 4716.25 839.36 4715.64C840.39 4715.03 841.619 4714.85 842.78 4715.14Z" fill="#EFC950"/>
<path d="M432.693 5347.44C433.558 5347.67 434.339 5348.14 434.936 5348.8C435.532 5349.47 435.919 5350.3 436.045 5351.18C436.172 5352.06 436.033 5352.97 435.647 5353.77C435.261 5354.58 434.645 5355.25 433.876 5355.71C433.108 5356.16 432.221 5356.38 431.329 5356.33C430.437 5356.28 429.579 5355.97 428.864 5355.44C428.148 5354.9 427.608 5354.17 427.311 5353.32C427.014 5352.48 426.974 5351.57 427.195 5350.7C427.342 5350.13 427.6 5349.59 427.956 5349.11C428.312 5348.64 428.758 5348.24 429.269 5347.93C429.779 5347.63 430.344 5347.43 430.932 5347.35C431.519 5347.26 432.118 5347.3 432.693 5347.44Z" fill="#EFC950"/>
<path d="M1358.35 4658.18C1359.21 4658.4 1359.99 4658.88 1360.58 4659.55C1361.18 4660.21 1361.56 4661.04 1361.68 4661.92C1361.81 4662.81 1361.67 4663.71 1361.28 4664.51C1360.89 4665.32 1360.28 4665.99 1359.51 4666.44C1358.74 4666.9 1357.85 4667.11 1356.96 4667.06C1356.07 4667.01 1355.21 4666.7 1354.5 4666.17C1353.79 4665.63 1353.25 4664.9 1352.95 4664.06C1352.65 4663.21 1352.61 4662.3 1352.83 4661.44C1352.98 4660.86 1353.24 4660.32 1353.59 4659.84C1353.95 4659.37 1354.4 4658.96 1354.91 4658.66C1355.42 4658.36 1355.99 4658.16 1356.58 4658.08C1357.17 4657.99 1357.77 4658.03 1358.35 4658.18Z" fill="#EFC950"/>
<path d="M1095.43 4834.82C1096.29 4835.04 1097.07 4835.51 1097.67 4836.17C1098.27 4836.84 1098.65 4837.67 1098.78 4838.55C1098.91 4839.44 1098.77 4840.34 1098.38 4841.14C1098 4841.95 1097.38 4842.62 1096.61 4843.08C1095.84 4843.53 1094.96 4843.75 1094.06 4843.7C1093.17 4843.66 1092.31 4843.34 1091.6 4842.81C1090.88 4842.27 1090.34 4841.54 1090.05 4840.69C1089.75 4839.85 1089.71 4838.94 1089.93 4838.07C1090.08 4837.5 1090.33 4836.96 1090.69 4836.48C1091.05 4836.01 1091.49 4835.61 1092 4835.31C1092.51 4835 1093.08 4834.8 1093.67 4834.72C1094.25 4834.64 1094.85 4834.67 1095.43 4834.82Z" fill="#EFC950"/>
<path d="M1328.36 4455.57C1329.23 4455.8 1330.01 4456.27 1330.6 4456.93C1331.2 4457.6 1331.59 4458.43 1331.71 4459.31C1331.84 4460.2 1331.7 4461.1 1331.31 4461.9C1330.93 4462.71 1330.31 4463.38 1329.54 4463.84C1328.77 4464.29 1327.89 4464.51 1327 4464.46C1326.1 4464.42 1325.25 4464.1 1324.53 4463.57C1323.82 4463.03 1323.28 4462.3 1322.98 4461.45C1322.68 4460.61 1322.64 4459.7 1322.86 4458.83C1323.16 4457.68 1323.91 4456.68 1324.94 4456.07C1325.97 4455.46 1327.2 4455.28 1328.36 4455.57Z" fill="#EFC950"/>
<path d="M872.909 5135.08C873.775 5135.3 874.555 5135.78 875.152 5136.44C875.749 5137.11 876.135 5137.94 876.262 5138.82C876.388 5139.7 876.25 5140.61 875.864 5141.41C875.478 5142.22 874.862 5142.89 874.093 5143.35C873.324 5143.8 872.438 5144.02 871.545 5143.97C870.653 5143.92 869.795 5143.61 869.08 5143.08C868.365 5142.54 867.825 5141.81 867.528 5140.96C867.231 5140.12 867.19 5139.21 867.411 5138.34C867.558 5137.77 867.817 5137.23 868.173 5136.75C868.529 5136.28 868.975 5135.88 869.485 5135.57C869.996 5135.27 870.561 5135.07 871.148 5134.99C871.736 5134.9 872.334 5134.94 872.909 5135.08Z" fill="#EFC950"/>
<path d="M842.6 5321.83C843.466 5322.06 844.247 5322.53 844.843 5323.2C845.439 5323.86 845.824 5324.69 845.949 5325.58C846.074 5326.46 845.934 5327.37 845.546 5328.17C845.158 5328.98 844.539 5329.65 843.769 5330.1C842.998 5330.56 842.11 5330.77 841.218 5330.72C840.325 5330.67 839.467 5330.36 838.754 5329.82C838.04 5329.28 837.502 5328.54 837.208 5327.7C836.914 5326.85 836.877 5325.94 837.102 5325.07C837.403 5323.92 838.151 5322.92 839.182 5322.32C840.213 5321.71 841.442 5321.54 842.6 5321.83Z" fill="#EFC950"/>
<path d="M1511.79 3969.77C1515.66 3982.3 1515.73 3995.7 1511.98 4008.27C1508.23 4020.84 1500.84 4032.02 1490.74 4040.39C1480.64 4048.76 1468.29 4053.95 1455.24 4055.3C1442.19 4056.65 1429.03 4054.1 1417.43 4047.98C1405.84 4041.85 1396.31 4032.42 1390.07 4020.88C1383.83 4009.34 1381.15 3996.22 1382.37 3983.15C1383.59 3970.09 1388.66 3957.69 1396.93 3947.51C1405.2 3937.32 1416.3 3929.82 1428.84 3925.95C1445.65 3920.76 1463.83 3922.46 1479.39 3930.68C1494.94 3938.9 1506.6 3952.96 1511.79 3969.77Z" fill="#FFDE6E"/>
<path d="M1460.51 4029.41C1465.22 4027.24 1470.19 4025.7 1475.3 4024.82C1477.8 4024.51 1480.89 4024.82 1482.04 4027.07C1482.39 4027.99 1482.45 4028.98 1482.21 4029.93C1481.98 4030.88 1481.45 4031.73 1480.71 4032.36C1479.2 4033.61 1477.45 4034.52 1475.56 4035.03L1453.01 4042.86C1448.42 4044.46 1439.58 4045.65 1444.71 4038.76C1448.25 4034.02 1455.31 4031.54 1460.51 4029.41Z" fill="#F4911E"/>
<path d="M1403 4029.8C1423.09 4015.33 1443.45 3999.5 1467.75 3994.62C1483.27 3991.5 1500.84 3992.57 1514.68 3986.25C1514.42 3980.68 1513.45 3975.17 1511.79 3969.85C1511.17 3967.82 1510.45 3965.83 1509.62 3963.88L1492.5 3970.48C1488.28 3972.12 1483.83 3973.78 1479.32 3973.27C1474.8 3972.76 1470.27 3969.34 1470.17 3964.8C1470.31 3962.57 1471.02 3960.4 1472.22 3958.51C1476.61 3950.43 1482.53 3943.29 1489.65 3937.47C1484.89 3933.69 1479.63 3930.59 1474.03 3928.25C1470.93 3930.44 1468.11 3932.99 1465.6 3935.83C1453.71 3949.36 1449.48 3968.97 1435.56 3980.41C1424.94 3989.14 1410.51 3991.56 1398.78 3998.7C1393.71 4001.8 1389.22 4005.74 1385.49 4010.36C1388.25 4018.71 1392.64 4026.42 1398.43 4033.04C1399.99 4031.95 1401.59 4030.89 1403 4029.8Z" fill="#F8AD40"/>
<path d="M1402.51 3989.51C1406.12 3987.83 1409.87 3986.46 1413.52 3984.84C1425.07 3979.63 1435.2 3971.72 1443.06 3961.79C1444.05 3960.67 1444.75 3959.34 1445.12 3957.89C1445.83 3954.43 1442.61 3951.13 1439.15 3950.45C1435.62 3950.1 1432.06 3950.76 1428.9 3952.38C1412.36 3959.32 1396.83 3968.44 1382.72 3979.51C1381.59 3987.09 1381.79 3994.81 1383.3 4002.33C1390.12 3998.37 1397.16 3992.05 1402.51 3989.51Z" fill="#F4911E"/>
<path d="M1492.38 3999.41C1475.79 4001.63 1458.44 4002.35 1443.62 4010.16C1434.74 4014.85 1427.22 4021.85 1420 4028.73L1408.56 4039.56C1408.19 4039.89 1407.57 4040.4 1406.79 4041.02C1411.59 4044.86 1416.9 4048.03 1422.56 4050.43C1429.9 4045.83 1434.68 4037.53 1441.36 4031.75C1447.21 4026.68 1454.44 4023.55 1461.64 4020.86C1471.93 4016.9 1482.37 4013.38 1492.95 4010.3C1499.82 4008.48 1506.58 4006.25 1513.19 4003.64C1513.79 4000.93 1514.21 3998.2 1514.46 3995.44C1507.16 3997.09 1499.8 3998.42 1492.38 3999.41Z" fill="#F8AD40"/>
<path d="M1387.46 3963.16C1391.56 3962.96 1396.42 3959.17 1399.27 3957.63C1411.6 3950.95 1423.09 3942.83 1433.51 3933.43C1436.79 3930.93 1439.19 3927.45 1440.36 3923.49C1428.84 3924.89 1417.89 3929.3 1408.61 3936.26C1399.33 3943.22 1392.03 3952.5 1387.46 3963.16Z" fill="#F4911E"/>
<g style="mix-blend-mode:multiply">
<path d="M1499.16 3946.64C1502.53 3961.15 1500.91 3976.38 1494.57 3989.86C1488.22 4003.34 1477.52 4014.3 1464.19 4020.96C1450.87 4027.62 1435.68 4029.59 1421.09 4026.57C1406.5 4023.55 1393.35 4015.7 1383.77 4004.29C1386.02 4014.08 1390.47 4023.22 1396.77 4031.03C1403.07 4038.85 1411.06 4045.13 1420.14 4049.41C1429.22 4053.69 1439.15 4055.85 1449.18 4055.74C1459.22 4055.62 1469.1 4053.23 1478.08 4048.74C1487.06 4044.26 1494.9 4037.79 1501.02 4029.84C1507.14 4021.88 1511.37 4012.64 1513.4 4002.81C1515.43 3992.98 1515.2 3982.82 1512.74 3973.09C1510.27 3963.36 1505.63 3954.31 1499.16 3946.64Z" fill="#FDD483"/>
</g>
<path d="M670.514 834.62L670.098 838.01C669.673 841.475 672.138 844.629 675.604 845.054L680.045 845.599C683.511 846.024 686.664 843.559 687.089 840.093L687.505 836.703C687.93 833.238 685.465 830.084 681.999 829.659L677.558 829.114C674.093 828.689 670.939 831.154 670.514 834.62Z" fill="#C1C1C1"/>
<path d="M741.97 809.47L745.715 799.688C746.371 797.975 745.514 796.054 743.8 795.398L735.007 792.032C733.294 791.376 731.373 792.233 730.717 793.946L726.972 803.728C726.316 805.442 727.173 807.362 728.887 808.018L737.68 811.385C739.393 812.041 741.314 811.184 741.97 809.47Z" fill="#C1C1C1"/>
<path d="M733.647 753.702L735.961 756.817C737.006 758.225 737.451 759.99 737.198 761.725C736.945 763.46 736.015 765.025 734.612 766.076L732.349 767.768C730.94 768.81 729.176 769.253 727.441 769.001C725.707 768.748 724.142 767.82 723.089 766.419L720.764 763.305C719.723 761.894 719.282 760.129 719.536 758.395C719.791 756.66 720.721 755.097 722.124 754.045L724.387 752.353C725.795 751.308 727.56 750.864 729.295 751.116C731.03 751.369 732.595 752.299 733.647 753.702Z" fill="#D5D5D5"/>
<path d="M679.521 748.164L689.989 748.524C691.822 748.587 693.36 747.152 693.423 745.318L693.747 735.908C693.81 734.075 692.374 732.537 690.541 732.474L680.073 732.114C678.239 732.051 676.702 733.486 676.638 735.32L676.315 744.73C676.252 746.563 677.687 748.101 679.521 748.164Z" fill="#D5D5D5"/>
<path d="M655.914 763.907L653.516 766.938C652.191 768.604 650.261 769.678 648.147 769.927C646.034 770.175 643.907 769.579 642.232 768.267C640.57 766.939 639.5 765.009 639.253 762.896C639.006 760.783 639.603 758.658 640.913 756.983L643.311 753.952C644.637 752.279 646.572 751.201 648.691 750.954C650.811 750.707 652.941 751.311 654.616 752.633C656.276 753.961 657.344 755.891 657.587 758.003C657.83 760.114 657.229 762.237 655.914 763.907Z" fill="#D5D5D5"/>
<path d="M742.948 789.735C742.948 800.516 739.751 811.055 733.761 820.019C727.772 828.983 719.258 835.97 709.298 840.096C699.337 844.222 688.377 845.301 677.803 843.198C667.229 841.094 657.516 835.903 649.893 828.279C642.269 820.656 637.078 810.943 634.974 800.369C632.871 789.795 633.951 778.835 638.076 768.874C642.202 758.914 649.189 750.401 658.153 744.411C667.117 738.421 677.656 735.224 688.437 735.224C702.895 735.224 716.759 740.967 726.982 751.19C737.205 761.413 742.948 775.278 742.948 789.735Z" fill="#F5F5F5"/>
<g style="mix-blend-mode:multiply" opacity="0.15">
<path d="M688.437 821.667C675.944 821.665 663.83 817.373 654.122 809.508C644.415 801.643 637.703 790.683 635.11 778.461C633.428 786.402 633.541 794.618 635.44 802.51C637.339 810.402 640.976 817.77 646.087 824.077C651.197 830.383 657.651 835.469 664.978 838.962C672.306 842.455 680.32 844.268 688.437 844.268C696.555 844.268 704.569 842.455 711.896 838.962C719.223 835.469 725.678 830.383 730.788 824.077C735.899 817.77 739.536 810.402 741.435 802.51C743.334 794.618 743.447 786.402 741.765 778.461C739.172 790.683 732.46 801.643 722.752 809.508C713.045 817.373 700.931 821.665 688.437 821.667Z" fill="#230753"/>
</g>
<path d="M675.305 758.343C676.229 760.554 674.267 763.46 671.039 764.82C667.81 766.18 664.354 765.495 663.43 763.284C662.506 761.073 664.416 758.156 667.696 756.796C670.977 755.436 674.34 756.131 675.305 758.343Z" fill="#E2E2E2"/>
<path d="M661.27 765.267C659.879 761.934 662.755 757.554 667.707 755.488C671.361 753.972 675.119 754.149 677.392 755.695C675.316 753.505 671.018 753.038 666.855 754.772C661.904 756.848 659.028 761.208 660.419 764.55C660.799 765.402 661.42 766.124 662.205 766.627C661.811 766.236 661.494 765.775 661.27 765.267Z" fill="#E2E2E2"/>
<g style="mix-blend-mode:multiply" opacity="0.15">
<path d="M675.305 758.343C675.097 757.804 674.737 757.339 674.267 757.003C674.901 759.173 673.022 761.862 669.897 763.17C667.416 764.208 664.862 764.052 663.367 762.962C663.396 763.071 663.43 763.179 663.471 763.284C664.395 765.495 667.8 766.191 671.08 764.82C674.361 763.45 676.229 760.564 675.305 758.343Z" fill="#230753"/>
</g>
<path d="M694.064 745.792C694.209 747.11 692.413 748.398 690.046 748.657C687.68 748.917 685.645 748.066 685.5 746.737C685.354 745.408 687.15 744.131 689.517 743.872C691.884 743.612 693.939 744.474 694.064 745.792Z" fill="#E2E2E2"/>
<path d="M705.348 765.339C704.31 764.737 704.092 763.108 704.798 761.54C704.691 761.679 704.594 761.824 704.507 761.976C703.531 763.658 703.677 765.568 704.829 766.232C705.981 766.897 707.704 766.066 708.68 764.384C708.765 764.233 708.841 764.077 708.909 763.917C707.902 765.308 706.396 765.942 705.348 765.339Z" fill="#E2E2E2"/>
<g style="mix-blend-mode:multiply" opacity="0.15">
<path d="M683.901 747.401C683.662 745.325 686.548 743.249 690.327 742.813C691.779 742.633 693.252 742.754 694.656 743.166C692.997 742.445 691.174 742.19 689.382 742.429C685.593 742.854 682.718 744.91 682.946 747.027C683.081 748.242 684.233 749.218 685.894 749.747C685.387 749.562 684.937 749.249 684.587 748.838C684.238 748.426 684.001 747.931 683.901 747.401Z" fill="#230753"/>
</g>
<g style="mix-blend-mode:multiply" opacity="0.15">
<path d="M694.064 745.792C693.939 744.65 692.393 743.851 690.451 743.83C691.489 744.152 692.258 744.764 692.351 745.543C692.496 746.861 690.69 748.149 688.334 748.408C688.024 748.445 687.712 748.463 687.399 748.46C688.26 748.699 689.16 748.766 690.047 748.657C692.434 748.398 694.23 747.11 694.064 745.792Z" fill="#230753"/>
</g>
<path d="M648.834 778.067C650.91 779.343 651.024 782.769 649.177 785.738C647.329 788.707 644.173 790.067 642.138 788.79C640.104 787.513 639.948 784.088 641.796 781.129C643.643 778.17 646.799 776.79 648.834 778.067Z" fill="#E2E2E2"/>
<g style="mix-blend-mode:multiply" opacity="0.15">
<path d="M650.017 776.541C652.187 777.901 652.644 781.212 651.315 784.451C653.173 781.191 652.945 777.537 650.723 776.146C650.103 775.805 649.409 775.62 648.702 775.61C647.994 775.599 647.295 775.762 646.664 776.084C647.225 775.931 647.811 775.893 648.387 775.971C648.964 776.049 649.518 776.243 650.017 776.541Z" fill="#230753"/>
</g>
<g style="mix-blend-mode:multiply" opacity="0.15">
<path d="M640.768 789.911C637.976 788.178 637.581 783.683 639.73 779.53C639.502 779.831 639.284 780.143 639.076 780.475C636.335 784.866 636.564 789.942 639.585 791.832C642.605 793.721 647.267 791.686 649.966 787.306C650.171 786.97 650.358 786.624 650.526 786.268C647.754 790.057 643.56 791.655 640.768 789.911Z" fill="#230753"/>
</g>
<g style="mix-blend-mode:multiply" opacity="0.15">
<path d="M648.834 778.067C646.758 776.8 643.644 778.16 641.796 781.181C641.52 781.632 641.281 782.104 641.079 782.593C642.938 780.516 645.45 779.728 647.163 780.797C648.876 781.866 649.239 784.482 648.201 787.025C648.555 786.635 648.875 786.215 649.156 785.769C651.024 782.759 650.879 779.333 648.834 778.067Z" fill="#230753"/>
</g>
<path d="M664.758 799.742C669.17 802.503 670.914 807.663 668.662 811.265C666.409 814.867 661.011 815.563 656.599 812.812C652.187 810.061 650.433 804.891 652.685 801.289C654.938 797.687 660.347 796.991 664.758 799.742Z" fill="#E2E2E2"/>
<g style="mix-blend-mode:multiply" opacity="0.15">
<path d="M652.685 806.344C654.938 802.742 660.346 802.047 664.758 804.808C666.798 806.069 668.347 807.988 669.15 810.247C670.509 806.749 668.703 802.296 664.717 799.794C660.305 797.043 654.896 797.718 652.644 801.341C652.102 802.257 651.774 803.283 651.684 804.344C651.594 805.404 651.745 806.471 652.125 807.465C652.279 807.076 652.467 806.701 652.685 806.344Z" fill="#230753"/>
</g>
<g style="mix-blend-mode:multiply" opacity="0.15">
<path d="M673.894 807.289C673.998 809.1 673.576 810.903 672.679 812.48C669.637 817.743 661.956 818.988 655.519 815.272C652.234 813.45 649.763 810.448 648.606 806.874C648.803 811.026 651.492 815.365 655.987 817.961C662.423 821.677 670.105 820.421 673.136 815.158C673.8 813.97 674.21 812.657 674.341 811.303C674.471 809.948 674.319 808.582 673.894 807.289Z" fill="#230753"/>
</g>
<g style="mix-blend-mode:multiply" opacity="0.15">
<path d="M668.859 830.76C670.592 827.999 675.181 827.75 679.126 830.221C680.338 830.9 681.384 831.842 682.187 832.977C682.99 834.112 683.529 835.412 683.766 836.781C683.984 834.228 682.219 831.207 679.126 829.276C675.181 826.805 670.592 827.054 668.859 829.816C668.332 830.688 668.109 831.71 668.226 832.723C668.279 832.028 668.496 831.355 668.859 830.76Z" fill="#230753"/>
</g>
<g style="mix-blend-mode:multiply" opacity="0.15">
<path d="M681.036 834.601C680.975 834.991 680.837 835.365 680.631 835.702C679.364 837.778 675.98 837.913 673.074 836.106C671.761 835.31 670.714 834.144 670.063 832.753C669.689 834.695 670.987 837.113 673.416 838.629C676.312 840.435 679.645 840.259 680.974 838.224C681.279 837.671 681.444 837.052 681.455 836.42C681.465 835.789 681.322 835.164 681.036 834.601Z" fill="#230753"/>
</g>
<path d="M716.964 800.406C723.567 804.559 725.934 812.666 722.248 818.563C718.563 824.459 710.217 825.902 703.614 821.77C697.012 817.639 694.635 809.521 698.32 803.614C702.005 797.707 710.362 796.275 716.964 800.406Z" fill="#E2E2E2"/>
<g style="mix-blend-mode:multiply" opacity="0.15">
<path d="M702.005 810.995C705.691 805.099 714.037 803.656 720.691 807.787C721.855 808.519 722.919 809.398 723.857 810.403C723.49 808.346 722.689 806.391 721.508 804.667C720.327 802.943 718.792 801.491 717.006 800.406C710.404 796.254 702.057 797.718 698.32 803.614C695.31 808.441 696.348 814.763 700.448 819.186C699.948 816.357 700.502 813.443 702.005 810.995Z" fill="#230753"/>
</g>
<g style="mix-blend-mode:multiply" opacity="0.15">
<path d="M727.574 808.763C727.599 812.332 726.601 815.834 724.698 818.853C719.352 827.407 708.379 830.189 700.189 825.082C698.255 823.863 696.585 822.268 695.278 820.393C693.971 818.517 693.053 816.398 692.579 814.161C692.568 817.086 693.299 819.967 694.705 822.532C696.11 825.097 698.143 827.264 700.614 828.83C708.805 833.947 719.778 831.165 725.113 822.601C727.711 818.488 728.595 813.52 727.574 808.763Z" fill="#230753"/>
</g>
<path d="M676.79 783.724C676.406 784.824 674.797 785.271 673.198 784.71C671.599 784.15 670.613 782.811 670.997 781.71C671.381 780.61 672.98 780.174 674.589 780.672C676.198 781.17 677.174 782.624 676.79 783.724Z" fill="#E2E2E2"/>
<g style="mix-blend-mode:multiply" opacity="0.15">
<path d="M677.506 781.928C677.664 782.206 677.763 782.514 677.797 782.832C677.83 783.15 677.799 783.471 677.703 783.776C677.184 785.271 675.015 785.852 672.845 785.115C671.926 784.812 671.108 784.262 670.478 783.527C671.097 784.585 672.09 785.374 673.26 785.738C675.43 786.496 677.61 785.894 678.129 784.399C678.248 783.968 678.252 783.514 678.143 783.082C678.034 782.649 677.815 782.251 677.506 781.928Z" fill="#230753"/>
</g>
<g style="mix-blend-mode:multiply" opacity="0.15">
<path d="M671.745 782.489C672.129 781.389 673.738 780.953 675.337 781.451C675.75 781.599 676.138 781.809 676.489 782.074C676.023 781.414 675.357 780.923 674.589 780.672C672.98 780.122 671.382 780.558 670.997 781.71C670.899 782.167 670.946 782.643 671.132 783.071C671.319 783.5 671.634 783.859 672.036 784.098C671.867 783.87 671.753 783.606 671.703 783.327C671.652 783.048 671.667 782.761 671.745 782.489Z" fill="#230753"/>
</g>
<g style="mix-blend-mode:multiply" opacity="0.15">
<path d="M701.019 779.904C700.524 779.709 699.982 779.664 699.462 779.774C698.941 779.885 698.464 780.147 698.092 780.527C698.607 780.442 699.135 780.489 699.628 780.662C700.27 780.828 700.821 781.24 701.163 781.809C701.505 782.378 701.61 783.058 701.455 783.703C701.371 783.931 701.248 784.141 701.092 784.326C701.481 784.273 701.849 784.118 702.157 783.875C702.465 783.632 702.703 783.311 702.846 782.946C703.001 782.3 702.896 781.62 702.554 781.051C702.213 780.483 701.661 780.071 701.019 779.904Z" fill="#230753"/>
</g>
<g style="mix-blend-mode:multiply" opacity="0.15">
<path d="M700.22 785.146C697.324 784.357 695.507 781.741 696.171 779.323C696.292 778.907 696.482 778.514 696.732 778.16C695.932 778.689 695.35 779.489 695.092 780.413C694.417 782.831 696.234 785.447 699.13 786.236C700.172 786.576 701.294 786.589 702.344 786.274C703.394 785.959 704.323 785.33 705.005 784.471C704.304 784.923 703.513 785.216 702.687 785.333C701.861 785.449 701.019 785.386 700.22 785.146Z" fill="#230753"/>
</g>
<g style="mix-blend-mode:multiply" opacity="0.15">
<path d="M729.359 784.067C729.385 784.533 729.237 784.991 728.944 785.354C728.71 785.712 728.345 785.963 727.926 786.053C727.508 786.142 727.072 786.063 726.712 785.832C726.591 785.738 726.488 785.622 726.411 785.489C726.423 785.671 726.471 785.848 726.553 786.01C726.635 786.172 726.749 786.317 726.889 786.434C727.248 786.665 727.685 786.744 728.103 786.655C728.521 786.566 728.887 786.314 729.12 785.956C729.343 785.7 729.484 785.384 729.527 785.048C729.569 784.711 729.511 784.37 729.359 784.067Z" fill="#230753"/>
</g>
<g style="mix-blend-mode:multiply" opacity="0.15">
<path d="M705.784 761.685C706.146 761.415 706.598 761.296 707.046 761.354C707.494 761.412 707.902 761.643 708.182 761.997C708.29 762.176 708.359 762.376 708.382 762.584C708.405 762.792 708.383 763.002 708.317 763.201C708.53 762.956 708.663 762.651 708.696 762.327C708.73 762.004 708.663 761.678 708.504 761.395C708.223 761.041 707.816 760.81 707.368 760.752C706.92 760.694 706.467 760.813 706.106 761.083C705.706 761.339 705.405 761.723 705.255 762.173C705.403 761.982 705.582 761.817 705.784 761.685Z" fill="#230753"/>
</g>
<g style="mix-blend-mode:multiply" opacity="0.15">
<path d="M728.934 768.724C728.757 768.308 728.424 767.978 728.007 767.805C727.589 767.632 727.121 767.63 726.702 767.8C726.294 767.917 725.931 768.156 725.664 768.485C725.847 768.351 726.05 768.245 726.266 768.173C726.685 768.007 727.152 768.01 727.569 768.183C727.986 768.355 728.319 768.683 728.498 769.097C728.563 769.332 728.569 769.579 728.514 769.817C728.46 770.054 728.347 770.274 728.186 770.457C728.481 770.287 728.713 770.027 728.848 769.714C728.982 769.402 729.013 769.055 728.934 768.724Z" fill="#230753"/>
</g>
<g style="mix-blend-mode:multiply" opacity="0.15">
<path d="M707.559 751.356C707.788 750.318 709.635 749.706 711.577 750.111C712.08 750.21 712.568 750.374 713.03 750.599C712.286 749.832 711.313 749.326 710.258 749.156C708.265 748.74 706.469 749.301 706.251 750.401C706.085 751.211 706.812 752.073 707.995 752.633C707.829 752.469 707.703 752.268 707.627 752.046C707.552 751.824 707.528 751.588 707.559 751.356Z" fill="#230753"/>
</g>
<g style="mix-blend-mode:multiply" opacity="0.15">
<path d="M642.896 812.168C641.412 809.054 639.107 807.04 637.706 807.704C637.533 807.807 637.388 807.95 637.28 808.119C638.173 808.421 640 810.196 641.318 812.957C642.251 814.84 642.549 816.974 642.169 819.04C642.318 819.095 642.475 819.117 642.633 819.107C642.79 819.096 642.944 819.052 643.083 818.978C644.495 818.334 644.381 815.282 642.896 812.168Z" fill="#230753"/>
</g>
<path d="M641.339 812.905C642.782 815.916 643.332 818.656 642.564 819.03C641.796 819.404 640.021 817.234 638.588 814.223C637.155 811.213 636.595 808.462 637.353 808.099C638.11 807.735 639.906 809.884 641.339 812.905Z" fill="#C1C1C1"/>
<g style="mix-blend-mode:multiply" opacity="0.15">
<path d="M641.339 812.905C641.204 812.614 641.059 812.334 640.913 812.054C642.055 814.711 642.439 816.974 641.744 817.306C641.048 817.639 639.543 815.905 638.194 813.351C638.318 813.642 638.443 813.922 638.588 814.223C640.021 817.234 641.806 819.414 642.564 819.03C643.322 818.646 642.782 815.915 641.339 812.905Z" fill="#230753"/>
</g>
<g style="mix-blend-mode:multiply" opacity="0.15">
<path d="M728.093 771.205C727.449 771.467 726.729 771.464 726.087 771.198C725.446 770.931 724.936 770.423 724.667 769.782C724.561 769.43 724.543 769.056 724.613 768.694C724.684 768.333 724.841 767.994 725.072 767.706C724.663 767.996 724.352 768.404 724.183 768.876C724.014 769.347 723.995 769.86 724.127 770.343C724.396 770.983 724.906 771.492 725.548 771.758C726.189 772.025 726.91 772.027 727.553 771.765C728.163 771.565 728.696 771.18 729.079 770.665C728.788 770.907 728.453 771.091 728.093 771.205Z" fill="#230753"/>
</g>
<path d="M1394 190L1397.41 197.238L1405 198.409L1399.5 204.034L1400.8 212L1394 208.231L1387.21 212L1388.5 204.034L1383 198.409L1390.6 197.238L1394 190Z" fill="#E6E5BF"/>
<path d="M444 828L447.409 835.238L455 836.409L449.5 842.034L450.804 850L444 846.245L437.21 850L438.5 842.034L433 836.409L440.605 835.238L444 828Z" fill="#E6E5BF"/>
<path d="M1376 740L1379.41 747.243L1387 748.4L1381.5 754.043L1382.8 762L1376 758.243L1369.21 762L1370.5 754.043L1365 748.4L1372.6 747.243L1376 740Z" fill="#E6E5BF"/>
<path d="M855.5 276L859.064 283.243L867 284.4L861.25 290.043L862.613 298L855.5 294.243L848.401 298L849.75 290.043L844 284.4L851.951 283.243L855.5 276Z" fill="#E6E5BF"/>
<path d="M1311.97 338L1314.25 345.774L1322 348.314L1315.27 352.889L1315.24 361L1308.78 356.046L1301.02 358.516L1303.77 350.882L1299 344.301L1307.14 344.539L1311.97 338Z" fill="#F2B21B"/>
<path d="M1164 293.987C1164 294.581 1163.83 295.162 1163.5 295.657C1163.17 296.152 1162.71 296.539 1162.16 296.768C1161.61 296.997 1161.01 297.058 1160.42 296.944C1159.84 296.83 1159.3 296.545 1158.88 296.126C1158.46 295.707 1158.18 295.172 1158.06 294.59C1157.94 294.008 1158 293.404 1158.23 292.855C1158.45 292.306 1158.84 291.837 1159.33 291.507C1159.83 291.176 1160.41 291 1161 291C1161.79 291 1162.55 291.314 1163.12 291.874C1163.68 292.434 1164 293.193 1164 293.987Z" fill="#EFC950"/>
<path d="M685 643C686.657 643 688 641.657 688 640C688 638.343 686.657 637 685 637C683.343 637 682 638.343 682 640C682 641.657 683.343 643 685 643Z" fill="#EFC950"/>
<path d="M628 831C629.657 831 631 829.657 631 828C631 826.343 629.657 825 628 825C626.343 825 625 826.343 625 828C625 829.657 626.343 831 628 831Z" fill="#EFC950"/>
<path d="M1090 196.987C1090 197.581 1089.83 198.162 1089.5 198.657C1089.17 199.152 1088.71 199.539 1088.16 199.768C1087.61 199.997 1087.01 200.058 1086.42 199.944C1085.84 199.83 1085.3 199.545 1084.88 199.126C1084.46 198.707 1084.18 198.172 1084.06 197.59C1083.94 197.008 1084 196.404 1084.23 195.855C1084.45 195.306 1084.84 194.837 1085.33 194.507C1085.83 194.176 1086.41 194 1087 194C1087.79 194 1088.55 194.314 1089.12 194.874C1089.68 195.434 1090 196.193 1090 196.987Z" fill="#EFC950"/>
<path d="M941 235.987C941.003 236.581 940.8 237.163 940.417 237.658C940.033 238.154 939.487 238.54 938.847 238.769C938.206 238.998 937.501 239.058 936.821 238.943C936.141 238.828 935.516 238.542 935.025 238.121C934.535 237.701 934.201 237.165 934.067 236.582C933.932 235.999 934.003 235.395 934.269 234.846C934.536 234.297 934.987 233.829 935.565 233.5C936.143 233.172 936.822 232.997 937.515 233C938.44 233 939.326 233.315 939.979 233.875C940.633 234.435 941 235.195 941 235.987Z" fill="#EFC950"/>
<path d="M873.5 444C875.433 444 877 442.657 877 441C877 439.343 875.433 438 873.5 438C871.567 438 870 439.343 870 441C870 442.657 871.567 444 873.5 444Z" fill="#EFC950"/>
<path d="M775 490.516C774.997 491.207 774.819 491.882 774.488 492.456C774.157 493.029 773.687 493.475 773.139 493.738C772.59 494.001 771.988 494.068 771.407 493.931C770.826 493.794 770.292 493.459 769.874 492.969C769.456 492.479 769.171 491.856 769.057 491.177C768.942 490.499 769.002 489.796 769.23 489.157C769.457 488.518 769.842 487.973 770.335 487.589C770.828 487.205 771.407 487 772 487C772.395 487 772.786 487.091 773.151 487.268C773.516 487.445 773.847 487.704 774.126 488.031C774.405 488.357 774.625 488.745 774.775 489.171C774.925 489.598 775.002 490.055 775 490.516Z" fill="#EFC950"/>
<path d="M1394 2.99999C1394 3.59334 1393.82 4.17335 1393.49 4.6667C1393.16 5.16004 1392.7 5.54457 1392.15 5.77163C1391.6 5.99869 1391 6.05811 1390.41 5.94236C1389.83 5.8266 1389.3 5.54088 1388.88 5.12132C1388.46 4.70176 1388.17 4.1672 1388.06 3.58526C1387.94 3.00332 1388 2.40012 1388.23 1.85194C1388.46 1.30376 1388.84 0.83523 1389.33 0.505586C1389.83 0.175941 1390.41 0 1391 0C1391.8 0 1392.56 0.316074 1393.12 0.878683C1393.68 1.44129 1394 2.20434 1394 2.99999Z" fill="#EFC950"/>
<path d="M514 842.987C514.003 843.581 513.829 844.163 513.5 844.658C513.171 845.154 512.703 845.54 512.154 845.769C511.605 845.998 511.001 846.058 510.418 845.943C509.835 845.828 509.299 845.542 508.879 845.121C508.458 844.701 508.172 844.165 508.057 843.582C507.942 842.999 508.002 842.395 508.231 841.846C508.46 841.297 508.846 840.829 509.342 840.5C509.837 840.172 510.419 839.997 511.013 840C511.805 840 512.565 840.315 513.125 840.875C513.685 841.435 514 842.195 514 842.987Z" fill="#EFC950"/>
<path d="M794.5 606C796.433 606 798 604.657 798 603C798 601.343 796.433 600 794.5 600C792.567 600 791 601.343 791 603C791 604.657 792.567 606 794.5 606Z" fill="#EFC950"/>
<path d="M789 285C790.657 285 792 283.433 792 281.5C792 279.567 790.657 278 789 278C787.343 278 786 279.567 786 281.5C786 283.433 787.343 285 789 285Z" fill="#EFC950"/>
<path d="M1397 525.013C1397 525.606 1396.82 526.185 1396.49 526.676C1396.16 527.168 1395.69 527.55 1395.14 527.775C1394.59 528 1393.99 528.058 1393.41 527.941C1392.83 527.823 1392.29 527.537 1391.87 527.117C1391.46 526.697 1391.17 526.162 1391.06 525.58C1390.94 524.999 1391 524.396 1391.23 523.849C1391.46 523.302 1391.84 522.834 1392.33 522.505C1392.83 522.176 1393.41 522 1394 522C1394.4 522 1394.79 522.078 1395.15 522.23C1395.52 522.381 1395.85 522.603 1396.13 522.883C1396.4 523.163 1396.63 523.496 1396.78 523.861C1396.93 524.227 1397 524.618 1397 525.013Z" fill="#EFC950"/>
<path d="M453 637.5C453 638.192 452.824 638.869 452.494 639.444C452.165 640.02 451.696 640.469 451.148 640.734C450.6 640.998 449.997 641.068 449.415 640.933C448.833 640.798 448.298 640.464 447.879 639.975C447.459 639.485 447.173 638.862 447.058 638.183C446.942 637.504 447.001 636.8 447.228 636.161C447.455 635.521 447.84 634.974 448.333 634.59C448.827 634.205 449.407 634 450 634C450.796 634 451.559 634.369 452.121 635.025C452.684 635.681 453 636.572 453 637.5Z" fill="#EFC950"/>
<path d="M1279.76 753.097C1280.33 753.246 1280.85 753.562 1281.24 754.005C1281.63 754.447 1281.89 754.997 1281.97 755.583C1282.05 756.17 1281.96 756.768 1281.7 757.302C1281.45 757.836 1281.04 758.282 1280.53 758.583C1280.02 758.885 1279.43 759.028 1278.84 758.995C1278.24 758.963 1277.68 758.756 1277.2 758.401C1276.73 758.045 1276.37 757.557 1276.17 756.998C1275.97 756.44 1275.95 755.835 1276.09 755.261C1276.19 754.877 1276.36 754.517 1276.6 754.201C1276.84 753.884 1277.13 753.618 1277.47 753.417C1277.81 753.216 1278.19 753.084 1278.58 753.029C1278.98 752.974 1279.37 752.997 1279.76 753.097Z" fill="#EFC950"/>
<path d="M1352.37 682.109C1353.04 682.281 1353.64 682.647 1354.11 683.163C1354.57 683.678 1354.87 684.319 1354.96 685.004C1355.06 685.689 1354.96 686.388 1354.66 687.012C1354.36 687.636 1353.88 688.158 1353.28 688.511C1352.69 688.864 1352 689.032 1351.31 688.995C1350.62 688.958 1349.96 688.716 1349.4 688.301C1348.85 687.886 1348.43 687.316 1348.2 686.663C1347.97 686.011 1347.94 685.304 1348.11 684.634C1348.22 684.188 1348.42 683.77 1348.7 683.402C1348.97 683.034 1349.32 682.724 1349.72 682.489C1350.11 682.255 1350.55 682.101 1351 682.035C1351.46 681.97 1351.92 681.995 1352.37 682.109Z" fill="#EFC950"/>
<path d="M1030.35 321.09C1031.03 321.235 1031.63 321.548 1032.1 321.989C1032.56 322.43 1032.86 322.98 1032.96 323.568C1033.06 324.156 1032.96 324.757 1032.66 325.293C1032.36 325.83 1031.88 326.278 1031.28 326.581C1030.69 326.884 1030 327.028 1029.31 326.995C1028.61 326.963 1027.95 326.754 1027.4 326.397C1026.84 326.04 1026.42 325.549 1026.2 324.988C1025.97 324.427 1025.94 323.82 1026.11 323.245C1026.35 322.479 1026.92 321.823 1027.72 321.419C1028.51 321.016 1029.46 320.898 1030.35 321.09Z" fill="#EFC950"/>
<path d="M745.368 761.094C746.038 761.241 746.643 761.555 747.105 761.997C747.567 762.438 747.867 762.987 747.965 763.575C748.063 764.162 747.956 764.761 747.657 765.296C747.357 765.831 746.88 766.278 746.285 766.581C745.689 766.883 745.002 767.028 744.311 766.996C743.62 766.964 742.956 766.757 742.402 766.401C741.848 766.045 741.429 765.557 741.199 764.997C740.969 764.438 740.938 763.832 741.109 763.257C741.223 762.876 741.423 762.517 741.699 762.201C741.974 761.886 742.32 761.62 742.715 761.419C743.111 761.218 743.549 761.086 744.004 761.03C744.459 760.974 744.922 760.996 745.368 761.094Z" fill="#EFC950"/>
<path d="M1388.76 281.113C1389.33 281.287 1389.85 281.656 1390.24 282.172C1390.63 282.688 1390.89 283.329 1390.97 284.014C1391.05 284.699 1390.96 285.396 1390.7 286.019C1390.45 286.642 1390.04 287.162 1389.53 287.514C1389.02 287.865 1388.43 288.033 1387.84 287.995C1387.24 287.957 1386.68 287.715 1386.2 287.301C1385.73 286.886 1385.37 286.317 1385.17 285.665C1384.97 285.013 1384.95 284.307 1385.09 283.637C1385.19 283.19 1385.36 282.77 1385.6 282.401C1385.84 282.032 1386.13 281.721 1386.47 281.486C1386.81 281.252 1387.19 281.098 1387.58 281.034C1387.98 280.97 1388.37 280.997 1388.76 281.113Z" fill="#EFC950"/>
<path d="M1348.74 491.094C1349.32 491.241 1349.84 491.555 1350.23 491.997C1350.63 492.438 1350.89 492.987 1350.97 493.575C1351.05 494.162 1350.96 494.761 1350.71 495.296C1350.45 495.831 1350.04 496.278 1349.53 496.581C1349.02 496.883 1348.43 497.028 1347.84 496.996C1347.25 496.964 1346.68 496.757 1346.2 496.401C1345.73 496.045 1345.37 495.557 1345.17 494.997C1344.97 494.438 1344.95 493.832 1345.09 493.257C1345.19 492.876 1345.36 492.517 1345.6 492.201C1345.84 491.886 1346.13 491.62 1346.47 491.419C1346.81 491.218 1347.18 491.086 1347.57 491.03C1347.96 490.974 1348.36 490.996 1348.74 491.094Z" fill="#EFC950"/>
<path d="M1367.74 141.091C1368.32 141.238 1368.84 141.552 1369.23 141.994C1369.63 142.436 1369.89 142.985 1369.97 143.573C1370.05 144.161 1369.96 144.76 1369.71 145.295C1369.45 145.831 1369.04 146.278 1368.53 146.581C1368.02 146.883 1367.43 147.028 1366.84 146.996C1366.25 146.964 1365.68 146.757 1365.2 146.401C1364.73 146.045 1364.37 145.556 1364.17 144.996C1363.97 144.436 1363.95 143.831 1364.09 143.256C1364.29 142.486 1364.79 141.827 1365.47 141.421C1366.16 141.016 1366.97 140.897 1367.74 141.091Z" fill="#EFC950"/>
<path d="M1368.74 836.109C1369.32 836.281 1369.84 836.647 1370.23 837.163C1370.63 837.678 1370.89 838.319 1370.97 839.004C1371.05 839.689 1370.96 840.388 1370.71 841.012C1370.45 841.636 1370.04 842.158 1369.53 842.511C1369.02 842.864 1368.43 843.032 1367.84 842.995C1367.25 842.958 1366.68 842.716 1366.2 842.301C1365.73 841.886 1365.37 841.316 1365.17 840.663C1364.97 840.011 1364.95 839.304 1365.09 838.634C1365.19 838.188 1365.36 837.77 1365.6 837.402C1365.84 837.034 1366.13 836.724 1366.47 836.489C1366.81 836.255 1367.18 836.101 1367.57 836.035C1367.96 835.97 1368.36 835.995 1368.74 836.109Z" fill="#EFC950"/>
<path d="M1253.38 885.097C1254.05 885.246 1254.65 885.562 1255.11 886.005C1255.57 886.447 1255.87 886.997 1255.97 887.583C1256.06 888.17 1255.95 888.768 1255.65 889.302C1255.35 889.836 1254.88 890.282 1254.28 890.583C1253.68 890.885 1253 891.028 1252.31 890.995C1251.62 890.963 1250.95 890.756 1250.4 890.401C1249.85 890.045 1249.43 889.557 1249.2 888.998C1248.97 888.44 1248.94 887.835 1249.11 887.261C1249.22 886.877 1249.42 886.517 1249.7 886.201C1249.98 885.884 1250.32 885.618 1250.72 885.417C1251.12 885.216 1251.56 885.084 1252.01 885.029C1252.47 884.974 1252.94 884.997 1253.38 885.097Z" fill="#EFC950"/>
<path d="M1313.67 76.704C1316.29 85.2015 1316.34 94.2858 1313.8 102.808C1311.25 111.33 1306.24 118.908 1299.4 124.583C1292.55 130.258 1284.18 133.775 1275.33 134.69C1266.48 135.605 1257.57 133.877 1249.7 129.724C1241.84 125.571 1235.38 119.179 1231.15 111.357C1226.92 103.535 1225.1 94.6343 1225.93 85.78C1226.76 76.9256 1230.19 68.5154 1235.8 61.6126C1241.41 54.7099 1248.93 49.6247 1257.43 46.9999C1268.83 43.483 1281.15 44.6367 1291.7 50.207C1302.25 55.7774 1310.15 65.3083 1313.67 76.704Z" fill="#FFDE6E"/>
<path d="M1278.91 117.139C1282.1 115.669 1285.47 114.622 1288.93 114.025C1290.62 113.817 1292.72 114.025 1293.5 115.554C1293.74 116.172 1293.78 116.848 1293.62 117.49C1293.46 118.132 1293.1 118.709 1292.6 119.14C1291.58 119.984 1290.39 120.6 1289.11 120.947L1273.82 126.257C1270.71 127.341 1264.71 128.147 1268.19 123.477C1270.59 120.266 1275.38 118.584 1278.91 117.139Z" fill="#F4911E"/>
<path d="M1239.92 117.403C1253.54 107.59 1267.34 96.8589 1283.81 93.5507C1294.34 91.4379 1306.25 92.1607 1315.63 87.8796C1315.45 84.1045 1314.79 80.3676 1313.67 76.7596C1313.25 75.3872 1312.76 74.0371 1312.2 72.7147L1300.59 77.1905C1297.73 78.3025 1294.71 79.4284 1291.65 79.0809C1288.59 78.7334 1285.52 76.4121 1285.45 73.3402C1285.55 71.8233 1286.03 70.3553 1286.84 69.073C1289.82 63.5988 1293.83 58.7553 1298.66 54.8116C1295.43 52.2489 1291.87 50.1441 1288.07 48.5566C1285.97 50.0457 1284.05 51.7714 1282.35 53.6996C1274.29 62.8736 1271.43 76.1619 1261.99 83.9181C1254.79 89.8394 1245 91.4797 1237.05 96.3168C1233.62 98.4194 1230.57 101.094 1228.05 104.226C1229.91 109.885 1232.9 115.112 1236.82 119.599C1237.87 118.863 1238.96 118.14 1239.92 117.403Z" fill="#F8AD40"/>
<path d="M1239.58 90.0896C1242.03 88.9498 1244.57 88.0185 1247.05 86.9205C1254.88 83.3891 1261.75 78.0315 1267.08 71.2969C1267.74 70.5383 1268.22 69.6334 1268.47 68.6559C1268.95 66.3068 1266.77 64.069 1264.42 63.6103C1262.03 63.3683 1259.62 63.822 1257.47 64.9169C1246.26 69.6226 1235.74 75.8074 1226.17 83.3065C1225.4 88.4471 1225.54 93.6814 1226.56 98.7771C1231.19 96.0944 1235.96 91.8132 1239.58 90.0896Z" fill="#F4911E"/>
<path d="M1267.01 54.2972C1267.09 54.7168 1267.27 55.1105 1267.54 55.4446C1267.8 55.7787 1268.15 56.0432 1268.54 56.2154C1269.41 56.579 1270.37 56.6987 1271.31 56.5616C1272.24 56.4245 1273.13 56.0359 1273.86 55.437C1275.32 54.229 1276.51 52.7398 1277.38 51.0585C1278.04 49.9187 1280.05 48.0561 1281.55 46.3047C1278.97 45.6665 1276.33 45.2571 1273.68 45.0815C1271.42 47.104 1269.45 49.4179 1267.8 51.962C1267.27 52.624 1266.99 53.4502 1267.01 54.2972Z" fill="#F4911E"/>
<path d="M1300.51 96.8032C1289.26 98.3044 1277.5 98.791 1267.45 104.087C1261.43 107.27 1256.33 112.01 1251.44 116.68L1243.68 124.019C1243.43 124.242 1243.02 124.589 1242.49 125.006C1245.74 127.612 1249.34 129.759 1253.18 131.386C1258.15 128.273 1261.39 122.643 1265.92 118.723C1269.89 115.29 1274.79 113.163 1279.67 111.343C1286.65 108.655 1293.72 106.269 1300.9 104.184C1305.55 102.949 1310.13 101.44 1314.61 99.6667C1315.02 97.8339 1315.31 95.9767 1315.48 94.1067C1310.53 95.228 1305.54 96.1268 1300.51 96.8032Z" fill="#F8AD40"/>
<path d="M1229.38 72.2282C1232.16 72.0892 1235.45 69.5177 1237.39 68.4752C1245.75 63.9461 1253.54 58.4403 1260.6 52.0733C1262.82 50.3739 1264.45 48.0135 1265.24 45.3318C1257.43 46.2839 1250.01 49.2692 1243.72 53.9891C1237.43 58.7091 1232.48 64.9983 1229.38 72.2282Z" fill="#F4911E"/>
<g style="mix-blend-mode:multiply">
<path d="M1305.11 61.0249C1307.39 70.865 1306.29 81.1867 1301.99 90.3266C1297.69 99.4665 1290.44 106.892 1281.4 111.407C1272.37 115.922 1262.07 117.263 1252.18 115.214C1242.29 113.164 1233.38 107.845 1226.88 100.111C1228.41 106.742 1231.42 112.939 1235.69 118.237C1239.96 123.534 1245.38 127.794 1251.53 130.695C1257.69 133.596 1264.42 135.063 1271.22 134.985C1278.03 134.906 1284.73 133.286 1290.81 130.245C1296.9 127.203 1302.22 122.821 1306.37 117.427C1310.51 112.032 1313.38 105.768 1314.76 99.1038C1316.14 92.44 1315.98 85.5507 1314.31 78.9549C1312.64 72.3591 1309.49 66.2285 1305.11 61.0249Z" fill="#FDD483"/>
</g>
</svg>
