<svg width="414" height="732" viewBox="0 0 414 732" fill="none" xmlns="http://www.w3.org/2000/svg">
<path d="M392.019 277.074L395.053 277.485L397.009 275.291L397.671 278.228L400.501 279.467L397.875 280.868L397.672 283.833L395.382 281.761L392.431 282.357L393.637 279.671L392.019 277.074Z" fill="#E6E5BF"/>
<path d="M399.233 714.977L402.267 715.388L404.223 713.194L404.885 716.131L407.715 717.37L405.093 718.774L404.886 721.736L402.596 719.664L399.645 720.26L400.851 717.573L399.233 714.977Z" fill="#E6E5BF"/>
<path d="M307.574 467.931L310.642 468.294L312.666 465.986L313.281 469.007L316.121 470.225L313.434 471.728L313.163 474.79L310.888 472.7L307.879 473.373L309.162 470.579L307.574 467.931Z" fill="#E6E5BF"/>
<path d="M377.553 372.588C377.745 372.711 377.895 372.887 377.986 373.096C378.077 373.304 378.103 373.535 378.063 373.758C378.023 373.982 377.917 374.189 377.759 374.352C377.601 374.516 377.398 374.628 377.176 374.676C376.953 374.724 376.722 374.705 376.511 374.622C376.299 374.538 376.117 374.393 375.988 374.206C375.859 374.019 375.788 373.798 375.785 373.571C375.782 373.344 375.846 373.12 375.97 372.93C376.135 372.675 376.394 372.496 376.691 372.432C376.988 372.368 377.298 372.424 377.553 372.588Z" fill="#EFC950"/>
<path d="M389.968 599.07C390.313 598.538 390.161 597.827 389.629 597.482C389.096 597.137 388.385 597.289 388.041 597.821C387.696 598.354 387.848 599.064 388.38 599.409C388.912 599.754 389.623 599.602 389.968 599.07Z" fill="#EFC950"/>
<path d="M330.998 376.169C331.189 376.292 331.34 376.469 331.43 376.677C331.521 376.886 331.548 377.116 331.508 377.34C331.467 377.563 331.361 377.77 331.203 377.934C331.045 378.097 330.842 378.21 330.62 378.258C330.398 378.306 330.167 378.287 329.955 378.203C329.744 378.119 329.562 377.975 329.433 377.788C329.304 377.601 329.233 377.38 329.23 377.152C329.226 376.925 329.291 376.702 329.414 376.511C329.579 376.256 329.839 376.077 330.135 376.013C330.432 375.949 330.742 376.005 330.998 376.169Z" fill="#EFC950"/>
<path d="M312.516 432.142C312.707 432.265 312.852 432.451 312.931 432.678C313.011 432.904 313.021 433.16 312.961 433.413C312.902 433.666 312.774 433.905 312.596 434.1C312.417 434.294 312.195 434.436 311.958 434.506C311.721 434.576 311.479 434.571 311.264 434.493C311.049 434.415 310.869 434.267 310.749 434.067C310.628 433.867 310.571 433.625 310.586 433.371C310.601 433.117 310.686 432.862 310.831 432.64C311.024 432.343 311.309 432.124 311.625 432.031C311.941 431.937 312.261 431.978 312.516 432.142Z" fill="#EFC950"/>
<path d="M365.28 497.112C365.682 496.491 365.577 495.709 365.045 495.364C364.513 495.019 363.755 495.243 363.353 495.864C362.951 496.484 363.056 497.267 363.588 497.612C364.12 497.957 364.878 497.733 365.28 497.112Z" fill="#EFC950"/>
<path d="M359.721 538.43C359.943 538.574 360.123 538.772 360.238 538.998C360.353 539.224 360.399 539.467 360.369 539.698C360.339 539.929 360.235 540.136 360.071 540.295C359.906 540.453 359.687 540.554 359.443 540.587C359.198 540.619 358.939 540.581 358.697 540.476C358.455 540.372 358.242 540.206 358.084 540C357.926 539.794 357.831 539.557 357.81 539.319C357.79 539.081 357.845 538.852 357.968 538.662C358.05 538.535 358.161 538.428 358.293 538.348C358.426 538.267 358.578 538.215 358.741 538.193C358.904 538.172 359.075 538.181 359.243 538.222C359.411 538.263 359.574 538.333 359.721 538.43Z" fill="#EFC950"/>
<path d="M331.957 238.157C332.147 238.281 332.297 238.458 332.387 238.667C332.477 238.875 332.503 239.106 332.462 239.329C332.421 239.552 332.314 239.758 332.156 239.921C331.997 240.084 331.794 240.196 331.572 240.244C331.35 240.291 331.119 240.272 330.908 240.188C330.697 240.104 330.516 239.959 330.387 239.772C330.258 239.585 330.188 239.364 330.184 239.137C330.181 238.91 330.245 238.687 330.369 238.497C330.535 238.241 330.795 238.062 331.093 237.998C331.39 237.935 331.701 237.992 331.957 238.157Z" fill="#EFC950"/>
<path d="M400.872 556.2C401.274 555.579 401.169 554.796 400.637 554.451C400.104 554.107 399.347 554.33 398.945 554.951C398.542 555.572 398.648 556.355 399.18 556.7C399.712 557.044 400.469 556.821 400.872 556.2Z" fill="#EFC950"/>
<path d="M296.626 491.163C296.971 490.631 296.747 489.874 296.126 489.471C295.505 489.069 294.722 489.174 294.377 489.706C294.033 490.239 294.256 490.996 294.877 491.398C295.498 491.801 296.281 491.695 296.626 491.163Z" fill="#EFC950"/>
<path d="M339.92 672.441C340.142 672.585 340.323 672.783 340.439 673.008C340.555 673.234 340.602 673.478 340.573 673.709C340.544 673.94 340.441 674.148 340.276 674.307C340.112 674.466 339.893 674.568 339.649 674.601C339.404 674.634 339.145 674.596 338.902 674.492C338.66 674.388 338.447 674.222 338.288 674.016C338.13 673.81 338.035 673.573 338.014 673.334C337.993 673.096 338.048 672.867 338.171 672.676C338.337 672.421 338.614 672.252 338.942 672.208C339.27 672.164 339.622 672.248 339.92 672.441Z" fill="#EFC950"/>
<path d="M358.445 421.154C358.632 420.968 358.859 420.838 359.097 420.781C359.336 420.724 359.575 420.741 359.784 420.831C359.994 420.922 360.165 421.081 360.275 421.288C360.385 421.496 360.429 421.743 360.403 421.998C360.376 422.252 360.279 422.503 360.124 422.719C359.97 422.935 359.764 423.105 359.534 423.209C359.304 423.312 359.06 423.344 358.832 423.301C358.604 423.257 358.403 423.14 358.255 422.964C358.057 422.73 357.966 422.409 358.002 422.07C358.038 421.731 358.197 421.402 358.445 421.154Z" fill="#EFC950"/>
<path d="M370.846 275.329C371.013 275.175 371.222 275.074 371.446 275.038C371.67 275.003 371.9 275.035 372.106 275.13C372.313 275.225 372.486 275.38 372.605 275.573C372.723 275.767 372.782 275.992 372.773 276.219C372.764 276.445 372.688 276.665 372.554 276.848C372.42 277.032 372.235 277.172 372.022 277.25C371.809 277.329 371.578 277.342 371.357 277.289C371.136 277.236 370.936 277.118 370.782 276.952C370.576 276.727 370.467 276.431 370.48 276.127C370.492 275.823 370.623 275.536 370.846 275.329Z" fill="#EFC950"/>
<path d="M115.571 22.9858L113.056 21.239L110.316 22.3037L111.063 19.3869L109.106 16.996L112.08 16.9386L113.612 14.3947L114.709 17.2819L117.608 18.0938L115.311 19.9371L115.571 22.9858Z" fill="#E6E5BF"/>
<path d="M84.8125 284.685L82.2454 282.967L79.3935 284.102L80.2195 281.131L78.2451 278.755L81.3216 278.639L82.9555 276.035L84.0311 278.931L87.0167 279.701L84.6029 281.606L84.8125 284.685Z" fill="#E6E5BF"/>
<path d="M71.095 130.42C70.5458 130.737 70.3577 131.439 70.6747 131.988C70.9918 132.537 71.694 132.725 72.2431 132.408C72.7923 132.091 72.9804 131.389 72.6634 130.84C72.3463 130.291 71.6441 130.103 71.095 130.42Z" fill="#EFC950"/>
<path d="M54.0118 57.2014C53.4626 57.5184 53.2745 58.2206 53.5915 58.7698C53.9086 59.319 54.6108 59.5071 55.1599 59.19C55.7091 58.873 55.8973 58.1708 55.5802 57.6217C55.2631 57.0725 54.5609 56.8843 54.0118 57.2014Z" fill="#EFC950"/>
<path d="M22.2092 355.747C22.0947 355.551 22.041 355.325 22.055 355.098C22.069 354.871 22.15 354.654 22.2878 354.473C22.4256 354.292 22.6139 354.156 22.8289 354.083C23.044 354.009 23.276 354.001 23.4957 354.059C23.7154 354.118 23.9128 354.24 24.063 354.41C24.2131 354.581 24.3092 354.792 24.3392 355.018C24.3691 355.243 24.3315 355.472 24.231 355.676C24.1306 355.88 23.9719 356.05 23.7751 356.163C23.5121 356.315 23.1998 356.356 22.9063 356.279C22.6128 356.201 22.3622 356.01 22.2092 355.747Z" fill="#EFC950"/>
<path d="M64.1311 314.309C64.0163 314.112 63.9723 313.88 64.0046 313.643C64.0369 313.405 64.144 313.173 64.3124 312.974C64.4808 312.776 64.7029 312.621 64.9505 312.529C65.1981 312.437 65.46 312.412 65.7029 312.458C65.9459 312.503 66.159 312.617 66.3152 312.785C66.4714 312.952 66.5636 313.166 66.5802 313.399C66.5968 313.632 66.5369 313.873 66.4083 314.093C66.2796 314.312 66.0879 314.5 65.8576 314.632C65.5513 314.809 65.1973 314.874 64.8735 314.813C64.5497 314.753 64.2827 314.571 64.1311 314.309Z" fill="#EFC950"/>
<path d="M46.6984 232.448C46.0577 232.818 45.7954 233.563 46.1124 234.112C46.4295 234.661 47.2059 234.806 47.8465 234.436C48.4872 234.066 48.7496 233.321 48.4325 232.772C48.1155 232.223 47.3391 232.078 46.6984 232.448Z" fill="#EFC950"/>
<path d="M70.4443 198.182C70.3128 197.952 70.2427 197.694 70.2427 197.441C70.2428 197.187 70.313 196.95 70.4445 196.758C70.576 196.566 70.763 196.428 70.9817 196.362C71.2005 196.296 71.4413 196.305 71.6737 196.388C71.9061 196.47 72.1197 196.622 72.2875 196.825C72.4554 197.028 72.5699 197.273 72.6168 197.528C72.6636 197.783 72.6406 198.038 72.5506 198.259C72.4607 198.481 72.3078 198.659 72.1113 198.773C71.9804 198.849 71.8333 198.893 71.6785 198.904C71.5238 198.916 71.3644 198.893 71.2095 198.838C71.0546 198.783 70.9072 198.697 70.7759 198.584C70.6446 198.472 70.5319 198.335 70.4443 198.182Z" fill="#EFC950"/>
<path d="M89.5024 31.4136C89.3878 31.217 89.3342 30.9909 89.3483 30.7638C89.3624 30.5367 89.4437 30.319 89.5818 30.1382C89.7199 29.9574 89.9086 29.8217 90.124 29.7483C90.3393 29.6749 90.5716 29.6672 90.7914 29.7261C91.0111 29.785 91.2085 29.9078 91.3583 30.079C91.5081 30.2503 91.6037 30.4621 91.6329 30.6878C91.6621 30.9134 91.6236 31.1426 91.5223 31.3463C91.421 31.55 91.2614 31.7191 91.0639 31.832C90.8014 31.9835 90.4894 32.0246 90.1965 31.9462C89.9037 31.8677 89.654 31.6761 89.5024 31.4136Z" fill="#EFC950"/>
<path d="M41.8823 163.637C41.2416 164.007 40.9793 164.752 41.2963 165.301C41.6134 165.85 42.3898 165.995 43.0304 165.626C43.6711 165.256 43.9335 164.511 43.6164 163.961C43.2994 163.412 42.523 163.267 41.8823 163.637Z" fill="#EFC950"/>
<path d="M105.131 268.977C104.582 269.294 104.437 270.071 104.807 270.711C105.176 271.352 105.921 271.614 106.471 271.297C107.02 270.98 107.165 270.204 106.795 269.563C106.425 268.923 105.68 268.66 105.131 268.977Z" fill="#EFC950"/>
<path d="M149.042 87.8477C148.909 87.6183 148.838 87.3603 148.837 87.1065C148.837 86.8526 148.906 86.6143 149.037 86.4216C149.168 86.2289 149.355 86.0905 149.573 86.0239C149.792 85.9573 150.033 85.9655 150.266 86.0474C150.498 86.1294 150.713 86.2814 150.881 86.4843C151.049 86.6872 151.164 86.9318 151.211 87.1872C151.258 87.4426 151.235 87.6974 151.146 87.9193C151.056 88.1411 150.903 88.3202 150.706 88.4337C150.442 88.5859 150.119 88.6098 149.807 88.4999C149.495 88.39 149.22 88.1554 149.042 87.8477Z" fill="#EFC950"/>
<path d="M18.2305 303.2C17.9799 303.281 17.7188 303.293 17.4803 303.236C17.2418 303.179 17.0368 303.054 16.8911 302.879C16.7455 302.703 16.6658 302.483 16.6622 302.248C16.6587 302.013 16.7314 301.773 16.8711 301.559C17.0108 301.344 17.2113 301.165 17.4471 301.043C17.6828 300.921 17.9432 300.863 18.1953 300.875C18.4473 300.888 18.6796 300.97 18.8627 301.113C19.0458 301.255 19.1714 301.451 19.2236 301.675C19.2931 301.973 19.2278 302.301 19.0418 302.587C18.8558 302.872 18.5642 303.093 18.2305 303.2Z" fill="#EFC950"/>
<path d="M28.4884 102.831C28.238 102.91 27.9774 102.922 27.7397 102.864C27.502 102.806 27.2978 102.681 27.1529 102.505C27.008 102.329 26.9289 102.11 26.9256 101.876C26.9223 101.641 26.995 101.402 27.1345 101.187C27.274 100.973 27.4739 100.794 27.7091 100.672C27.9443 100.551 28.2042 100.492 28.4559 100.504C28.7076 100.516 28.9398 100.598 29.1231 100.739C29.3064 100.88 29.4327 101.075 29.4859 101.298C29.5212 101.447 29.5235 101.604 29.4924 101.761C29.4614 101.919 29.3978 102.073 29.3052 102.215C29.2125 102.357 29.0927 102.485 28.9526 102.591C28.8124 102.696 28.6547 102.778 28.4884 102.831Z" fill="#EFC950"/>
</svg>
