<svg width="23" height="23" viewBox="0 0 23 23" fill="none" xmlns="http://www.w3.org/2000/svg">
<path d="M22.4783 8.02537C23.1421 10.1764 23.1531 12.4759 22.5101 14.6332C21.867 16.7905 20.5987 18.7087 18.8656 20.1452C17.1324 21.5817 15.0122 22.4721 12.7731 22.7037C10.5339 22.9354 8.27635 22.4978 6.28584 21.4465C4.29533 20.3952 2.66125 18.7772 1.59022 16.7972C0.519186 14.8172 0.0592963 12.5642 0.2687 10.3228C0.478104 8.08148 1.3474 5.95255 2.76667 4.20523C4.18593 2.45791 6.09143 1.17066 8.24224 0.506234C11.1272 -0.383993 14.2475 -0.0919723 16.9172 1.31807C19.5868 2.72812 21.5872 5.14073 22.4783 8.02537Z" fill="#EFCC4E"/>
<path fill-rule="evenodd" clip-rule="evenodd" d="M10.8006 2.64375C10.7332 2.55918 10.6873 2.45951 10.6669 2.35331C10.6627 2.1389 10.7336 1.92977 10.8674 1.76219C11.2841 1.11818 11.7846 0.53247 12.3558 0.0205078C13.0274 0.064959 13.6939 0.168573 14.3473 0.330142C14.204 0.497355 14.0426 0.668572 13.8882 0.832468C13.6331 1.10311 13.3969 1.35379 13.2917 1.53349C13.0726 1.95907 12.7698 2.33604 12.4015 2.64183C12.2157 2.79343 11.9922 2.8918 11.7549 2.9265C11.5176 2.9612 11.2754 2.93091 11.0539 2.83887C10.955 2.79528 10.868 2.72833 10.8006 2.64375ZM4.6124 17.7466L4.61227 17.7467L4.61213 17.7468L4.61199 17.7469L4.61174 17.7471C4.34379 17.9413 4.07641 18.1351 3.8093 18.3275C3.62674 18.4678 3.42627 18.606 3.22435 18.7453L3.2243 18.7453L3.22425 18.7453L3.22421 18.7454L3.22416 18.7454C3.15762 18.7913 3.09093 18.8373 3.02467 18.8835C2.03201 17.7477 1.27707 16.4245 0.804468 14.992C1.44455 14.1993 2.21571 13.5221 3.08448 12.9899C3.94012 12.4693 4.87971 12.095 5.81727 11.7216L5.81728 11.7216C7.08501 11.2165 8.34902 10.713 9.39676 9.85136C10.7418 8.74603 11.5593 7.19684 12.3811 5.63953C13.0191 4.43066 13.6596 3.21689 14.5514 2.20203C14.9818 1.71394 15.4671 1.2771 15.9976 0.900166C16.9599 1.302 17.8621 1.83481 18.6787 2.48351C17.4574 3.4818 16.4416 4.70786 15.6879 6.09355C15.4814 6.41816 15.3603 6.78976 15.3361 7.17375C15.3537 7.95135 16.1313 8.53893 16.9053 8.6269C17.6794 8.71486 18.443 8.42986 19.1678 8.14838L22.1058 7.01541C22.2474 7.35016 22.3719 7.6919 22.4787 8.03931C22.7634 8.9526 22.9301 9.89855 22.9748 10.8541C21.4581 11.5462 19.6801 11.7217 17.8995 11.8975C16.8919 11.9969 15.8834 12.0964 14.9209 12.2897C11.0747 13.0622 7.80329 15.4336 4.6124 17.7466ZM16.2156 17.4725C15.3392 17.6236 14.4864 17.8885 13.6787 18.2607C13.5921 18.2961 13.5025 18.3322 13.4108 18.3691L13.4108 18.3691L13.4107 18.3691L13.4107 18.3691L13.4107 18.3691L13.4107 18.3691C12.556 18.7128 11.5156 19.1311 10.9659 19.8651C10.0863 21.0474 11.6028 20.8433 12.3909 20.5688L16.2613 19.2248C16.5849 19.1369 16.8861 18.981 17.1445 18.7674C17.2716 18.6581 17.3617 18.5122 17.4027 18.3497C17.4436 18.1872 17.4333 18.016 17.3732 17.8596C17.1762 17.4725 16.6449 17.4197 16.2156 17.4725ZM3.72472 11.4136C4.07141 11.2521 4.42581 11.1071 4.78052 10.962C5.05941 10.8479 5.3385 10.7337 5.61418 10.6114C7.59618 9.71748 9.33487 8.36127 10.6844 6.65653C10.8527 6.46449 10.9732 6.23543 11.0363 5.988C11.1594 5.39336 10.607 4.82689 10.0124 4.71077C9.40634 4.64953 8.79551 4.76437 8.25309 5.04152C5.41597 6.2327 2.75104 7.79828 0.329314 9.69655C0.135661 10.9978 0.169004 12.3228 0.427844 13.6127C0.97211 13.2973 1.52397 12.8945 2.05097 12.5099C2.65848 12.0665 3.23297 11.6472 3.72472 11.4136ZM19.1465 13.1131C18.6437 13.1802 18.1368 13.2393 17.6289 13.2985C15.2618 13.5746 12.8739 13.853 10.7794 14.9568C9.25587 15.7625 7.96456 16.9624 6.72603 18.1446L4.76269 20.0024C4.69936 20.0587 4.59378 20.1466 4.46008 20.2522C5.28384 20.9118 6.19427 21.4552 7.16584 21.8672C7.90326 21.4058 8.48994 20.7262 9.07979 20.0428C9.49751 19.5589 9.91682 19.0732 10.3924 18.6618C11.3952 17.7927 12.6372 17.2544 13.8722 16.7935C15.6385 16.1132 17.4295 15.5092 19.245 14.9814C20.4241 14.6687 21.5837 14.2869 22.7178 13.8379C22.8209 13.374 22.8938 12.9038 22.936 12.4305C21.6834 12.7143 20.4202 12.9418 19.1465 13.1131ZM2.75798 6.18885C2.28213 6.48618 1.67485 6.86562 1.14217 6.89226C1.92701 5.06214 3.17851 3.47011 4.77156 2.27533C6.3646 1.08055 8.24336 0.324874 10.22 0.0838604C10.0187 0.762705 9.60726 1.36019 9.04484 1.79036C7.25746 3.40206 5.28498 4.79579 3.16886 5.94225C3.04999 6.00639 2.91076 6.09339 2.75798 6.18885Z" fill="#FC6309" fill-opacity="0.54"/>
<g style="mix-blend-mode:multiply">
<path d="M20.3112 4.05664C20.8888 6.54749 20.6109 9.16028 19.5223 11.4739C18.4336 13.7875 16.5977 15.6672 14.3104 16.8101C12.0231 17.9529 9.41758 18.2924 6.91381 17.7736C4.41003 17.2549 2.15382 15.9083 0.508797 13.9508C0.89572 15.6292 1.65839 17.198 2.73939 18.539C3.8204 19.8799 5.19156 20.9582 6.74963 21.6925C8.30769 22.4268 10.012 22.7981 11.7344 22.7784C13.4567 22.7586 15.1521 22.3484 16.6929 21.5785C18.2337 20.8086 19.5798 19.6992 20.6298 18.3338C21.6797 16.9684 22.4062 15.3826 22.7546 13.6957C23.1029 12.0089 23.064 10.265 22.6408 8.59534C22.2175 6.92571 21.421 5.37386 20.3112 4.05664Z" fill="#FDD483"/>
</g>
</svg>
