<svg xmlns="http://www.w3.org/2000/svg" width="300" height="65" viewBox="0 0 300 65" fill="none">
<path d="M273.018 21.3814C275.942 21.3814 278.122 23.1482 278.942 26.4185L284.798 24.7871C284.047 19.2764 279.22 15.7353 273.16 15.7353C266.763 15.7353 261.522 19.4793 261.522 25.6742C261.522 30.779 264.928 33.5006 270.168 35.6131C273.642 37.1092 276.904 38.267 276.904 41.3946C276.904 43.8454 274.657 45.2062 271.867 45.2062C268.123 45.2062 266.011 43.026 265.266 39.4925L259.004 41.3269L259.041 41.5073C260.32 47.5218 264.928 51.1229 272.138 51.1229C278.333 51.1229 283.911 47.7849 283.911 41.5224C283.911 35.5981 280.1 32.8089 273.972 30.4933C270.702 29.2002 268.394 28.2454 268.394 25.5239C268.394 22.9452 270.296 21.3814 273.018 21.3814Z" fill="#2F2F2F"/>
<path d="M294.79 15.9083C291.918 15.9083 289.58 18.2464 289.58 21.1183C289.58 23.9902 291.918 26.3283 294.79 26.3283C297.662 26.3283 300 23.9902 300 21.1183C300 18.2464 297.662 15.9083 294.79 15.9083ZM294.79 25.554C292.339 25.554 290.347 23.5617 290.347 21.1108C290.347 18.6599 292.339 16.6751 294.79 16.6751C297.241 16.6751 299.233 18.6674 299.233 21.1108C299.233 23.5617 297.241 25.554 294.79 25.554Z" fill="#2F2F2F"/>
<path d="M242.073 40.2969L231.728 16.412H223.902L238.397 48.9427L228.323 64.054H236.284L244.795 51.3259L258.748 16.412H251.328L242.073 40.2969Z" fill="#2F2F2F"/>
<path d="M294.617 21.4942H294.647C295.685 21.4867 296.263 20.9604 296.263 20.0507C296.263 19.1786 295.692 18.5621 294.594 18.5621H292.948V23.682H293.707V21.7273L295.602 23.682H296.617L294.504 21.5017H294.617V21.4942ZM293.722 19.2764H294.609H294.64C295.211 19.2839 295.504 19.6072 295.504 20.0582C295.504 20.5244 295.203 20.8702 294.609 20.8702H293.722V19.2764Z" fill="#2F2F2F"/>
<path d="M152.946 0.00751495H145.594V50.4463H152.946V0.00751495Z" fill="#2F2F2F"/>
<path d="M93.4181 51.1455V29.9144L104.379 23.1031V15.4121L92.5385 22.9677L91.3807 17.1112H84.5693L86.2759 25.9599V51.1455H93.4181Z" fill="#2F2F2F"/>
<path d="M209.46 21.3814C212.384 21.3814 214.565 23.1482 215.384 26.4185L221.241 24.7871C220.489 19.2764 215.662 15.7353 209.603 15.7353C203.205 15.7353 197.965 19.4793 197.965 25.6742C197.965 30.779 201.37 33.5006 206.61 35.6131C210.084 37.1092 213.347 38.267 213.347 41.3946C213.347 43.8454 211.099 45.2062 208.309 45.2062C204.565 45.2062 202.453 43.026 201.709 39.4925L195.446 41.3269L195.484 41.5073C196.762 47.5218 201.37 51.1229 208.58 51.1229C214.775 51.1229 220.353 47.7849 220.353 41.5224C220.353 35.5981 216.542 32.8089 210.415 30.4933C207.144 29.2002 204.836 28.2454 204.836 25.5239C204.836 22.9452 206.738 21.3814 209.46 21.3814Z" fill="#2F2F2F"/>
<path d="M131.873 40.9811L131.828 41.0412C130.392 43.1237 127.889 44.8604 124.182 44.8604C118.739 44.8604 115.198 41.5224 114.446 35.741H138.271L138.309 35.4026C139.459 24.336 134.219 15.7278 123.506 15.7278C113.702 15.7278 107.439 23.2835 107.439 33.6284C107.439 44.1086 113.973 51.1229 123.912 51.1229C129.768 51.1229 134.941 48.4691 137.316 44.3191L131.873 40.9811ZM114.544 30.2753C115.469 25.1931 118.649 21.9227 123.566 21.9227C129.144 21.9227 131.798 26.2757 131.798 30.4332H114.506L114.544 30.2753Z" fill="#2F2F2F"/>
<path d="M183.598 40.9811L183.552 41.0412C182.117 43.1237 179.613 44.8604 175.907 44.8604C170.463 44.8604 166.922 41.5224 166.171 35.741H189.995L190.033 35.4026C191.183 24.336 185.943 15.7278 175.23 15.7278C165.426 15.7278 159.164 23.2835 159.164 33.6284C159.164 44.1086 165.697 51.1229 175.636 51.1229C181.493 51.1229 186.665 48.4691 189.041 44.3191L183.598 40.9811ZM166.268 30.2753C167.193 25.1931 170.373 21.9227 175.29 21.9227C180.869 21.9227 183.522 26.2757 183.522 30.4332H166.231L166.268 30.2753Z" fill="#2F2F2F"/>
<path d="M65.09 27.9823C65.0825 27.9748 65.075 27.9597 65.0675 27.9522C65.0599 27.9447 65.0524 27.9297 65.0524 27.9221C63.203 24.9149 59.692 23.0429 55.918 23.4639C55.2413 23.5391 54.5797 23.6895 53.9557 23.9C53.0912 24.1932 52.3093 24.6668 51.6176 25.2607C50.7906 25.975 49.5501 27.0425 49.5501 27.0425L32.1533 42.0787C32.048 42.1689 31.9353 42.2516 31.83 42.3418C30.4016 43.4695 29.6573 45.3866 30.2587 47.4015C30.364 47.7548 30.5144 48.0856 30.6948 48.3939C30.7023 48.4014 30.7098 48.4164 30.7173 48.4239C30.7249 48.4315 30.7324 48.4465 30.7324 48.454C30.9203 48.7623 31.1459 49.0479 31.409 49.3036C32.9201 50.7771 34.9801 51.0252 36.6491 50.3035C36.7769 50.2508 36.9047 50.1907 37.0325 50.1456L58.5944 41.9659C58.5944 41.9659 60.1206 41.387 61.1505 40.9961C62.0001 40.6728 62.7895 40.2067 63.4586 39.5902C63.9397 39.1391 64.3833 38.6354 64.7667 38.0716C66.9244 34.9666 66.9019 31.0121 65.09 27.9823Z" fill="#EA6F63"/>
<path d="M30.6873 31.7413C31.8602 29.9896 31.7098 27.9372 30.6798 26.4486C30.5971 26.3358 30.5219 26.2231 30.4468 26.1028L18.2374 6.66854C18.2374 6.66854 17.3728 5.29273 16.7864 4.368C16.3052 3.60116 15.6888 2.91701 14.952 2.39075C14.4182 2.00733 13.8318 1.67653 13.2003 1.40588C9.71941 -0.0977361 5.81 0.676626 3.15612 3.01475C3.1486 3.02227 3.14109 3.02979 3.12605 3.0373C3.11853 3.04482 3.11101 3.05234 3.09598 3.05986C0.479686 5.44309 -0.708171 9.21717 0.434577 12.8108C0.637565 13.4574 0.908216 14.0738 1.23901 14.6377C1.6901 15.4196 2.3141 16.0962 3.02831 16.6525C3.89289 17.3217 5.186 18.3216 5.186 18.3216L23.3948 32.3954C23.5076 32.4781 23.6128 32.5683 23.7181 32.6585C25.1014 33.8314 27.1463 34.1922 29.0258 33.2224C29.3566 33.0495 29.6498 32.8465 29.928 32.6059C29.9355 32.5984 29.943 32.5909 29.9581 32.5834C29.9656 32.5758 29.9731 32.5683 29.9881 32.5608C30.2362 32.3202 30.4768 32.0496 30.6873 31.7413Z" fill="#EA6F63"/>
<path d="M41.6562 16.615C46.2568 16.615 49.9862 12.8956 49.9862 8.30748C49.9862 3.71938 46.2568 0 41.6562 0C37.0557 0 33.3262 3.71938 33.3262 8.30748C33.3262 12.8956 37.0557 16.615 41.6562 16.615Z" fill="#EA6F63"/>
<head xmlns=""/>
</svg>