<svg xmlns="http://www.w3.org/2000/svg" version="1.1" x="0px" y="0px" viewBox="-60 -11 140 42" enable-background="new -60 -11 140 42" xml:space="preserve">
    <rect x="-59.5" y="-10.5" fill="#FFFFFF" width="139" height="41"/>
    <path fill="#0089FF" d="M80,31H-60v-42H80V31z M-59,30H79v-40H-59V30z"/>
    <path fill="#0089FF" d="M-38.4,11.8v5.7h-2.3V3.2h4c1.8,0,3.2,0.3,4.1,1c0.9,0.7,1.3,1.7,1.3,3.1c0,1.8-0.9,3-2.8,3.8l4,6.3h-2.7 l-3.4-5.7h-2.2V11.8z M-38.4,9.9h1.6c1.1,0,1.9-0.2,2.4-0.6s0.7-1,0.7-1.8s-0.3-1.4-0.8-1.7s-1.3-0.5-2.4-0.5h-1.5 C-38.4,5.3-38.4,9.9-38.4,9.9z"/>
    <path fill="#0089FF" d="M-28.1,3.8c0-0.4,0.1-0.7,0.3-0.9s0.5-0.3,1-0.3c0.4,0,0.7,0.1,0.9,0.3s0.3,0.5,0.3,0.9s-0.1,0.7-0.3,0.9 S-26.4,5-26.8,5s-0.7-0.1-1-0.3S-28.1,4.2-28.1,3.8z M-25.7,17.5H-28V6.7h2.3V17.5z"/>
    <path fill="#0089FF" d="M-17.9,17.7c-1.6,0-2.9-0.5-3.7-1.4s-1.3-2.3-1.3-4.1c0-1.8,0.4-3.2,1.3-4.2s2.2-1.5,3.9-1.5 c1.1,0,2.2,0.2,3.1,0.6L-15.3,9c-1-0.4-1.8-0.6-2.4-0.6c-1.9,0-2.8,1.2-2.8,3.7c0,1.2,0.2,2.1,0.7,2.7s1.1,0.9,2,0.9 c1,0,2-0.3,2.9-0.8v2c-0.4,0.2-0.8,0.4-1.3,0.5S-17.2,17.7-17.9,17.7z"/>
    <path fill="#0089FF" d="M-2.6,17.5h-2.3v-6.6c0-0.8-0.2-1.5-0.5-1.9S-6.3,8.4-7,8.4c-1,0-1.7,0.3-2.1,0.9s-0.7,1.5-0.7,2.9v5.4 h-2.3V2.3h2.3v3.9c0,0.6,0,1.3-0.1,2h0.1C-9.5,7.7-9.1,7.3-8.5,7s1.2-0.4,1.9-0.4c2.6,0,3.9,1.3,3.9,4L-2.6,17.5L-2.6,17.5z"/>
    <path fill="#0089FF" d="M1,3.2h4.2c2,0,3.4,0.3,4.3,0.9s1.3,1.5,1.3,2.7c0,0.8-0.2,1.5-0.6,2.1s-1,0.9-1.9,1V10 c1,0.2,1.7,0.6,2.2,1.1s0.7,1.3,0.7,2.3c0,1.3-0.4,2.3-1.3,3s-2.1,1.1-3.7,1.1H1V3.2z M3.4,9.1h2.2c1,0,1.7-0.2,2.1-0.5 S8.4,7.8,8.4,7c0-0.7-0.2-1.2-0.7-1.5S6.4,5.1,5.4,5.1h-2C3.4,5.1,3.4,9.1,3.4,9.1z M3.4,11v4.5h2.5c1,0,1.7-0.2,2.2-0.6 s0.7-1,0.7-1.8c0-0.7-0.3-1.3-0.8-1.7S6.8,11,5.7,11H3.4z"/>
    <path fill="#0089FF" d="M19.7,6.5c0.5,0,0.8,0,1.1,0.1l-0.2,2.1c-0.3-0.1-0.7-0.1-1-0.1c-0.9,0-1.7,0.3-2.2,0.9s-0.9,1.4-0.9,2.3 v5.6h-2.3V6.7H16l0.3,1.9h0.1c0.4-0.6,0.8-1.2,1.4-1.5S19,6.5,19.7,6.5z"/>
    <path fill="#0089FF" d="M29.8,17.5L29.3,16h-0.1c-0.5,0.7-1,1.1-1.6,1.3s-1.2,0.4-2,0.4c-1.1,0-1.9-0.3-2.5-0.9s-0.9-1.4-0.9-2.4 c0-1.1,0.4-2,1.2-2.5s2.1-0.9,3.8-0.9l1.9-0.1v-0.6c0-0.7-0.2-1.2-0.5-1.5s-0.8-0.5-1.5-0.5c-0.6,0-1.1,0.1-1.6,0.2s-1,0.4-1.5,0.6 l-0.7-1.6c0.6-0.3,1.2-0.5,1.9-0.7s1.4-0.2,2-0.2c1.4,0,2.4,0.3,3.1,0.9s1,1.5,1,2.8v7.3L29.8,17.5L29.8,17.5z M26.3,15.9 c0.8,0,1.5-0.2,2-0.7s0.8-1.1,0.8-2v-0.9l-1.4,0.1c-1.1,0-1.9,0.2-2.4,0.5s-0.7,0.8-0.7,1.5c0,0.5,0.1,0.9,0.4,1.1 S25.8,15.9,26.3,15.9z"/>
    <path fill="#0089FF" d="M34.7,3.8c0-0.4,0.1-0.7,0.3-0.9s0.5-0.3,1-0.3c0.4,0,0.7,0.1,0.9,0.3s0.3,0.5,0.3,0.9s-0.1,0.7-0.3,0.9 S36.4,5,36,5s-0.7-0.1-1-0.3S34.7,4.2,34.7,3.8z M37.1,17.5h-2.3V6.7h2.3V17.5z"/>
    <path fill="#0089FF" d="M50.1,17.5h-2.3v-6.6c0-0.8-0.2-1.5-0.5-1.9s-0.9-0.6-1.6-0.6c-1,0-1.7,0.3-2.1,0.9s-0.7,1.5-0.7,2.9v5.4 h-2.3V6.7h1.8l0.3,1.4h0.1c0.3-0.5,0.8-0.9,1.4-1.2s1.3-0.4,2-0.4c2.6,0,3.9,1.3,3.9,4C50.1,10.5,50.1,17.5,50.1,17.5z"/>
    <path fill="#0089FF" d="M60.7,14.4c0,1.1-0.4,1.9-1.2,2.4s-1.9,0.8-3.3,0.8s-2.6-0.2-3.5-0.7v-2c1.3,0.6,2.5,0.9,3.5,0.9 c1.4,0,2.1-0.4,2.1-1.3c0-0.3-0.1-0.5-0.2-0.7s-0.4-0.4-0.8-0.6s-0.9-0.4-1.5-0.7c-1.2-0.5-2.1-1-2.5-1.4s-0.7-1.1-0.7-1.9 c0-0.9,0.4-1.6,1.1-2.2s1.8-0.8,3-0.8c1.3,0,2.5,0.3,3.6,0.8l-0.7,1.7C58.4,8.2,57.5,8,56.7,8c-1.2,0-1.8,0.3-1.8,1 c0,0.3,0.2,0.6,0.5,0.9s1,0.6,2.1,1c0.9,0.3,1.5,0.7,1.9,0.9s0.7,0.6,0.9,1S60.7,13.9,60.7,14.4z"/>
</svg>