<?xml version="1.0" encoding="utf-8"?>
<!-- Generator: Adobe Illustrator 25.4.1, SVG Export Plug-In . SVG Version: 6.00 Build 0)  -->
<svg version="1.1" id="Слой_1" xmlns="http://www.w3.org/2000/svg" xmlns:xlink="http://www.w3.org/1999/xlink" x="0px" y="0px"
	 viewBox="0 0 301.5 143.3" style="enable-background:new 0 0 301.5 143.3;" xml:space="preserve">
<style type="text/css">
	.st0{fill:#FFFFFF;}
	.st1{fill-rule:evenodd;clip-rule:evenodd;fill:#D6C147;}
</style>
<g id="Layer_2">
	<g id="Layer_1-2">
		<g id="Layer_2-2">
			<g id="Layer_1-2-2">
				<path class="st0" d="M221.2,74.6c-4.3,0.1-7.7,3.3-7.8,7.3c0.1,3.9,3.6,7,7.8,6.9c0,0,0,0,0,0l0,0c4,0.1,7.4-2.9,7.5-6.7
					c0,0,0,0,0,0v-0.3C228.7,77.9,225.4,74.7,221.2,74.6C221.2,74.6,221.2,74.6,221.2,74.6L221.2,74.6z M231,93.4
					c-1.3-0.1-2.4-1.1-2.4-2.4c-2.1,1.6-4.7,2.5-7.5,2.4c-6.8,0.2-12.5-4.8-12.7-11.2c0,0,0,0,0,0c0-0.1,0-0.2,0-0.4
					c0-6.5,5.6-11.8,12.6-11.9c0,0,0,0,0,0h0.1c6.8,0,12.4,5.1,12.4,11.5c0,0,0,0,0,0V91c0.1,1.2-1,2.3-2.3,2.3c0,0-0.1,0-0.1,0
					C231.1,93.4,231.1,93.4,231,93.4L231,93.4z M192.8,74.4c-4.2,0-7.6,3.2-7.6,7.1l0,0c0,4,3.4,7.2,7.6,7.2s7.7-3.2,7.7-7.1
					C200.5,77.6,197.1,74.4,192.8,74.4C192.9,74.4,192.9,74.4,192.8,74.4L192.8,74.4L192.8,74.4z M192.8,93.4
					c-7,0-12.6-5.3-12.6-11.8V60.5c0-1.3,1.1-2.3,2.5-2.3s2.5,1,2.5,2.3v11.7c5.6-3.9,13.5-2.9,17.7,2.4c4.2,5.2,3.1,12.6-2.5,16.5
					C198.2,92.6,195.5,93.4,192.8,93.4L192.8,93.4z M164.8,74.6c-4.3,0-7.8,3.3-7.8,7.3c0.1,3.9,3.6,7,7.8,6.9l0,0
					c4,0.1,7.4-2.9,7.4-6.6c0,0,0,0,0,0c0-0.1,0-0.2,0-0.3C172.4,77.9,169.1,74.7,164.8,74.6L164.8,74.6z M174.7,93.4
					c-1.3-0.1-2.4-1.1-2.4-2.4c-2.1,1.6-4.7,2.4-7.5,2.4c-6.8,0.2-12.5-4.8-12.7-11.2c0,0,0,0,0,0c0-0.1,0-0.3,0-0.4
					c0-6.5,5.6-11.8,12.6-11.9h0.2c6.8,0,12.4,5.2,12.4,11.5c0,0,0,0,0,0v9.5c0,1.3-1,2.3-2.4,2.4H174.7z M136.5,74.4
					c-4.2,0-7.6,3.2-7.6,7.1l0,0c0,4,3.4,7.2,7.6,7.2s7.7-3.2,7.7-7.1C144.2,77.6,140.8,74.4,136.5,74.4
					C136.5,74.4,136.5,74.4,136.5,74.4L136.5,74.4L136.5,74.4z M136.5,93.4c-6.9,0-12.6-5.3-12.6-11.8V60.5c0-1.3,1.1-2.3,2.5-2.3
					s2.5,1,2.5,2.3v11.7c5.6-3.9,13.5-2.9,17.7,2.4c4.2,5.2,3.1,12.6-2.5,16.5C141.9,92.6,139.3,93.4,136.5,93.4L136.5,93.4z
					 M108.6,74.6c-4.3,0.1-7.7,3.3-7.8,7.3c0.1,3.9,3.6,7,7.8,6.9c0,0,0,0,0,0l0,0c4,0.1,7.4-2.9,7.4-6.7c0,0,0,0,0,0v-0.3
					C116.1,77.9,112.8,74.7,108.6,74.6C108.6,74.6,108.6,74.6,108.6,74.6L108.6,74.6z M118.4,93.4c-1.3-0.1-2.4-1.1-2.4-2.4
					c-2.1,1.6-4.7,2.5-7.4,2.4c-6.8,0.2-12.5-4.8-12.7-11.1c0,0,0,0,0-0.1c0-0.1,0-0.3,0-0.4c0-6.5,5.6-11.8,12.6-11.8h0.2
					c6.8,0,12.4,5.1,12.4,11.5c0,0,0,0,0,0V91c0.1,1.2-1,2.3-2.3,2.3c0,0,0,0,0,0C118.5,93.4,118.5,93.4,118.4,93.4z M89.9,70.2
					c-1,0-1.9-0.5-2.3-1.4l0,0c-0.3-0.6-0.8-1.2-1.5-1.6c-1.7-1.1-3.7-1.7-5.8-1.6c-0.6-0.1-1.3-0.1-1.9,0c-1.9,0.4-3.5,1.7-4.1,3.4
					c-0.5,1.4-0.1,3,1.1,4c1.3,1.2,2.9,1.4,5.5,1.7c2.7,0.1,5.4,0.9,7.6,2.3c2.3,1.7,3.7,4.2,3.9,6.9c-0.2,2.4-1.3,4.7-3.1,6.4
					c-2.2,1.9-5,2.9-8,2.8c-0.1,0-0.2,0-0.3,0c-3,0-5.9-0.8-8.3-2.4c-1.3-0.9-2.4-2-3.3-3.3c-0.3-0.4-0.4-0.8-0.4-1.3
					c0-1.3,1.1-2.4,2.5-2.4l0,0l0,0c1,0,1.9,0.6,2.3,1.5c0.5,0.7,1.1,1.4,1.9,1.9c1.6,0.9,3.5,1.4,5.4,1.4c6,0.1,6.3-4.6,6.3-4.6
					c-0.1-1.3-0.9-2.5-2-3.3c-1.5-0.9-3.3-1.4-5.1-1.4c-2.8-0.3-5.9-0.7-8.4-3.1c-2.4-2.3-3.3-5.6-2.3-8.7c1.1-3.3,4.1-5.9,7.8-6.5
					c1-0.2,2-0.3,3-0.3c3.1-0.1,6.2,0.9,8.6,2.6c1.3,0.9,2.3,2.1,3,3.4c0.2,0.3,0.4,0.7,0.4,1.1c0,1.2-1,2.3-2.4,2.3L89.9,70.2z"/>
				<path class="st1" d="M148.4,50.6h4.8c0.3,0,0.5,0.2,0.5,0.5v0.7c0,0.3-0.2,0.5-0.5,0.5h-4.8c-0.2,0-0.4-0.3-0.4-0.5v-0.7
					C148,50.9,148.2,50.7,148.4,50.6L148.4,50.6z M147.5,48h6.7c0.3,0,0.5,0.2,0.5,0.5v0.8c0,0.3-0.3,0.5-0.5,0.5h-6.7
					c-0.3,0-0.5-0.2-0.5-0.5v-0.8C147,48.2,147.2,48,147.5,48z M137.5,34.2c0,0.3-0.2,0.5-0.5,0.5l0,0h-4.3c-0.3,0-0.5-0.2-0.5-0.5
					v-0.8c0-0.3,0.2-0.5,0.5-0.5c0,0,0,0,0,0h4.3c0.3,0,0.4,0.3,0.4,0.5L137.5,34.2z M140.2,24.4l-2.5-2.5c-0.3-0.3-0.3-0.9,0-1.2
					c0.3-0.3,0.9-0.3,1.2,0l2.5,2.5c0.3,0.3,0.3,0.9,0,1.2C141.1,24.7,140.6,24.7,140.2,24.4z M151.2,20.5h-0.8
					c-0.3,0-0.5-0.2-0.5-0.5c0,0,0,0,0,0v-4.3c0-0.3,0.2-0.5,0.5-0.5h0.8c0.3,0,0.5,0.2,0.5,0.5V20
					C151.7,20.2,151.5,20.5,151.2,20.5L151.2,20.5L151.2,20.5z M149.2,40l1.2-5.8l-3.2,1.4l5-8l-1,5.7l3.2-1.4L149.2,40z
					 M150.8,24.7c-5.1,0-9.1,4.2-9.1,9.2c0,3.9,2.5,7.4,6.2,8.6v2.5c0,0.2,0.1,0.3,0.3,0.3h5.2c0.2,0,0.3-0.1,0.3-0.3v-2.6
					c4.8-1.7,7.3-6.9,5.6-11.7C158.1,27.1,154.7,24.7,150.8,24.7L150.8,24.7z M155.8,44.2v2.2c0,0.4-0.3,0.7-0.7,0.7h-8.7
					c-0.4,0-0.7-0.3-0.7-0.7l0,0v-2.3c-5.7-2.8-8.2-9.7-5.4-15.4s9.7-8.2,15.4-5.4c5.7,2.8,8.2,9.7,5.4,15.4
					C160,41.2,158.1,43.1,155.8,44.2L155.8,44.2z M161.5,24.4c-0.3,0.3-0.9,0.3-1.3,0c0,0,0,0,0,0c-0.3-0.3-0.3-0.9,0-1.2
					c0,0,0,0,0,0l0,0l2.5-2.5c0.4-0.3,0.9-0.3,1.3,0c0.3,0.3,0.3,0.9,0,1.2c0,0,0,0,0,0l0,0L161.5,24.4z M169,34.7h-4.3
					c-0.3,0-0.5-0.2-0.5-0.5l0,0l0,0v-0.8c0-0.3,0.2-0.5,0.5-0.5l0,0h4.3c0.3,0,0.5,0.2,0.5,0.5l0,0v0.8
					C169.5,34.5,169.3,34.7,169,34.7z"/>
				<path class="st0" d="M186.1,107.4c-4.1,0-7,1.8-7,4.1c0,5.7,16.8,2.2,16.9,9.4c0,3.4-3.8,5.9-9.4,5.9s-9.9-2.9-9.9-7h2
					c0,3.2,3.3,5.5,8,5.5c4.3,0,7.3-1.9,7.3-4.2c0-5.7-16.9-2.3-16.9-9.4c0-3.3,3.6-5.8,9-5.8s9.5,2.8,9.5,6.5h-2
					C193.7,109.5,190.5,107.4,186.1,107.4L186.1,107.4z M163.7,108.1h-7.5v7.2h7.5c3.2,0,5.5-1.5,5.5-3.6S166.9,108.1,163.7,108.1
					L163.7,108.1z M156.3,124.7h7.2c3.7,0,6.4-1.7,6.4-3.9s-2.7-3.9-6.4-3.9h-7.2V124.7z M166.9,116c2.9,0.4,5,2.4,5,4.8
					c0,3.1-3.5,5.4-8.2,5.4h-9.5v-19.6h9.7c4.2,0,7.3,2.2,7.3,5.1C171.3,113.8,169.5,115.6,166.9,116L166.9,116z M139.4,108.1
					l-5.6,11.8h11.3L139.4,108.1z M148,126.2l-2.4-4.9h-12.6l-2.3,4.9h-2.2l9.3-19.6h2.9l9.3,19.6L148,126.2z M111.5,126.2v-19.6h2
					v18.1h13.1v1.5L111.5,126.2z"/>
			</g>
		</g>
	</g>
</g>
<script  xmlns=""></script>
</svg>
