<svg width="227" height="81" viewBox="0 0 227 81" fill="none" xmlns="http://www.w3.org/2000/svg">
<g clip-path="url(#clip0_99_1284)">
<path fill-rule="evenodd" clip-rule="evenodd" d="M33.9605 5.42657C33.9605 3.62313 32.4986 2.16113 30.6951 2.16113C28.8917 2.16113 27.4297 3.62313 27.4297 5.42657C27.4297 5.57201 27.4391 5.71523 27.4576 5.85565L5.3729 18.6062C4.80414 18.1252 4.06866 17.8352 3.26544 17.8352C1.46199 17.8352 0 19.2972 0 21.1007C0 22.5076 0.889807 23.7067 2.13737 24.166V42.0213C0.889807 42.4807 0 43.6798 0 45.0867C0 46.4937 0.889807 47.6928 2.13737 48.1521V62.1264C2.13737 62.7493 2.64243 63.2546 3.26544 63.2546C3.88845 63.2546 4.3935 62.7493 4.3935 62.1264V48.1521C4.67336 48.0492 4.9352 47.9088 5.17304 47.7373L27.4536 60.601C27.4377 60.7313 27.4297 60.864 27.4297 60.9984C27.4297 62.4053 28.3195 63.6045 29.5671 64.0638V77.9786C29.5671 78.6017 30.0722 79.1067 30.6951 79.1067C31.3181 79.1067 31.8231 78.6017 31.8231 77.9786V64.0638C33.0708 63.6045 33.9605 62.4053 33.9605 60.9984C33.9605 60.8605 33.952 60.7245 33.9353 60.5911L56.2089 47.7314C56.747 48.1219 57.409 48.3521 58.1247 48.3521C59.9282 48.3521 61.3903 46.8902 61.3903 45.0867C61.3903 43.6798 60.5003 42.4807 59.2529 42.0213V24.166C60.5003 23.7067 61.3903 22.5076 61.3903 21.1007C61.3903 19.2972 59.9282 17.8352 58.1247 17.8352C57.3181 17.8352 56.5795 18.1278 56.0097 18.6127L33.9313 5.86563C33.9506 5.72203 33.9605 5.57546 33.9605 5.42657ZM31.8231 37.0123C31.8231 37.6353 31.3181 38.1403 30.6951 38.1403C30.0722 38.1403 29.5671 37.6353 29.5671 37.0123C29.5671 36.3892 30.0722 35.8841 30.6951 35.8841C31.3181 35.8841 31.8231 36.3892 31.8231 37.0123ZM31.8231 5.42657C31.8231 6.04958 31.3181 6.55462 30.6951 6.55462C30.0722 6.55462 29.5671 6.04958 29.5671 5.42657C29.5671 4.80356 30.0722 4.29852 30.6951 4.29852C31.3181 4.29852 31.8231 4.80356 31.8231 5.42657ZM31.8231 60.9984C31.8231 61.6213 31.3181 62.1264 30.6951 62.1264C30.0722 62.1264 29.5671 61.6213 29.5671 60.9984C29.5671 60.3754 30.0722 59.8702 30.6951 59.8702C31.3181 59.8702 31.8231 60.3754 31.8231 60.9984ZM4.3935 21.1007C4.3935 21.7236 3.88845 22.2287 3.26544 22.2287C2.64243 22.2287 2.13737 21.7236 2.13737 21.1007C2.13737 20.4777 2.64243 19.9727 3.26544 19.9727C3.88845 19.9727 4.3935 20.4777 4.3935 21.1007ZM4.3935 45.0867C4.3935 45.7099 3.88845 46.2149 3.26544 46.2149C2.64243 46.2149 2.13737 45.7099 2.13737 45.0867C2.13737 44.4638 2.64243 43.9587 3.26544 43.9587C3.88845 43.9587 4.3935 44.4638 4.3935 45.0867ZM59.2529 21.1007C59.2529 21.7236 58.7478 22.2287 58.1247 22.2287C57.5017 22.2287 56.9967 21.7236 56.9967 21.1007C56.9967 20.4777 57.5017 19.9727 58.1247 19.9727C58.7478 19.9727 59.2529 20.4777 59.2529 21.1007ZM59.2529 45.0867C59.2529 45.7099 58.7478 46.2149 58.1247 46.2149C57.5017 46.2149 56.9967 45.7099 56.9967 45.0867C56.9967 44.4638 57.5017 43.9587 58.1247 43.9587C58.7478 43.9587 59.2529 44.4638 59.2529 45.0867ZM6.48762 20.5678C6.51607 20.7412 6.53087 20.9193 6.53087 21.1007C6.53087 21.293 6.51424 21.4813 6.48237 21.6647L24.5683 32.1064L29.5671 29.2205V8.49191C29.1736 8.34706 28.8157 8.12859 28.5099 7.8532L6.48762 20.5678ZM5.34882 23.6153C5.0665 23.8493 4.74414 24.037 4.3935 24.166V42.0213C4.92496 42.217 5.39151 42.5469 5.75198 42.97L22.3122 33.409L5.34882 23.6153ZM33.9009 36.3874C33.94 36.5897 33.9605 36.7986 33.9605 37.0123C33.9605 38.4193 33.0708 39.6184 31.8231 40.0775V57.933C32.2235 58.0803 32.587 58.304 32.896 58.586L54.9497 45.8532C54.8906 45.6074 54.8593 45.3507 54.8593 45.0867C54.8593 43.6798 55.7492 42.4807 56.9967 42.0213V24.166C56.643 24.0358 56.3179 23.846 56.0337 23.6088L33.9009 36.3874ZM27.4297 37.0123C27.4297 36.8019 27.4496 36.5963 27.4875 36.397L24.5683 34.7116L6.53064 45.1257C6.52769 45.3793 6.49581 45.626 6.43814 45.8626L28.4871 58.5927C28.7977 58.3074 29.1637 58.0815 29.5671 57.933V40.0775C28.3195 39.6184 27.4297 38.4193 27.4297 37.0123ZM26.8243 33.409L29.5671 31.8255L30.8139 31.0504C30.8753 31.0121 30.9348 30.9707 30.992 30.9266C31.4976 30.5356 31.8231 29.9231 31.8231 29.2346V8.49191C32.2136 8.3482 32.5689 8.13205 32.8729 7.85975L54.901 20.5777C54.8736 20.748 54.8593 20.9226 54.8593 21.1007C54.8593 21.2895 54.8753 21.4747 54.9061 21.6547L32.773 34.4333C32.2085 33.9674 31.4849 33.6874 30.6957 33.6874C29.9028 33.6874 29.1758 33.97 28.6101 34.44L26.8243 33.409Z" fill="url(#paint0_linear_99_1284)"/>
<path d="M81.4527 43.0919C79.909 43.0919 78.5196 42.8189 77.2847 42.2726C76.0735 41.7027 75.1116 40.9427 74.3993 39.9928C73.6868 39.019 73.3068 37.9385 73.2593 36.751H77.4628C77.5341 37.5823 77.9259 38.2829 78.6384 38.8528C79.3746 39.399 80.2888 39.6721 81.3814 39.6721C82.5214 39.6721 83.4 39.4583 84.0174 39.0309C84.6586 38.5797 84.9793 38.0098 84.9793 37.3211C84.9793 36.5848 84.6231 36.0387 83.9106 35.6823C83.2219 35.3262 82.1175 34.9343 80.5977 34.5069C79.1252 34.103 77.9259 33.7112 76.9998 33.3312C76.0735 32.9512 75.2661 32.3695 74.5774 31.5858C73.9123 30.802 73.58 29.7689 73.58 28.4865C73.58 27.4416 73.8887 26.4917 74.5061 25.6368C75.1236 24.758 76.0022 24.0693 77.1422 23.5705C78.3059 23.0719 79.6358 22.8225 81.132 22.8225C83.3643 22.8225 85.1574 23.3924 86.5111 24.5324C87.8885 25.6486 88.6247 27.1804 88.7196 29.1277H84.6586C84.5875 28.2491 84.2311 27.5484 83.5899 27.026C82.9488 26.5036 82.0819 26.2423 80.9895 26.2423C79.9208 26.2423 79.1015 26.4442 78.5314 26.8479C77.9615 27.2516 77.6765 27.786 77.6765 28.4509C77.6765 28.9735 77.8666 29.4128 78.2466 29.7689C78.6266 30.1251 79.0895 30.4102 79.6358 30.6239C80.1821 30.814 80.9895 31.0632 82.0582 31.3721C83.4831 31.7519 84.6468 32.1439 85.5492 32.5476C86.4755 32.9276 87.2709 33.4975 87.936 34.2575C88.601 35.0175 88.9454 36.0267 88.969 37.2855C88.969 38.4016 88.6603 39.399 88.0428 40.2778C87.4254 41.1564 86.5468 41.8451 85.4068 42.3439C84.2906 42.8425 82.9725 43.0919 81.4527 43.0919Z" fill="white"/>
<path d="M102.346 43.0919C100.493 43.0919 98.8191 42.6764 97.323 41.8451C95.8268 40.9902 94.6511 39.8027 93.7963 38.2829C92.9414 36.7392 92.5139 34.958 92.5139 32.9394C92.5139 30.9446 92.9532 29.1752 93.8318 27.6316C94.7106 26.0879 95.9099 24.9004 97.4297 24.0693C98.9497 23.2382 100.648 22.8225 102.524 22.8225C104.4 22.8225 106.098 23.2382 107.618 24.0693C109.138 24.9004 110.337 26.0879 111.216 27.6316C112.095 29.1752 112.534 30.9446 112.534 32.9394C112.534 34.9343 112.083 36.7036 111.18 38.2472C110.278 39.7909 109.043 40.9902 107.475 41.8451C105.932 42.6764 104.222 43.0919 102.346 43.0919ZM102.346 39.5653C103.391 39.5653 104.364 39.3159 105.267 38.8171C106.193 38.3185 106.941 37.5703 107.511 36.5729C108.081 35.5756 108.366 34.3642 108.366 32.9394C108.366 31.5145 108.093 30.3152 107.547 29.3415C107.001 28.3441 106.276 27.5959 105.374 27.0973C104.471 26.5985 103.498 26.3491 102.453 26.3491C101.408 26.3491 100.434 26.5985 99.5315 27.0973C98.6529 27.5959 97.9523 28.3441 97.4297 29.3415C96.9073 30.3152 96.6461 31.5145 96.6461 32.9394C96.6461 35.0531 97.1805 36.6917 98.2492 37.8554C99.3416 38.9954 100.707 39.5653 102.346 39.5653Z" fill="white"/>
<path d="M151.451 40.3487L158.005 23.321H160.641L152.84 42.7711H150.026L142.224 23.321H144.896L151.451 40.3487Z" fill="white"/>
<path d="M173.01 43.0561C171.181 43.0561 169.531 42.6525 168.058 41.845C166.61 41.0139 165.458 39.8502 164.603 38.354C163.772 36.834 163.356 35.0648 163.356 33.0462C163.356 31.0276 163.784 29.2702 164.639 27.774C165.494 26.254 166.657 25.0904 168.13 24.2829C169.602 23.4518 171.253 23.0361 173.081 23.0361C174.91 23.0361 176.56 23.4518 178.033 24.2829C179.529 25.0904 180.692 26.254 181.523 27.774C182.379 29.2702 182.807 31.0276 182.807 33.0462C182.807 35.041 182.379 36.7984 181.523 38.3184C180.67 39.8382 179.494 41.0139 177.997 41.845C176.501 42.6525 174.838 43.0561 173.01 43.0561ZM173.01 40.8833C174.292 40.8833 175.48 40.5982 176.572 40.0283C177.664 39.4346 178.543 38.5558 179.209 37.3921C179.897 36.2047 180.242 34.7561 180.242 33.0462C180.242 31.3363 179.91 29.8994 179.244 28.7358C178.579 27.5483 177.701 26.6697 176.609 26.0996C175.515 25.506 174.329 25.2092 173.046 25.2092C171.763 25.2092 170.576 25.506 169.483 26.0996C168.391 26.6697 167.512 27.5483 166.847 28.7358C166.206 29.8994 165.885 31.3363 165.885 33.0462C165.885 34.7561 166.206 36.2047 166.847 37.3921C167.512 38.5558 168.379 39.4346 169.448 40.0283C170.54 40.5982 171.728 40.8833 173.01 40.8833Z" fill="white"/>
<path d="M203.857 23.321L192.315 51.9263H189.715L193.49 42.6642L185.511 23.321H188.254L194.88 39.9212L201.292 23.321H203.857Z" fill="white"/>
<path d="M206.574 33.0106C206.574 31.0156 206.965 29.2702 207.749 27.774C208.556 26.254 209.661 25.0904 211.062 24.2829C212.487 23.4518 214.09 23.0361 215.871 23.0361C217.723 23.0361 219.315 23.4636 220.645 24.3186C221.998 25.1735 222.972 26.2659 223.565 27.5958V23.3212H226.059V42.7713H223.565V38.4608C222.948 39.7907 221.963 40.8951 220.609 41.7739C219.278 42.6287 217.689 43.0561 215.835 43.0561C214.078 43.0561 212.487 42.6406 211.062 41.8093C209.661 40.9782 208.556 39.8026 207.749 38.2827C206.965 36.7627 206.574 35.0053 206.574 33.0106ZM223.565 33.0462C223.565 31.4787 223.245 30.1013 222.603 28.9139C221.963 27.7264 221.083 26.8121 219.967 26.1709C218.875 25.5297 217.664 25.2092 216.334 25.2092C214.956 25.2092 213.722 25.5179 212.629 26.1353C211.537 26.7528 210.669 27.6553 210.029 28.8427C209.412 30.0064 209.102 31.3956 209.102 33.0106C209.102 34.6017 209.412 36.0029 210.029 37.214C210.669 38.4015 211.537 39.3158 212.629 39.957C213.722 40.5746 214.956 40.8833 216.334 40.8833C217.664 40.8833 218.875 40.5626 219.967 39.9213C221.083 39.2801 221.963 38.3659 222.603 37.1784C223.245 35.9909 223.565 34.6135 223.565 33.0462Z" fill="white"/>
<path d="M125.252 26.4562H124.097H121.619V42.7715H117.522V26.4562H115.207V23.1431H117.522V21.7539C117.522 19.4977 118.116 17.8591 119.303 16.8379C120.514 15.793 122.402 15.2705 124.967 15.2705V18.6548C123.732 18.6548 122.866 18.8922 122.367 19.3671C121.868 19.8184 121.619 20.6139 121.619 21.7539V23.1431H124.097H125.252H129.967V18.2628H134.064V23.1431H138.838V26.4562H134.064V37.3212C134.064 38.0574 134.23 38.5916 134.563 38.9242C134.919 39.2329 135.513 39.3873 136.344 39.3873H138.838V42.7715H135.632C133.803 42.7715 132.402 42.344 131.428 41.489C130.454 40.6341 129.967 39.2447 129.967 37.3212V26.4562H125.252Z" fill="white"/>
</g>
<defs>
<linearGradient id="paint0_linear_99_1284" x1="0" y1="40.5699" x2="61.4419" y2="40.5699" gradientUnits="userSpaceOnUse">
<stop stop-color="#49D1FF"/>
<stop offset="0.479167" stop-color="#9165DA"/>
<stop offset="1" stop-color="#744CC6"/>
</linearGradient>
<clipPath id="clip0_99_1284">
<rect width="226.087" height="80" fill="white" transform="translate(0 0.633789)"/>
</clipPath>
</defs>
</svg>
