<svg width="91" height="90" viewBox="0 0 91 90" fill="none" xmlns="http://www.w3.org/2000/svg">
<path d="M88.6698 31.704C91.2919 40.2015 91.3356 49.2858 88.7952 57.8081C86.2549 66.3305 81.2445 73.9081 74.3977 79.5831C67.5509 85.2581 59.1752 88.7754 50.3295 89.6905C41.4838 90.6055 32.5654 88.8771 24.7019 84.7238C16.8385 80.5705 10.3831 74.1789 6.15198 66.357C1.9209 58.5351 0.10412 49.6343 0.931364 40.78C1.75861 31.9256 5.19275 23.5154 10.7995 16.6126C16.4063 9.70991 23.9339 4.62465 32.4306 1.99986C43.8274 -1.51696 56.1544 -0.363334 66.7008 5.20701C77.2471 10.7774 85.1494 20.3083 88.6698 31.704Z" fill="#FFDE6E"/>
<path d="M53.9061 72.139C57.0968 70.6688 60.466 69.6221 63.928 69.0254C65.6238 68.8169 67.7226 69.0254 68.501 70.5544C68.7385 71.1724 68.7792 71.8486 68.6174 72.4906C68.4557 73.1326 68.0995 73.7089 67.5976 74.1406C66.5766 74.9845 65.3871 75.6006 64.1087 75.9476L48.8188 81.2573C45.7052 82.3415 39.7143 83.1477 43.1893 78.4773C45.594 75.2664 50.3755 73.5846 53.9061 72.139Z" fill="#F4911E"/>
<path d="M14.9168 72.403C28.5388 62.5896 42.3414 51.8589 58.8128 48.5507C69.3351 46.4379 81.2473 47.1607 90.6297 42.8796C90.4531 39.1045 89.7945 35.3676 88.6699 31.7596C88.2477 30.3872 87.7559 29.0371 87.1965 27.7147L75.5901 32.1905C72.7267 33.3025 69.7103 34.4284 66.6523 34.0809C63.5944 33.7334 60.5225 31.4121 60.453 28.3402C60.5489 26.8233 61.0271 25.3553 61.843 24.073C64.8205 18.5988 68.8332 13.7553 73.658 9.81161C70.4322 7.24894 66.8679 5.14407 63.0662 3.55664C60.9706 5.04569 59.0536 6.77143 57.3533 8.69963C49.2913 17.8736 46.428 31.1619 36.9899 38.9181C29.7898 44.8394 20.0042 46.4797 12.0535 51.3168C8.62139 53.4194 5.57497 56.0945 3.04633 59.2259C4.91334 64.8849 7.8957 70.1123 11.8172 74.5992C12.8736 73.8625 13.9577 73.1397 14.9168 72.403Z" fill="#F8AD40"/>
<path d="M14.5831 45.0896C17.0295 43.9498 19.5732 43.0185 22.0474 41.9205C29.8772 38.3891 36.7458 33.0315 42.0771 26.2969C42.7419 25.5383 43.2181 24.6334 43.4671 23.6559C43.9536 21.3068 41.7714 19.069 39.4223 18.6103C37.0282 18.3683 34.6151 18.822 32.4723 19.9169C21.2643 24.6226 10.7366 30.8074 1.16963 38.3065C0.404613 43.4471 0.536335 48.6814 1.55887 53.7771C6.18755 51.0944 10.9552 46.8132 14.5831 45.0896Z" fill="#F4911E"/>
<path d="M42.0077 9.2972C42.0884 9.71677 42.2697 10.1105 42.536 10.4446C42.8023 10.7787 43.1458 11.0432 43.5368 11.2154C44.4116 11.579 45.3686 11.6987 46.3061 11.5616C47.2435 11.4245 48.1263 11.0359 48.8604 10.437C50.3153 9.22899 51.5114 7.73978 52.3771 6.05854C53.0443 4.91874 55.0459 3.05613 56.5471 1.30474C53.9657 0.666471 51.333 0.257146 48.6797 0.081543C46.4232 2.10404 44.446 4.41785 42.8 6.96203C42.2714 7.62404 41.9911 8.45018 42.0077 9.2972Z" fill="#F4911E"/>
<path d="M75.5066 51.8035C64.2616 53.3047 52.5022 53.7912 42.4525 59.0871C36.4339 62.2702 31.3326 67.01 26.4398 71.6804L18.6837 79.0196C18.4335 79.242 18.0164 79.5895 17.4882 80.0065C20.7425 82.6123 24.3391 84.759 28.1773 86.3865C33.1534 83.2729 36.3922 77.6435 40.9236 73.7237C44.885 70.2904 49.7917 68.1637 54.6705 66.3428C61.6483 63.6555 68.7234 61.2694 75.8958 59.1844C80.5536 57.9492 85.1346 56.4407 89.615 54.6669C90.0221 52.8342 90.31 50.9769 90.4768 49.1069C85.5284 50.2282 80.5384 51.127 75.5066 51.8035Z" fill="#F8AD40"/>
<path d="M4.38068 27.2284C7.16066 27.0894 10.455 24.5179 12.387 23.4755C20.7467 18.9464 28.5389 13.4405 35.6 7.07351C37.8218 5.37415 39.4472 3.01379 40.2425 0.332031C32.4337 1.28415 25.0117 4.26942 18.7185 8.98937C12.4252 13.7093 7.48116 19.9986 4.38068 27.2284Z" fill="#F4911E"/>
<g style="mix-blend-mode:multiply">
<path d="M80.1075 16.0249C82.3892 25.865 81.2913 36.1867 76.9908 45.3266C72.6902 54.4665 65.4375 61.8923 56.4015 66.4071C47.3655 70.9219 37.0725 72.2627 27.1814 70.2136C17.2903 68.1644 8.37724 62.8446 1.87863 55.1115C3.40716 61.742 6.42007 67.9394 10.6905 73.2369C14.961 78.5344 20.3778 82.794 26.5329 85.6949C32.6879 88.5958 39.421 90.0625 46.225 89.9845C53.029 89.9065 59.7266 88.2858 65.8136 85.2445C71.9005 82.2032 77.2181 77.8205 81.366 72.4265C85.5139 67.0325 88.3839 60.7677 89.76 54.1038C91.1361 47.44 90.9824 40.5507 89.3104 33.9549C87.6385 27.3591 84.4918 21.2285 80.1075 16.0249Z" fill="#FDD483"/>
</g>
</svg>
