<svg width="246" height="71" viewBox="0 0 246 71" fill="none" xmlns="http://www.w3.org/2000/svg">
<path d="M0.284424 35.5C0.284424 15.8939 16.1783 0 35.7844 0H209.784C229.391 0 245.284 15.8939 245.284 35.5V35.5C245.284 55.1061 229.391 71 209.784 71H35.7844C16.1783 71 0.284424 55.1061 0.284424 35.5V35.5Z" fill="url(#paint0_linear_99_1010)"/>
<path d="M62.2728 21.9134C62.2807 21.9526 62.2845 21.9929 62.2831 22.0328C62.2811 22.0872 62.2721 22.1413 62.2666 22.1954C62.2571 22.2871 62.2676 22.3798 62.2662 22.4718C62.2648 22.5593 62.2514 22.6463 62.2487 22.7337C62.2481 22.7565 62.2474 22.7792 62.2467 22.8018C62.2437 22.9018 62.2258 23.0022 62.2267 23.1022C62.2275 23.1892 62.2123 23.276 62.2092 23.363C62.2091 23.3659 62.209 23.3688 62.2089 23.3717C62.2052 23.4767 62.1872 23.582 62.188 23.687C62.188 23.6896 62.188 23.6921 62.188 23.6947C62.1884 23.7749 62.1717 23.8545 62.1651 23.9344C62.1261 24.4055 62.087 24.8766 62.048 25.3478C61.9704 25.7359 61.9563 26.1383 61.9104 26.5359C61.8469 27.0897 61.7939 27.6483 61.7375 28.2021C61.6316 29.1867 61.5258 30.176 61.4199 31.1606C61.3705 31.544 61.314 31.9321 61.2717 32.3155C61.2258 32.7226 61.187 33.1297 61.1447 33.5368C61.0388 34.3983 60.9365 35.2645 60.8306 36.126C60.7177 36.8597 60.6365 37.6029 60.5554 38.3461C60.4813 38.9236 60.4072 39.501 60.3331 40.0833C60.2343 40.8028 60.1284 41.5223 60.0684 42.256C59.9308 43.1695 59.8144 44.0831 59.7191 45.0061C59.6238 45.4227 59.6027 45.8582 59.5462 46.2842C59.4686 46.8617 59.405 47.4392 59.3309 48.0167C59.2533 48.6415 59.0592 49.1906 58.7311 49.6497C58.3959 50.0331 58.0359 50.3408 57.5948 50.4497C57.0691 50.5728 56.5751 50.4781 56.1305 50.0758C53.2828 47.4818 50.414 44.9304 47.5841 42.2938C47.2488 41.9814 47.0618 41.5696 46.9948 41.0442C46.8183 39.9791 47.2559 39.2123 47.7499 38.5259C48.3039 37.7544 48.8897 37.0254 49.4754 36.2964C49.8989 35.8184 50.2941 35.2977 50.7105 34.8007C51.1057 34.3273 51.4903 33.8397 51.8855 33.3711C52.5312 32.5996 53.1417 31.7759 53.7839 30.9996C54.2109 30.4505 54.5849 29.8446 55.0119 29.2956C55.1601 29.1062 55.2483 28.879 55.2906 28.6139C55.3365 28.3204 55.2659 28.2116 55.0436 28.2636C54.8425 28.311 54.659 28.4293 54.479 28.5619C53.8015 29.0683 53.1734 29.6695 52.5418 30.2659C51.7655 30.9854 50.9963 31.7191 50.2235 32.4434C49.3731 33.2339 48.5297 34.0386 47.6652 34.8054C47.5009 34.9491 47.3436 35.1025 47.1812 35.2484C46.5053 35.8556 45.8213 36.4414 45.1317 37.0159C44.6906 37.3804 44.2495 37.7402 43.7978 38.081C43.2453 38.4968 42.5266 38.6451 41.8352 38.6353C40.9672 38.623 40.1232 38.3218 39.2812 37.9816C38.2155 37.5508 37.1781 37.0254 36.1689 36.3911C35.936 36.2444 35.7172 36.074 35.5231 35.842C35.0754 35.3072 35.5434 34.5508 36.1101 34.1441C36.1476 34.1173 36.1849 34.0901 36.2218 34.0622C36.2824 34.0165 36.3446 33.9748 36.4068 33.9338C36.747 33.7095 37.0671 33.422 37.418 33.2149C37.7038 33.0445 37.9826 32.8599 38.2614 32.68C39.0483 32.1925 39.8351 31.7049 40.6256 31.2126C41.2819 30.8245 41.9382 30.4363 42.5946 30.0482C43.1309 29.7736 43.6426 29.4186 44.1683 29.1062C44.7012 28.8553 45.2163 28.5477 45.7315 28.2352C46.2364 27.9342 46.7679 27.6573 47.2777 27.3648C47.3266 27.3367 47.3758 27.3095 47.4253 27.2838C47.8371 27.0743 48.2406 26.8394 48.6455 26.6169C48.6516 26.6135 48.6577 26.6102 48.6638 26.6069C49.2143 26.3087 49.7612 25.9916 50.3117 25.6791C51.148 25.2295 51.9843 24.7798 52.8171 24.3254C53.5955 23.8982 54.3737 23.4662 55.1592 23.052C55.2146 23.0228 55.2701 22.9943 55.3259 22.9668C55.3771 22.9411 55.4276 22.9124 55.4781 22.8825C55.5996 22.8106 55.6997 22.704 55.8236 22.6364C55.9023 22.5934 55.987 22.5723 56.0741 22.5583C56.0879 22.556 56.1019 22.5604 56.1147 22.5548C56.1267 22.5494 56.1365 22.5376 56.1481 22.5315C56.3118 22.4446 56.4786 22.358 56.6421 22.2757C56.8009 22.1905 56.9562 22.1053 57.115 22.0201C57.8101 21.6604 58.5052 21.2959 59.2039 20.9456C59.6567 20.712 60.1556 20.5554 60.6629 20.5084C60.7359 20.5016 60.8094 20.4985 60.8835 20.5007C61.7007 20.5192 62.066 20.8888 62.2728 21.9134Z" fill="#FEFEFE"/>
<path d="M97.1164 22.508H91.2844V44H88.6204V22.508H82.7884V19.988H97.1164V22.508ZM108.125 38.996L110.285 40.184C109.781 41.144 109.169 41.948 108.449 42.596C107.081 43.82 105.425 44.432 103.481 44.432C101.465 44.432 99.7251 43.784 98.2611 42.488C96.8211 41.168 96.1011 39.212 96.1011 36.62C96.1011 34.34 96.7491 32.456 98.0451 30.968C99.3651 29.456 101.129 28.7 103.337 28.7C105.833 28.7 107.717 29.612 108.989 31.436C109.997 32.876 110.465 34.748 110.393 37.052H98.7651C98.7891 38.564 99.2571 39.788 100.169 40.724C101.081 41.66 102.197 42.128 103.517 42.128C104.693 42.128 105.713 41.768 106.577 41.048C107.249 40.472 107.765 39.788 108.125 38.996ZM98.9451 34.892H107.729C107.513 33.716 106.997 32.78 106.181 32.084C105.389 31.364 104.441 31.004 103.337 31.004C102.257 31.004 101.297 31.376 100.457 32.12C99.6411 32.84 99.1371 33.764 98.9451 34.892ZM114.369 17.756H116.961V44H114.369V17.756ZM132.945 38.996L135.105 40.184C134.601 41.144 133.989 41.948 133.269 42.596C131.901 43.82 130.245 44.432 128.301 44.432C126.285 44.432 124.545 43.784 123.081 42.488C121.641 41.168 120.921 39.212 120.921 36.62C120.921 34.34 121.569 32.456 122.865 30.968C124.185 29.456 125.949 28.7 128.157 28.7C130.653 28.7 132.537 29.612 133.809 31.436C134.817 32.876 135.285 34.748 135.213 37.052H123.585C123.609 38.564 124.077 39.788 124.989 40.724C125.901 41.66 127.017 42.128 128.337 42.128C129.513 42.128 130.533 41.768 131.397 41.048C132.069 40.472 132.585 39.788 132.945 38.996ZM123.765 34.892H132.549C132.333 33.716 131.817 32.78 131.001 32.084C130.209 31.364 129.261 31.004 128.157 31.004C127.077 31.004 126.117 31.376 125.277 32.12C124.461 32.84 123.957 33.764 123.765 34.892ZM150.637 31.184V29.06H153.229V43.676C153.229 46.292 152.749 48.248 151.789 49.544C150.421 51.392 148.429 52.316 145.813 52.316C143.605 52.316 141.829 51.644 140.485 50.3C139.189 49.004 138.541 47.396 138.541 45.476H141.097C141.097 46.676 141.481 47.708 142.249 48.572C143.113 49.532 144.313 50.012 145.849 50.012C147.649 50.012 148.969 49.316 149.809 47.924C150.361 47.036 150.637 45.764 150.637 44.108V41.912C149.341 43.592 147.637 44.432 145.525 44.432C143.509 44.432 141.793 43.736 140.377 42.344C138.961 40.952 138.253 39.008 138.253 36.512C138.253 34.064 138.949 32.156 140.341 30.788C141.757 29.396 143.485 28.7 145.525 28.7C147.685 28.7 149.389 29.528 150.637 31.184ZM145.813 31.004C144.445 31.004 143.281 31.496 142.321 32.48C141.385 33.44 140.917 34.784 140.917 36.512C140.917 38.168 141.349 39.524 142.213 40.58C143.101 41.612 144.301 42.128 145.813 42.128C147.325 42.128 148.525 41.588 149.413 40.508C150.325 39.428 150.781 38.108 150.781 36.548C150.781 34.772 150.277 33.404 149.269 32.444C148.261 31.484 147.109 31.004 145.813 31.004ZM158.139 44V29.06H160.731V30.68C161.571 29.36 162.699 28.7 164.115 28.7C164.835 28.7 165.603 28.904 166.419 29.312L165.195 31.652C164.715 31.316 164.211 31.148 163.683 31.148C162.771 31.148 162.075 31.46 161.595 32.084C161.019 32.852 160.731 34.196 160.731 36.116V44H158.139ZM180.239 31.184V29.06H182.831V44H180.239V41.912C178.943 43.592 177.239 44.432 175.127 44.432C173.111 44.432 171.395 43.736 169.979 42.344C168.563 40.952 167.855 39.008 167.855 36.512C167.855 34.064 168.551 32.156 169.943 30.788C171.359 29.396 173.087 28.7 175.127 28.7C177.287 28.7 178.991 29.528 180.239 31.184ZM175.415 31.004C174.047 31.004 172.883 31.496 171.923 32.48C170.987 33.44 170.519 34.784 170.519 36.512C170.519 38.168 170.951 39.524 171.815 40.58C172.703 41.612 173.903 42.128 175.415 42.128C176.927 42.128 178.127 41.588 179.015 40.508C179.927 39.428 180.383 38.108 180.383 36.548C180.383 34.772 179.879 33.404 178.871 32.444C177.863 31.484 176.711 31.004 175.415 31.004ZM187.74 44V29.06H190.332V30.644C191.22 29.348 192.456 28.7 194.04 28.7C195.864 28.7 197.232 29.504 198.144 31.112C199.176 29.504 200.676 28.7 202.644 28.7C205.884 28.7 207.504 30.644 207.504 34.532V44H204.912V34.928C204.912 34.208 204.864 33.608 204.768 33.128C204.696 32.624 204.444 32.144 204.012 31.688C203.604 31.232 203.016 31.004 202.248 31.004C200.04 31.004 198.936 32.564 198.936 35.684V44H196.344V35.144C196.344 32.384 195.432 31.004 193.608 31.004C191.424 31.004 190.332 32.624 190.332 35.864V44H187.74Z" fill="white"/>
<defs>
<linearGradient id="paint0_linear_99_1010" x1="119.109" y1="74.55" x2="135.162" y2="-1.41531" gradientUnits="userSpaceOnUse">
<stop stop-color="#1E86C7"/>
<stop offset="1" stop-color="#37ADE1"/>
</linearGradient>
</defs>
</svg>
