<svg width="39" height="43" viewBox="0 0 39 43" fill="none" xmlns="http://www.w3.org/2000/svg">
<path d="M38.9832 2.02589C38.9946 2.08202 39.0001 2.13984 38.998 2.19708C38.9952 2.27503 38.9823 2.3525 38.9742 2.43008C38.9606 2.56152 38.9757 2.6944 38.9737 2.82627C38.9717 2.9516 38.9522 3.07642 38.9485 3.20171C38.9475 3.23432 38.9465 3.26685 38.9455 3.29923C38.9411 3.44249 38.9154 3.58646 38.9167 3.72978C38.9178 3.85459 38.8958 3.97896 38.8913 4.1037C38.8912 4.10783 38.891 4.11197 38.8909 4.1161C38.8855 4.26659 38.8595 4.41747 38.8607 4.56805C38.8607 4.57172 38.8607 4.57538 38.8607 4.57905C38.8612 4.69398 38.8372 4.80806 38.8276 4.9226C38.7712 5.5979 38.7149 6.2732 38.6585 6.9485C38.5464 7.50485 38.526 8.08155 38.4597 8.65147C38.368 9.44528 38.2915 10.2459 38.21 11.0397C38.0571 12.4509 37.9042 13.8689 37.7512 15.2801C37.6799 15.8297 37.5983 16.3861 37.5372 16.9356C37.4709 17.5191 37.4149 18.1026 37.3537 18.6861C37.2008 19.9209 37.053 21.1625 36.9001 22.3973C36.737 23.449 36.6197 24.5142 36.5025 25.5794C36.3955 26.4071 36.2884 27.2348 36.1814 28.0694C36.0387 29.1006 35.8858 30.1319 35.7991 31.1835C35.6003 32.493 35.4321 33.8024 35.2945 35.1255C35.1569 35.7225 35.1263 36.3467 35.0448 36.9573C34.9326 37.7851 34.8409 38.6128 34.7339 39.4406C34.6217 40.3361 34.3414 41.1232 33.8674 41.7813C33.3832 42.3308 32.8633 42.7719 32.2262 42.9279C31.4667 43.1043 30.7531 42.9686 30.1109 42.3919C25.9977 38.6739 21.8539 35.0169 17.7662 31.2378C17.2819 30.79 17.0118 30.1998 16.915 29.4467C16.6601 27.9201 17.2921 26.821 18.0057 25.8372C18.8059 24.7313 19.652 23.6864 20.4981 22.6416C21.1097 21.9563 21.6806 21.21 22.282 20.4976C22.8529 19.8191 23.4085 19.1203 23.9793 18.4486C24.9121 17.3427 25.7938 16.1622 26.7215 15.0495C27.3382 14.2624 27.8785 13.394 28.4952 12.607C28.7093 12.3356 28.8367 12.0099 28.8979 11.63C28.9641 11.2093 28.8622 11.0533 28.5411 11.1279C28.2506 11.1957 27.9855 11.3654 27.7256 11.5553C26.747 12.2813 25.8397 13.143 24.9274 13.9978C23.806 15.0291 22.6949 16.0807 21.5787 17.1188C20.3503 18.2519 19.1321 19.4053 17.8834 20.5044C17.6461 20.7104 17.4189 20.9302 17.1843 21.1393C16.208 22.0097 15.22 22.8494 14.2238 23.6728C13.5867 24.1953 12.9495 24.7109 12.2971 25.1994C11.4979 25.7962 10.4616 26.0077 9.46422 25.994C8.20971 25.9767 6.99006 25.5449 5.77305 25.0569C4.23377 24.4395 2.73527 23.6864 1.27755 22.7773C0.94115 22.5669 0.62514 22.3227 0.344808 21.9902C-0.30049 21.2254 0.373538 20.1395 1.18891 19.5593C1.24424 19.5199 1.29939 19.4801 1.354 19.4392C1.44132 19.3738 1.53083 19.3142 1.62048 19.2556C2.11198 18.934 2.57503 18.5216 3.08186 18.2247C3.49472 17.9805 3.89738 17.7159 4.30003 17.458C5.43665 16.7592 6.57327 16.0604 7.71498 15.3548C8.66301 14.7984 9.61104 14.2421 10.5591 13.6857C11.3338 13.2922 12.0729 12.7834 12.8323 12.3356C13.6019 11.976 14.3461 11.535 15.0903 11.0872C15.8195 10.6557 16.5869 10.2591 17.3232 9.83973C17.394 9.79938 17.4652 9.76029 17.5368 9.72345C18.1314 9.42323 18.7142 9.08676 19.2989 8.76772C19.3079 8.76285 19.3168 8.75802 19.3258 8.75324C20.1209 8.3258 20.911 7.87123 21.7061 7.42343C22.9141 6.77888 24.122 6.13434 25.3249 5.483C26.4492 4.87077 27.5732 4.25169 28.7075 3.65815C28.7876 3.61622 28.868 3.57527 28.9488 3.53579C29.0225 3.49903 29.0951 3.45813 29.1676 3.41557C29.3438 3.31214 29.4893 3.15839 29.6691 3.06137C29.7824 3.00021 29.9043 2.97025 30.0297 2.95018C30.0496 2.94699 30.0696 2.95326 30.0881 2.9452C30.1055 2.9376 30.1197 2.92056 30.1365 2.91171C30.373 2.78729 30.6138 2.66309 30.85 2.54522C31.0794 2.42309 31.3036 2.30097 31.533 2.17884C32.5371 1.6632 33.5412 1.14078 34.5504 0.638708C35.2047 0.303721 35.9249 0.0796329 36.6569 0.0121205C36.7626 0.00236639 36.8691 -0.00209892 36.9765 0.000944549C38.1569 0.0275752 38.6845 0.557248 38.9832 2.02589Z" fill="#FEFEFE"/>
</svg>
