<svg width="40" height="44" viewBox="0 0 40 44" fill="none" xmlns="http://www.w3.org/2000/svg">
<path d="M39.486 25.3134C40.7688 14.7662 38.8697 8.1074 35.444 5.09565L35.4458 5.0939C29.9167 -0.0493467 11.244 -0.810597 4.62913 5.3249C1.65854 8.32615 0.612209 12.7309 0.497542 18.1839C0.382876 23.6387 0.246709 33.8569 9.99517 36.6289H10.0041L9.99517 40.8622C9.99517 40.8622 9.92888 42.5772 11.0505 42.9219C12.3333 43.3279 12.9138 42.5317 16.9038 37.8767C23.576 38.4419 28.7002 37.1469 29.2825 36.9579C30.6298 36.5169 38.2533 35.5317 39.486 25.3134ZM17.5614 34.8982C17.5614 34.8982 13.3384 40.0414 12.0251 41.3767C11.5951 41.8107 11.1239 41.7704 11.1311 40.9094C11.1311 40.3442 11.1633 33.8814 11.1633 33.8814C2.89838 31.5679 3.38571 22.8669 3.47529 18.3152C3.56488 13.7617 4.41771 10.0324 6.93321 7.52115C12.7364 2.2064 29.1069 3.39465 33.2779 7.22365C38.377 11.6389 36.562 24.1129 36.5728 24.5382C35.5246 33.0677 29.347 33.6084 28.211 33.9777C27.7255 34.1352 23.2195 35.2674 17.5614 34.8982Z" fill="white"/>
<path d="M19.8977 8.52002C19.208 8.52002 19.208 9.57002 19.8977 9.57877C25.2495 9.61902 29.657 13.2625 29.7053 19.9458C29.7053 20.651 30.7624 20.6423 30.7535 19.937H30.7517C30.6943 12.7358 25.8819 8.56027 19.8977 8.52002Z" fill="white"/>
<path d="M26.9372 18.8378C26.9211 19.5343 27.9764 19.5676 27.9853 18.8623C28.0731 14.8916 25.5666 11.6208 20.8563 11.2761C20.1665 11.2271 20.0948 12.2858 20.7828 12.3348C24.8678 12.6376 27.0196 15.3606 26.9372 18.8378Z" fill="white"/>
<path d="M25.8084 23.3547C24.9233 22.8542 24.0221 23.1657 23.6495 23.6574L22.8701 24.6427C22.4741 25.1432 21.7342 25.0767 21.7342 25.0767C16.3341 23.6819 14.89 18.1624 14.89 18.1624C14.89 18.1624 14.8237 17.4152 15.3182 17.0144L16.2929 16.2269C16.7802 15.8489 17.0884 14.9389 16.5921 14.0447C15.2662 11.7049 14.3758 10.8982 13.9225 10.2787C13.4459 9.69593 12.7292 9.56468 11.9839 9.95843H11.9678C10.418 10.8439 8.72128 12.5012 9.26415 14.2074C10.1904 16.0064 11.8925 21.7412 17.3177 26.0742C19.8672 28.1234 23.9021 30.2234 25.6149 30.7082L25.631 30.7327C27.3188 31.2822 28.96 29.5602 29.8361 28.0009V27.9887C30.2249 27.2344 30.0959 26.5204 29.5279 26.0532C28.521 25.0942 27.0017 24.0354 25.8084 23.3547Z" fill="white"/>
<path d="M21.5944 15.1822C23.3162 15.2802 24.1511 16.1587 24.2407 17.9629C24.2729 18.6682 25.3211 18.6192 25.2888 17.9139C25.1741 15.5584 23.9164 14.2459 21.6517 14.1234C20.9619 14.0832 20.8974 15.1419 21.5944 15.1822Z" fill="white"/>
</svg>
